<?xml version="1.0" encoding="UTF-8" standalone="no"?>
<svg
   xmlns:dc="http://purl.org/dc/elements/1.1/"
   xmlns:cc="http://creativecommons.org/ns#"
   xmlns:rdf="http://www.w3.org/1999/02/22-rdf-syntax-ns#"
   xmlns:svg="http://www.w3.org/2000/svg"
   xmlns="http://www.w3.org/2000/svg"
   xmlns:sodipodi="http://sodipodi.sourceforge.net/DTD/sodipodi-0.dtd"
   xmlns:inkscape="http://www.inkscape.org/namespaces/inkscape"
   id="preview"
   width="523.40112"
   height="524.40112"
   viewBox="0 0 523.40112 524.40112"
   xunitlength="78"
   yunitlength="67"
   xmin="-3"
   xmax="3"
   ymin="-3"
   ymax="4"
   ox="274"
   oy="241"
   version="1.1"
   sodipodi:docname="-x^2 + 3.svg"
   inkscape:version="0.92.1 r15371">
  <metadata
     id="metadata22">
    <rdf:RDF>
      <cc:Work
         rdf:about="">
        <dc:format>image/svg+xml</dc:format>
        <dc:type
           rdf:resource="http://purl.org/dc/dcmitype/StillImage" />
      </cc:Work>
    </rdf:RDF>
  </metadata>
  <sodipodi:namedview
     pagecolor="#ffffff"
     bordercolor="#666666"
     borderopacity="1"
     objecttolerance="10"
     gridtolerance="10"
     guidetolerance="10"
     inkscape:pageopacity="0"
     inkscape:pageshadow="2"
     inkscape:window-width="640"
     inkscape:window-height="480"
     id="namedview20"
     showgrid="false"
     inkscape:zoom="0.39398998"
     inkscape:cx="232.52263"
     inkscape:cy="277.44"
     inkscape:window-x="0"
     inkscape:window-y="0"
     inkscape:window-maximized="0"
     inkscape:current-layer="preview" />
  <defs
     id="defs6">
    <style
       type="text/css"
       id="style2">@import url(&quot;http://cdnjs.cloudflare.com/ajax/libs/KaTeX/0.2.0/katex.min.css&quot;)</style>
    <style
       type="text/css"
       id="style4"><![CDATA[text {font-family="KaTeX_Main,serif"}]]></style>
  </defs>
  <path
     d="m 500.292,298.28514 21.528,7.176 -21.528,7.176 3.588,-7.176 z"
     id="path8"
     inkscape:connector-curvature="0"
     style="fill:#000000;stroke:#000000;stroke-width:1" />
  <path
     d="m 244.764,23.109139 7.176,-21.5280002 7.176,21.5280002 -7.176,-3.588 z"
     id="path10"
     inkscape:connector-curvature="0"
     style="fill:#000000;stroke:#000000;stroke-width:1" />
  <path
     d="M 0,305.46114 H 503.88 M 251.94,19.521139 V 524.40114 m 0,-208.69 v -20.5 m 78,20.5 v -20.5 m 78,20.5 v -20.5 m 78,20.5 v -20.5 m -312,20.5 v -20.5 m -78,20.5 v -20.5 m -78,20.5 v -20.5 m 244.25,10.25 h -20.5 m 20.5,67 h -20.5 m 20.5,67 h -20.5 m 20.5,67 h -20.5 m 20.5,-268 h -20.5 m 20.5,-67 h -20.5 m 20.5,-67 h -20.5 m 20.5,-67.000001 h -20.5"
     id="path12"
     inkscape:connector-curvature="0"
     style="fill:none;stroke:#000000;stroke-width:2" />
  <text
     id="null"
     x="251.94"
     y="-14.085862"
     font-style="italic"
     font-size="41"
     font-weight="normal"
     style="font-style:italic;font-weight:normal;font-size:41px;text-anchor:middle;fill:#000000;stroke-width:0px" />
  <text
     id="text15"
     x="537.48602"
     y="319.12714"
     font-style="italic"
     font-size="41"
     font-weight="normal"
     style="font-style:italic;font-weight:normal;font-size:41px;text-anchor:start;fill:#000000;stroke-width:0px" />
  <path
     id="path17"
     d="m 57.565,520.53014 0.934,-3.992 0.78,-3.317 0.78,-3.303 0.78,-3.29 0.78,-3.276 0.78,-3.263 0.78,-3.249 0.78,-3.237 0.78,-3.222 0.78,-3.21 0.78,-3.195 0.78,-3.183 0.78,-3.169 0.78,-3.156 0.78,-3.142 0.78,-3.129 0.78,-3.115 0.78,-3.103 0.78,-3.088 0.78,-3.076 0.78,-3.061 0.78,-3.049 0.78,-3.035 0.78,-3.022 0.78,-3.008 0.78,-2.995 0.78,-2.981 0.78,-2.969 0.78,-2.954 0.78,-2.942 0.78,-2.927 0.78,-2.915 0.78,-2.901 0.78,-2.888 0.78,-2.874 0.78,-2.861 0.78,-2.847 0.78,-2.834 0.78,-2.821 0.78,-2.807 0.78,-2.794 0.78,-2.781 0.78,-2.767 0.78,-2.754 0.78,-2.74 0.78,-2.727 0.78,-2.713 0.78,-2.7 0.78,-2.687 0.78,-2.673 0.78,-2.66 0.78,-2.647 0.78,-2.633 0.78,-2.62 0.78,-2.606 0.78,-2.593 0.78,-2.579 0.78,-2.566 0.78,-2.553 0.78,-2.539 0.78,-2.526 0.78,-2.513 0.78,-2.499 0.78,-2.486 0.78,-2.472 0.78,-2.459 0.78,-2.445 0.78,-2.432 0.78,-2.419 0.78,-2.405 0.78,-2.392 0.78,-2.379 0.78,-2.365 0.78,-2.352 0.78,-2.338 0.78,-2.325 0.78,-2.311 0.78,-2.298 0.78,-2.285 0.78,-2.271 0.78,-2.258 0.78,-2.245 0.78,-2.231 0.78,-2.218 0.78,-2.204 0.78,-2.191 0.78,-2.177 0.78,-2.164 0.78,-2.151 0.78,-2.137 0.78,-2.124 0.78,-2.111 0.78,-2.097 0.78,-2.084 0.78,-2.07 0.78,-2.057 0.78,-2.043 0.78,-2.03 0.78,-2.017 0.78,-2.003 0.78,-1.99 0.78,-1.977 0.78,-1.963 0.78,-1.95 0.78,-1.936 0.78,-1.923 0.78,-1.909 0.78,-1.896 0.78,-1.883 0.78,-1.869 0.78,-1.856 0.78,-1.843 0.78,-1.829 0.78,-1.816 0.78,-1.802 0.78,-1.789 0.78,-1.775 0.78,-1.762 0.78,-1.749 0.78,-1.735 0.78,-1.722 0.78,-1.709 0.78,-1.695 0.78,-1.682 0.78,-1.668 0.78,-1.655 0.78,-1.641 0.78,-1.628 0.78,-1.615 0.78,-1.601 0.78,-1.588 0.78,-1.575 0.78,-1.561 0.78,-1.548 0.78,-1.534 0.78,-1.521 0.78,-1.507 0.78,-1.494 0.78,-1.481 0.78,-1.467 0.78,-1.454 0.78,-1.441 0.78,-1.427 0.78,-1.414 0.78,-1.4 0.78,-1.387 0.78,-1.373 0.78,-1.361 0.78,-1.346 0.78,-1.334 0.78,-1.319 0.78,-1.307 0.78,-1.293 0.78,-1.28 0.78,-1.266 0.78,-1.253 0.78,-1.239 0.78,-1.227 0.78,-1.212 0.78,-1.2 0.78,-1.185 0.78,-1.173 0.78,-1.159 0.78,-1.146 0.78,-1.132 0.78,-1.119 0.78,-1.105 0.78,-1.093 0.78,-1.078 0.78,-1.066 0.78,-1.051 0.78,-1.039 0.78,-1.025 0.78,-1.012 0.78,-0.998 0.78,-0.985 0.78,-0.971 0.78,-0.959 0.78,-0.944 0.78,-0.932 0.78,-0.917 0.78,-0.905 0.78,-0.891 0.78,-0.878 0.78,-0.864 0.78,-0.851 0.78,-0.837 0.78,-0.825 0.78,-0.81 0.78,-0.798 0.78,-0.783 0.78,-0.771 0.78,-0.757 0.78,-0.744 0.78,-0.73 0.78,-0.717 0.78,-0.704 0.78,-0.69 0.78,-0.676 0.78,-0.664 0.78,-0.65 0.78,-0.636 0.78,-0.623 0.78,-0.61 0.78,-0.596 0.78,-0.583 0.78,-0.57 0.78,-0.556 0.78,-0.542 0.78,-0.53 0.78,-0.516 0.78,-0.502 0.78,-0.489 0.78,-0.476 0.78,-0.462 0.78,-0.449 0.78,-0.436 0.78,-0.422 0.78,-0.408 0.78,-0.396 0.78,-0.382 0.78,-0.368 0.78,-0.355 0.78,-0.342 0.78,-0.328 0.78,-0.315 0.78,-0.302 0.78,-0.288 0.78,-0.274 0.78,-0.262 0.78,-0.248 0.78,-0.234 0.78,-0.221 0.78,-0.208 0.78,-0.194 0.78,-0.181 0.78,-0.168 0.78,-0.154 0.78,-0.14 0.78,-0.128 0.78,-0.114 0.78,-0.1 0.78,-0.087 0.78,-0.074 0.78,-0.06 0.78,-0.047 0.78,-0.034 0.78,-0.02 0.78,-0.006 0.78,0.006 0.78,0.02 0.78,0.034 0.78,0.047 0.78,0.06 0.78,0.074 0.78,0.087 0.78,0.1 0.78,0.114 0.78,0.127 0.78,0.141 0.78,0.154 0.78,0.168 0.78,0.181 0.78,0.194 0.78,0.208 0.78,0.221 0.78,0.234 0.78,0.248 0.78,0.261 0.78,0.275 0.78,0.288 0.78,0.302 0.78,0.315 0.78,0.328 0.78,0.342 0.78,0.355 0.78,0.368 0.78,0.382 0.78,0.395 0.78,0.409 0.78,0.422 0.78,0.436 0.78,0.449 0.78,0.462 0.78,0.476 0.78,0.489 0.78,0.502 0.78,0.516 0.78,0.529 0.78,0.543 0.78,0.556 0.78,0.57 0.78,0.582 0.78,0.597 0.78,0.609 0.78,0.624 0.78,0.636 0.78,0.65 0.78,0.663 0.78,0.677 0.78,0.69 0.78,0.704 0.78,0.716 0.78,0.731 0.78,0.743 0.78,0.758 0.78,0.77 0.78,0.784 0.78,0.797 0.78,0.811 0.78,0.824 0.78,0.837 0.78,0.851 0.78,0.865 0.78,0.877 0.78,0.891 0.78,0.905 0.78,0.918 0.78,0.931 0.78,0.945 0.78,0.958 0.78,0.971 0.78,0.985 0.78,0.999 0.78,1.011 0.78,1.025 0.78,1.039 0.78,1.052 0.78,1.065 0.78,1.079 0.78,1.092 0.78,1.105 0.78,1.119 0.78,1.133 0.78,1.145 0.78,1.159 0.78,1.173 0.78,1.186 0.78,1.199 0.78,1.213 0.78,1.226 0.78,1.239 0.78,1.253 0.78,1.266 0.78,1.28 0.78,1.293 0.78,1.307 0.78,1.32 0.78,1.333 0.78,1.347 0.78,1.36 0.78,1.373 0.78,1.387 0.78,1.4 0.78,1.414 0.78,1.427 0.78,1.441 0.78,1.454 0.78,1.467 0.78,1.481 0.78,1.494 0.78,1.507 0.78,1.521 0.78,1.534 0.78,1.548 0.78,1.561 0.78,1.575 0.78,1.588 0.78,1.601 0.78,1.614 0.78,1.629 0.78,1.641 0.78,1.655 0.78,1.668 0.78,1.682 0.78,1.695 0.78,1.709 0.78,1.721 0.78,1.736 0.78,1.748 0.78,1.763 0.78,1.775 0.78,1.789 0.78,1.802 0.78,1.816 0.78,1.829 0.78,1.842 0.78,1.856 0.78,1.87 0.78,1.882 0.78,1.896 0.78,1.91 0.78,1.923 0.78,1.936 0.78,1.95 0.78,1.963 0.78,1.976 0.78,1.99 0.78,2.004 0.78,2.016 0.78,2.03 0.78,2.044 0.78,2.057 0.78,2.07 0.78,2.084 0.78,2.097 0.78,2.11 0.78,2.124 0.78,2.137 0.78,2.151 0.78,2.164 0.78,2.178 0.78,2.191 0.78,2.204 0.78,2.218 0.78,2.231 0.78,2.244 0.78,2.258 0.78,2.271 0.78,2.285 0.78,2.298 0.78,2.312 0.78,2.325 0.78,2.338 0.78,2.352 0.78,2.365 0.78,2.378 0.78,2.392 0.78,2.405 0.78,2.419 0.78,2.432 0.78,2.446 0.78,2.458 0.78,2.473 0.78,2.485 0.78,2.5 0.78,2.512 0.78,2.526 0.78,2.539 0.78,2.553 0.78,2.566 0.78,2.579 0.78,2.593 0.78,2.607 0.78,2.619 0.78,2.633 0.78,2.647 0.78,2.66 0.78,2.673 0.78,2.687 0.78,2.7 0.78,2.713 0.78,2.727 0.78,2.741 0.78,2.753 0.78,2.767 0.78,2.781 0.78,2.794 0.78,2.807 0.78,2.821 0.78,2.834 0.78,2.847 0.78,2.861 0.78,2.874 0.78,2.888 0.78,2.901 0.78,2.915 0.78,2.928 0.78,2.941 0.78,2.955 0.78,2.968 0.78,2.981 0.78,2.995 0.78,3.008 0.78,3.022 0.78,3.035 0.78,3.049 0.78,3.062 0.78,3.075 0.78,3.089 0.78,3.102 0.78,3.115 0.78,3.129 0.78,3.142 0.78,3.156 0.78,3.169 0.78,3.183 0.78,3.195 0.78,3.21 0.78,3.222 0.78,3.236 0.78,3.25 0.78,3.263 0.78,3.276 0.78,3.29 0.78,3.303 0.78,3.316 0.78,3.33 0.155,0.665"
     inkscape:connector-curvature="0"
     style="fill:none;stroke:#ff0000;stroke-width:5" />
</svg>
