<?xml version="1.0" encoding="UTF-8" standalone="no"?>
<svg
   xmlns:dc="http://purl.org/dc/elements/1.1/"
   xmlns:cc="http://creativecommons.org/ns#"
   xmlns:rdf="http://www.w3.org/1999/02/22-rdf-syntax-ns#"
   xmlns:svg="http://www.w3.org/2000/svg"
   xmlns="http://www.w3.org/2000/svg"
   xmlns:sodipodi="http://sodipodi.sourceforge.net/DTD/sodipodi-0.dtd"
   xmlns:inkscape="http://www.inkscape.org/namespaces/inkscape"
   id="preview"
   width="545.16229"
   height="545.16229"
   viewBox="0 0 545.16229 545.16229"
   xunitlength="47"
   yunitlength="47"
   xmin="-5"
   xmax="5"
   ymin="-5"
   ymax="5"
   ox="275"
   oy="275"
   version="1.1"
   sodipodi:docname="arcsinh(x).svg"
   inkscape:version="0.92.1 r15371">
  <metadata
     id="metadata66">
    <rdf:RDF>
      <cc:Work
         rdf:about="">
        <dc:format>image/svg+xml</dc:format>
        <dc:type
           rdf:resource="http://purl.org/dc/dcmitype/StillImage" />
      </cc:Work>
    </rdf:RDF>
  </metadata>
  <sodipodi:namedview
     pagecolor="#ffffff"
     bordercolor="#666666"
     borderopacity="1"
     objecttolerance="10"
     gridtolerance="10"
     guidetolerance="10"
     inkscape:pageopacity="0"
     inkscape:pageshadow="2"
     inkscape:window-width="1165"
     inkscape:window-height="764"
     id="namedview64"
     showgrid="false"
     inkscape:zoom="0.39333333"
     inkscape:cx="250.67075"
     inkscape:cy="295.16228"
     inkscape:window-x="318"
     inkscape:window-y="165"
     inkscape:window-maximized="0"
     inkscape:current-layer="preview" />
  <defs
     id="defs6">
    <style
       type="text/css"
       id="style2">@import url(&quot;http://cdnjs.cloudflare.com/ajax/libs/KaTeX/0.2.0/katex.min.css&quot;)</style>
    <style
       type="text/css"
       id="style4"><![CDATA[text {font-family="KaTeX_Main,serif"}]]></style>
  </defs>
  <path
     d="m 23.181139,279.78114 -21.6000002,-7.2 21.6000002,-7.2 -3.6,7.2 z"
     id="path8"
     inkscape:connector-curvature="0"
     style="fill:#000000;stroke:#000000;stroke-width:1" />
  <path
     d="m 521.98114,265.38114 21.6,7.2 -21.6,7.2 3.6,-7.2 z"
     id="path10"
     inkscape:connector-curvature="0"
     style="fill:#000000;stroke:#000000;stroke-width:1" />
  <path
     d="m 265.38114,23.181139 7.2,-21.6000002 7.2,21.6000002 -7.2,-3.6 z"
     id="path12"
     inkscape:connector-curvature="0"
     style="fill:#000000;stroke:#000000;stroke-width:1" />
  <path
     d="m 279.78114,521.98114 -7.2,21.6 -7.2,-21.6 7.2,3.6 z"
     id="path14"
     inkscape:connector-curvature="0"
     style="fill:#000000;stroke:#000000;stroke-width:1" />
  <path
     d="M 19.581139,272.58114 H 525.58114 m -253,-253.000001 V 525.58114 m 0,-246 v -14 m 47,14 v -14 m 47,14 v -14 m 47,14 v -14 m 47,14 v -14 m 47,14 v -14 m -282,14 v -14 m -47,14 v -14 m -47,14 v -14 m -47.000001,14 v -14 m -47,14 v -14 m 242.000001,7 h -14 m 14,47 h -14 m 14,47 h -14 m 14,47 h -14 m 14,47 h -14 m 14,47 h -14 m 14,-282 h -14 m 14,-47 h -14 m 14,-47 h -14 m 14,-47.000001 h -14 m 14,-47 h -14"
     id="path16"
     inkscape:connector-curvature="0"
     style="fill:none;stroke:#000000;stroke-width:2" />
  <text
     id="null"
     x="319.58115"
     y="302.58115"
     font-style=""
     font-size="28"
     font-weight="normal"
     style="font-weight:normal;font-size:28px;text-anchor:middle;fill:#000000;stroke-width:0px">1</text>
  <text
     id="text19"
     x="366.58115"
     y="302.58115"
     font-style=""
     font-size="28"
     font-weight="normal"
     style="font-weight:normal;font-size:28px;text-anchor:middle;fill:#000000;stroke-width:0px">2</text>
  <text
     id="text21"
     x="413.58115"
     y="302.58115"
     font-style=""
     font-size="28"
     font-weight="normal"
     style="font-weight:normal;font-size:28px;text-anchor:middle;fill:#000000;stroke-width:0px">3</text>
  <text
     id="text23"
     x="460.58115"
     y="302.58115"
     font-style=""
     font-size="28"
     font-weight="normal"
     style="font-weight:normal;font-size:28px;text-anchor:middle;fill:#000000;stroke-width:0px">4</text>
  <text
     id="text25"
     x="507.58115"
     y="302.58115"
     font-style=""
     font-size="28"
     font-weight="normal"
     style="font-weight:normal;font-size:28px;text-anchor:middle;fill:#000000;stroke-width:0px">5</text>
  <text
     id="text27"
     x="225.58115"
     y="302.58115"
     font-style=""
     font-size="28"
     font-weight="normal"
     style="font-weight:normal;font-size:28px;text-anchor:middle;fill:#000000;stroke-width:0px">-1</text>
  <text
     id="text29"
     x="178.58115"
     y="302.58115"
     font-style=""
     font-size="28"
     font-weight="normal"
     style="font-weight:normal;font-size:28px;text-anchor:middle;fill:#000000;stroke-width:0px">-2</text>
  <text
     id="text31"
     x="131.58115"
     y="302.58115"
     font-style=""
     font-size="28"
     font-weight="normal"
     style="font-weight:normal;font-size:28px;text-anchor:middle;fill:#000000;stroke-width:0px">-3</text>
  <text
     id="text33"
     x="84.581139"
     y="302.58115"
     font-style=""
     font-size="28"
     font-weight="normal"
     style="font-weight:normal;font-size:28px;text-anchor:middle;fill:#000000;stroke-width:0px">-4</text>
  <text
     id="text35"
     x="37.581139"
     y="302.58115"
     font-style=""
     font-size="28"
     font-weight="normal"
     style="font-weight:normal;font-size:28px;text-anchor:middle;fill:#000000;stroke-width:0px">-5</text>
  <text
     id="text37"
     x="261.24713"
     y="234.91415"
     font-style=""
     font-size="28"
     font-weight="normal"
     style="font-weight:normal;font-size:28px;text-anchor:end;fill:#000000;stroke-width:0px">1</text>
  <text
     id="text39"
     x="261.24713"
     y="187.91414"
     font-style=""
     font-size="28"
     font-weight="normal"
     style="font-weight:normal;font-size:28px;text-anchor:end;fill:#000000;stroke-width:0px">2</text>
  <text
     id="text41"
     x="261.24713"
     y="140.91414"
     font-style=""
     font-size="28"
     font-weight="normal"
     style="font-weight:normal;font-size:28px;text-anchor:end;fill:#000000;stroke-width:0px">3</text>
  <text
     id="text43"
     x="261.24713"
     y="93.914131"
     font-style=""
     font-size="28"
     font-weight="normal"
     style="font-weight:normal;font-size:28px;text-anchor:end;fill:#000000;stroke-width:0px">4</text>
  <text
     id="text45"
     x="261.24713"
     y="46.914139"
     font-style=""
     font-size="28"
     font-weight="normal"
     style="font-weight:normal;font-size:28px;text-anchor:end;fill:#000000;stroke-width:0px">5</text>
  <text
     id="text47"
     x="261.24713"
     y="328.91415"
     font-style=""
     font-size="28"
     font-weight="normal"
     style="font-weight:normal;font-size:28px;text-anchor:end;fill:#000000;stroke-width:0px">-1</text>
  <text
     id="text49"
     x="261.24713"
     y="375.91415"
     font-style=""
     font-size="28"
     font-weight="normal"
     style="font-weight:normal;font-size:28px;text-anchor:end;fill:#000000;stroke-width:0px">-2</text>
  <text
     id="text51"
     x="261.24713"
     y="422.91415"
     font-style=""
     font-size="28"
     font-weight="normal"
     style="font-weight:normal;font-size:28px;text-anchor:end;fill:#000000;stroke-width:0px">-3</text>
  <text
     id="text53"
     x="261.24713"
     y="469.91415"
     font-style=""
     font-size="28"
     font-weight="normal"
     style="font-weight:normal;font-size:28px;text-anchor:end;fill:#000000;stroke-width:0px">-4</text>
  <text
     id="text55"
     x="261.24713"
     y="516.91412"
     font-style=""
     font-size="28"
     font-weight="normal"
     style="font-weight:normal;font-size:28px;text-anchor:end;fill:#000000;stroke-width:0px">-5</text>
  <text
     id="text57"
     x="272.58115"
     y="-9.752861"
     font-style="italic"
     font-size="28"
     font-weight="normal"
     style="font-style:italic;font-weight:normal;font-size:28px;text-anchor:middle;fill:#000000;stroke-width:0px" />
  <text
     id="text59"
     x="554.91412"
     y="281.91415"
     font-style="italic"
     font-size="28"
     font-weight="normal"
     style="font-style:italic;font-weight:normal;font-size:28px;text-anchor:start;fill:#000000;stroke-width:0px" />
  <path
     id="path61"
     d="m 23.481139,383.95314 0.783,-0.145 0.783,-0.146 0.783,-0.146 0.784,-0.147 0.783,-0.147 0.783,-0.148 0.784,-0.148 0.783,-0.149 0.783,-0.149 0.784,-0.149 0.783,-0.15 0.783,-0.151 0.784,-0.151 0.783,-0.151 0.783,-0.152 0.784,-0.153 0.783,-0.153 0.783,-0.153 0.784,-0.154 0.783,-0.154 0.783,-0.155 0.784,-0.155 0.783,-0.156 0.783,-0.157 0.784,-0.157 0.783,-0.157 0.783,-0.158 0.784,-0.158 0.783,-0.159 0.783,-0.16 0.784,-0.16 0.783,-0.16 0.783,-0.161 0.784,-0.162 0.783,-0.162 0.783,-0.163 0.784,-0.163 0.783,-0.164 0.783,-0.165 0.784,-0.165 0.783,-0.165 0.783,-0.166 0.784,-0.167 0.783,-0.167 0.783,-0.168 0.784,-0.168 0.783,-0.17 0.783,-0.169 0.784,-0.17 0.783,-0.171 0.783,-0.172 0.784,-0.172 0.783,-0.172 0.783,-0.174 0.784,-0.174 0.783,-0.174 0.783,-0.175 0.784,-0.176 0.783,-0.177 0.783,-0.177 0.784,-0.177 0.783,-0.179 0.783,-0.179 0.784,-0.18 0.783,-0.18 0.783,-0.181 0.784,-0.182 0.783,-0.182 0.783,-0.184 0.784,-0.183 0.783,-0.185 0.783,-0.185 0.784,-0.186 0.783,-0.187 0.783,-0.187 0.784,-0.189 0.783,-0.188 0.783,-0.19 0.784,-0.19 0.783,-0.191 0.783,-0.192 0.784,-0.193 0.783,-0.193 0.783,-0.195 0.784,-0.194 0.783,-0.196 0.783,-0.197 0.784,-0.197 0.783,-0.198 0.783,-0.199 0.784,-0.2 0.783,-0.201 0.783,-0.201 0.784,-0.202 0.783,-0.203 0.783,-0.204 0.784,-0.205 0.783001,-0.206 0.783,-0.206 0.784,-0.208 0.783,-0.208 0.783,-0.209 0.784,-0.21 0.783,-0.211 0.783,-0.212 0.784,-0.213 0.783,-0.214 0.783,-0.215 0.784,-0.215 0.783,-0.217 0.783,-0.218 0.784,-0.218 0.783,-0.22 0.783,-0.22 0.784,-0.222 0.783,-0.222 0.783,-0.224 0.784,-0.224 0.783,-0.226 0.783,-0.227 0.784,-0.227 0.783,-0.229 0.783,-0.23 0.784,-0.231 0.783,-0.232 0.783,-0.233 0.784,-0.234 0.783,-0.235 0.783,-0.237 0.784,-0.237 0.783,-0.239 0.783,-0.24 0.784,-0.241 0.783,-0.242 0.783,-0.244 0.784,-0.245 0.783,-0.245 0.783,-0.247 0.784,-0.249 0.783,-0.249 0.783,-0.251 0.784,-0.252 0.783,-0.254 0.783,-0.254 0.784,-0.256 0.783,-0.258 0.783,-0.259 0.784,-0.26 0.783,-0.261 0.783,-0.263 0.784,-0.264 0.783,-0.265 0.783,-0.267 0.784,-0.269 0.783,-0.27 0.783,-0.271 0.784,-0.273 0.783,-0.274 0.783,-0.276 0.784,-0.277 0.783,-0.279 0.783,-0.281 0.784,-0.282 0.783,-0.283 0.783,-0.285 0.784,-0.287 0.783,-0.288 0.783,-0.291 0.784,-0.291 0.783,-0.294 0.783,-0.295 0.784,-0.297 0.783,-0.298 0.783,-0.301 0.784,-0.302 0.783,-0.304 0.783,-0.306 0.784,-0.307 0.783,-0.31 0.783,-0.311 0.784,-0.314 0.783,-0.315 0.783,-0.317 0.784,-0.319 0.783,-0.321 0.783,-0.323 0.784,-0.326 0.783,-0.327 0.783,-0.329 0.784,-0.332 0.783,-0.333 0.783,-0.336 0.784,-0.338 0.783,-0.34 0.783,-0.342 0.784,-0.345 0.783,-0.346 0.783,-0.35 0.784,-0.351 0.783,-0.354 0.783,-0.356 0.784,-0.359 0.783,-0.361 0.783,-0.364 0.784,-0.366 0.783,-0.368 0.783,-0.371 0.784,-0.374 0.783,-0.377 0.783,-0.379 0.784,-0.381 0.783,-0.385 0.783,-0.387 0.784,-0.39 0.783,-0.393 0.783,-0.396 0.784,-0.398 0.783,-0.402 0.783,-0.405 0.784,-0.407 0.783,-0.411 0.783,-0.413 0.784,-0.417 0.783,-0.42 0.783,-0.423 0.784,-0.426 0.783,-0.43 0.783,-0.433 0.784,-0.436 0.783,-0.439 0.783,-0.443 0.784,-0.447 0.783,-0.45 0.783,-0.453 0.784,-0.457 0.783,-0.461 0.783,-0.464 0.784,-0.469 0.783,-0.471 0.783,-0.476 0.784,-0.48 0.783,-0.483 0.783,-0.488 0.784,-0.491 0.783,-0.495 0.783,-0.5 0.784,-0.503 0.783,-0.508 0.783,-0.512 0.784,-0.516 0.783,-0.52 0.783,-0.525 0.784,-0.529 0.783,-0.534 0.783,-0.538 0.784,-0.542 0.783,-0.547 0.783,-0.552 0.784,-0.556 0.783,-0.561 0.783,-0.565 0.784,-0.571 0.783,-0.575 0.783,-0.58 0.784,-0.584 0.783,-0.59 0.783,-0.594 0.784,-0.599 0.783,-0.605 0.783,-0.609 0.784,-0.614 0.783,-0.619 0.783,-0.624 0.784,-0.63 0.783,-0.634 0.783,-0.639 0.784,-0.644 0.783,-0.649 0.783,-0.655 0.784,-0.659 0.783,-0.664 0.783,-0.67 0.784,-0.674 0.783,-0.679 0.783,-0.684 0.784,-0.688 0.783,-0.694 0.783,-0.698 0.784,-0.703 0.783,-0.708 0.783,-0.712 0.784,-0.717 0.783,-0.72 0.783,-0.726 0.784,-0.729 0.783,-0.733 0.783,-0.738 0.784,-0.741 0.783,-0.745 0.783,-0.749 0.784,-0.752 0.783,-0.755 0.783,-0.758 0.784,-0.762 0.783,-0.764 0.783,-0.767 0.784,-0.769 0.783,-0.772 0.783,-0.773 0.784,-0.776 0.783,-0.777 0.783,-0.779 0.784,-0.78 0.783,-0.781 0.783,-0.782 0.784,-0.783 0.783,-0.783 0.783,-0.783 0.784,-0.784 0.783,-0.783 0.783,-0.782 0.784,-0.782 0.783,-0.781 0.783,-0.78 0.784,-0.779 0.783,-0.777 0.783,-0.776 0.784,-0.774 0.783,-0.771 0.783,-0.77 0.784,-0.767 0.783,-0.764 0.783,-0.761 0.784,-0.759 0.783,-0.755 0.783,-0.752 0.784,-0.748 0.783,-0.745 0.783,-0.742 0.784,-0.737 0.783,-0.734 0.783,-0.729 0.784,-0.725 0.783,-0.721 0.783,-0.717 0.784,-0.712 0.783,-0.707 0.783,-0.703 0.784,-0.699 0.783,-0.693 0.783,-0.689 0.784,-0.684 0.783,-0.679 0.783,-0.674 0.784,-0.669 0.783,-0.665 0.783,-0.659 0.784,-0.654 0.783,-0.649 0.783,-0.645 0.784,-0.639 0.783,-0.634 0.783,-0.629 0.784,-0.624 0.783,-0.62 0.783,-0.614 0.784,-0.609 0.783,-0.604 0.783,-0.599 0.784,-0.595 0.783,-0.589 0.783,-0.585 0.784,-0.58 0.783,-0.575 0.783,-0.57 0.784,-0.566 0.783,-0.561 0.783,-0.556 0.784,-0.551 0.783,-0.547 0.783,-0.543 0.784,-0.538 0.783,-0.533 0.783,-0.53 0.784,-0.524 0.783,-0.521 0.783,-0.516 0.784,-0.512 0.783,-0.508 0.783,-0.503 0.784,-0.499 0.783,-0.496 0.783,-0.491 0.784,-0.488 0.783,-0.483 0.783,-0.48 0.784,-0.475 0.783,-0.472 0.783,-0.468 0.784,-0.465 0.783,-0.46 0.783,-0.457 0.784,-0.454 0.783,-0.45 0.783,-0.446 0.784,-0.443 0.783,-0.44 0.783,-0.436 0.784,-0.433 0.783,-0.43 0.783,-0.426 0.784,-0.423 0.783,-0.42 0.783,-0.417 0.784,-0.413 0.783,-0.411 0.783,-0.407 0.784,-0.405 0.783,-0.401 0.783,-0.399 0.784,-0.396 0.783,-0.392 0.783,-0.391 0.784,-0.387 0.783,-0.384 0.783,-0.382 0.783,-0.379 0.784,-0.377 0.783,-0.373 0.783,-0.372 0.784,-0.368 0.783,-0.366 0.783,-0.364 0.784,-0.361 0.783,-0.359 0.783,-0.356 0.784,-0.354 0.783,-0.351 0.783,-0.349 0.784,-0.347 0.783,-0.345 0.783,-0.342 0.784,-0.34 0.783,-0.338 0.783,-0.336 0.784,-0.333 0.783,-0.332 0.783,-0.329 0.784,-0.327 0.783,-0.325 0.783,-0.324 0.784,-0.321 0.783,-0.319 0.783,-0.317 0.784,-0.315 0.783,-0.313 0.783,-0.312 0.784,-0.309 0.783,-0.308 0.783,-0.306 0.784,-0.304 0.783,-0.302 0.783,-0.3 0.784,-0.299 0.783,-0.297 0.783,-0.295 0.784,-0.293 0.783,-0.292 0.783,-0.29 0.784,-0.289 0.783,-0.287 0.783,-0.285 0.784,-0.283 0.783,-0.282 0.783,-0.281 0.784,-0.279 0.783,-0.277 0.783,-0.276 0.784,-0.274 0.783,-0.273 0.783,-0.271 0.784,-0.27 0.783,-0.268 0.783,-0.267 0.784,-0.266 0.783,-0.264 0.783,-0.263 0.784,-0.261 0.783,-0.26 0.783,-0.259 0.784,-0.257 0.783,-0.256 0.783,-0.255 0.784,-0.253 0.783,-0.253 0.783,-0.25 0.784,-0.25 0.783,-0.248 0.783,-0.247 0.784,-0.246 0.783,-0.245 0.783,-0.243 0.784,-0.243 0.783,-0.241 0.783,-0.24 0.784,-0.238 0.783,-0.238 0.783,-0.236 0.784,-0.236 0.783,-0.234 0.783,-0.233 0.784,-0.232 0.783,-0.231 0.783,-0.23 0.784,-0.229 0.783,-0.227 0.783,-0.227 0.784,-0.226 0.783,-0.224 0.783,-0.224 0.784,-0.222 0.783,-0.222 0.783,-0.22 0.784,-0.22 0.783,-0.218 0.783,-0.218 0.784,-0.217 0.783,-0.215 0.783,-0.215 0.784,-0.214 0.783,-0.213 0.783,-0.212 0.784,-0.211 0.783,-0.21 0.783,-0.209 0.784,-0.208 0.783,-0.208 0.783,-0.206 0.784,-0.206 0.783,-0.205 0.783,-0.204 0.784,-0.203 0.783,-0.202 0.783,-0.201 0.784,-0.201 0.783,-0.2 0.783,-0.199 0.784,-0.198 0.783,-0.197 0.783,-0.197 0.784,-0.195 0.783,-0.195 0.783,-0.195 0.784,-0.193 0.783,-0.193 0.783,-0.191 0.784,-0.192 0.783,-0.19 0.783,-0.189 0.784,-0.189 0.783,-0.189 0.783,-0.187 0.784,-0.187 0.783,-0.186 0.783,-0.185 0.784,-0.184 0.783,-0.184 0.783,-0.183 0.784,-0.183 0.783,-0.182 0.783,-0.181 0.784,-0.18 0.783,-0.18 0.783,-0.179 0.784,-0.178 0.783,-0.178 0.783,-0.177 0.784,-0.177 0.783,-0.176 0.783,-0.175 0.784,-0.174 0.783,-0.174 0.783,-0.174 0.784,-0.172 0.783,-0.172 0.783,-0.172 0.784,-0.171 0.783,-0.17 0.783,-0.169 0.784,-0.169 0.783,-0.169 0.783,-0.168 0.784,-0.167 0.783,-0.167 0.783,-0.166 0.784,-0.165 0.783,-0.165 0.783,-0.165 0.784,-0.164 0.783,-0.163 0.783,-0.163 0.784,-0.162 0.783,-0.161 0.783,-0.162 0.784,-0.16 0.783,-0.16 0.783,-0.16 0.784,-0.159 0.783,-0.158 0.783,-0.158 0.784,-0.157 0.783,-0.157 0.783,-0.157 0.784,-0.156 0.783,-0.155 0.783,-0.155 0.784,-0.154 0.783,-0.154 0.783,-0.153 0.784,-0.153 0.783,-0.153 0.783,-0.152 0.784,-0.151 0.783,-0.151 0.783,-0.15 0.784,-0.151 0.783,-0.149 0.783,-0.149 0.784,-0.149 0.783,-0.148 0.783,-0.148 0.784,-0.147 0.783,-0.147 0.783,-0.146 0.784,-0.146 0.783,-0.145"
     inkscape:connector-curvature="0"
     style="fill:none;stroke:#ff0000;stroke-width:5" />
</svg>
