<?xml version="1.0" encoding="UTF-8" standalone="no"?>
<svg
   xmlns:dc="http://purl.org/dc/elements/1.1/"
   xmlns:cc="http://creativecommons.org/ns#"
   xmlns:rdf="http://www.w3.org/1999/02/22-rdf-syntax-ns#"
   xmlns:svg="http://www.w3.org/2000/svg"
   xmlns="http://www.w3.org/2000/svg"
   xmlns:sodipodi="http://sodipodi.sourceforge.net/DTD/sodipodi-0.dtd"
   xmlns:inkscape="http://www.inkscape.org/namespaces/inkscape"
   id="preview"
   width="524.40112"
   height="523.40112"
   viewBox="0 0 524.40112 523.40112"
   xunitlength="67"
   yunitlength="78"
   xmin="-3.5"
   xmax="3.5"
   ymin="-3"
   ymax="3"
   ox="274.5"
   oy="274"
   version="1.1"
   sodipodi:docname="arctanh(x).svg"
   inkscape:version="0.92.1 r15371">
  <metadata
     id="metadata46">
    <rdf:RDF>
      <cc:Work
         rdf:about="">
        <dc:format>image/svg+xml</dc:format>
        <dc:type
           rdf:resource="http://purl.org/dc/dcmitype/StillImage" />
      </cc:Work>
    </rdf:RDF>
  </metadata>
  <sodipodi:namedview
     pagecolor="#ffffff"
     bordercolor="#666666"
     borderopacity="1"
     objecttolerance="10"
     gridtolerance="10"
     guidetolerance="10"
     inkscape:pageopacity="0"
     inkscape:pageshadow="2"
     inkscape:window-width="640"
     inkscape:window-height="480"
     id="namedview44"
     showgrid="false"
     inkscape:zoom="0.39464883"
     inkscape:cx="233.09678"
     inkscape:cy="276.94"
     inkscape:window-x="892"
     inkscape:window-y="256"
     inkscape:window-maximized="0"
     inkscape:current-layer="preview" />
  <defs
     id="defs6">
    <style
       type="text/css"
       id="style2">@import url(&quot;http://cdnjs.cloudflare.com/ajax/libs/KaTeX/0.2.0/katex.min.css&quot;)</style>
    <style
       type="text/css"
       id="style4"><![CDATA[text {font-family="KaTeX_Main,serif"}]]></style>
  </defs>
  <path
     d="m 501.292,264.28514 21.528,7.176 -21.528,7.176 3.588,-7.176 z"
     id="path8"
     inkscape:connector-curvature="0"
     style="fill:#000000;stroke:#000000;stroke-width:1" />
  <path
     d="m 245.264,23.109139 7.176,-21.5280002 7.176,21.5280002 -7.176,-3.588 z"
     id="path10"
     inkscape:connector-curvature="0"
     style="fill:#000000;stroke:#000000;stroke-width:1" />
  <path
     d="M 0,271.46114 H 504.88 M 252.44,19.521139 V 523.40114 m 0,-244.94 v -14 m 67,14 v -14 m 67,14 v -14 m 67,14 v -14 m -268,14 v -14 m -67,14 v -14 m -67,14 v -14 m 208,7 h -14 m 14,78 h -14 m 14,78 h -14 m 14,78 h -14 m 14,-312 h -14 m 14,-78 h -14 m 14,-78.000001 h -14"
     id="path12"
     inkscape:connector-curvature="0"
     style="fill:none;stroke:#000000;stroke-width:2" />
  <text
     id="null"
     x="319.44"
     y="301.46115"
     font-style=""
     font-size="28"
     font-weight="normal"
     style="font-weight:normal;font-size:28px;text-anchor:middle;fill:#000000;stroke-width:0px">1</text>
  <text
     id="text15"
     x="386.44"
     y="301.46115"
     font-style=""
     font-size="28"
     font-weight="normal"
     style="font-weight:normal;font-size:28px;text-anchor:middle;fill:#000000;stroke-width:0px">2</text>
  <text
     id="text17"
     x="453.44"
     y="301.46115"
     font-style=""
     font-size="28"
     font-weight="normal"
     style="font-weight:normal;font-size:28px;text-anchor:middle;fill:#000000;stroke-width:0px">3</text>
  <text
     id="text19"
     x="185.44"
     y="301.46115"
     font-style=""
     font-size="28"
     font-weight="normal"
     style="font-weight:normal;font-size:28px;text-anchor:middle;fill:#000000;stroke-width:0px">-1</text>
  <text
     id="text21"
     x="118.44"
     y="301.46115"
     font-style=""
     font-size="28"
     font-weight="normal"
     style="font-weight:normal;font-size:28px;text-anchor:middle;fill:#000000;stroke-width:0px">-2</text>
  <text
     id="text23"
     x="51.439999"
     y="301.46115"
     font-style=""
     font-size="28"
     font-weight="normal"
     style="font-weight:normal;font-size:28px;text-anchor:middle;fill:#000000;stroke-width:0px">-3</text>
  <text
     id="text25"
     x="241.10599"
     y="202.79413"
     font-style=""
     font-size="28"
     font-weight="normal"
     style="font-weight:normal;font-size:28px;text-anchor:end;fill:#000000;stroke-width:0px">1</text>
  <text
     id="text27"
     x="241.10599"
     y="124.79413"
     font-style=""
     font-size="28"
     font-weight="normal"
     style="font-weight:normal;font-size:28px;text-anchor:end;fill:#000000;stroke-width:0px">2</text>
  <text
     id="text29"
     x="241.10599"
     y="46.79414"
     font-style=""
     font-size="28"
     font-weight="normal"
     style="font-weight:normal;font-size:28px;text-anchor:end;fill:#000000;stroke-width:0px">3</text>
  <text
     id="text31"
     x="241.10599"
     y="358.79416"
     font-style=""
     font-size="28"
     font-weight="normal"
     style="font-weight:normal;font-size:28px;text-anchor:end;fill:#000000;stroke-width:0px">-1</text>
  <text
     id="text33"
     x="241.10599"
     y="436.79416"
     font-style=""
     font-size="28"
     font-weight="normal"
     style="font-weight:normal;font-size:28px;text-anchor:end;fill:#000000;stroke-width:0px">-2</text>
  <text
     id="text35"
     x="241.10599"
     y="514.79413"
     font-style=""
     font-size="28"
     font-weight="normal"
     style="font-weight:normal;font-size:28px;text-anchor:end;fill:#000000;stroke-width:0px">-3</text>
  <text
     id="text37"
     x="252.44"
     y="-9.752862"
     font-style="italic"
     font-size="28"
     font-weight="normal"
     style="font-style:italic;font-weight:normal;font-size:28px;text-anchor:middle;fill:#000000;stroke-width:0px" />
  <text
     id="text39"
     x="534.15302"
     y="280.79416"
     font-style="italic"
     font-size="28"
     font-weight="normal"
     style="font-style:italic;font-weight:normal;font-size:28px;text-anchor:start;fill:#000000;stroke-width:0px" />
  <path
     id="path41"
     d="m 185.998,485.05514 0.781,-34.379 0.782,-18.155 0.782,-12.465 0.781,-9.532 0.782,-7.737 0.782,-6.526 0.781,-5.652 0.782,-4.993 0.782,-4.477 0.781,-4.064 0.782,-3.723 0.782,-3.44 0.781,-3.199 0.782,-2.993 0.782,-2.814 0.781,-2.658 0.782,-2.519 0.782,-2.396 0.781,-2.286 0.782,-2.188 0.782,-2.098 0.781,-2.018 0.782,-1.943 0.782,-1.876 0.781,-1.814 0.782,-1.756 0.782,-1.704 0.781,-1.655 0.782,-1.609 0.782,-1.567 0.781,-1.528 0.782,-1.491 0.782,-1.456 0.781,-1.424 0.782,-1.394 0.782,-1.366 0.781,-1.338 0.782,-1.314 0.782,-1.289 0.781,-1.267 0.782,-1.246 0.782,-1.226 0.781,-1.206 0.782,-1.189 0.782,-1.172 0.781,-1.155 0.782,-1.14 0.782,-1.126 0.781,-1.111 0.782,-1.099 0.782,-1.086 0.781,-1.074 0.782,-1.063 0.782,-1.052 0.781,-1.042 0.782,-1.032 0.782,-1.023 0.781,-1.014 0.782,-1.007 0.782,-0.998 0.781,-0.991 0.782,-0.984 0.782,-0.977 0.781,-0.971 0.782,-0.966 0.782,-0.959 0.781,-0.955 0.782,-0.949 0.782,-0.945 0.781,-0.941 0.782,-0.937 0.782,-0.933 0.781,-0.93 0.782,-0.927 0.782,-0.924 0.781,-0.921 0.782,-0.919 0.782,-0.917 0.781,-0.915 0.782,-0.914 0.782,-0.913 0.781,-0.911 0.782,-0.911 0.782,-0.91 0.781,-0.91 0.782,-0.91 0.782,-0.911 0.781,-0.91 0.782,-0.912 0.782,-0.912 0.781,-0.914 0.782,-0.915 0.782,-0.917 0.781,-0.919 0.782,-0.922 0.782,-0.924 0.781,-0.926 0.782,-0.93 0.782,-0.933 0.781,-0.937 0.782,-0.941 0.782,-0.945 0.781,-0.95 0.782,-0.954 0.782,-0.96 0.781,-0.965 0.782,-0.971 0.782,-0.977 0.781,-0.984 0.782,-0.991 0.782,-0.999 0.781,-1.006 0.782,-1.014 0.782,-1.023 0.781,-1.033 0.782,-1.042 0.782,-1.052 0.781,-1.063 0.782,-1.074 0.782,-1.086 0.781,-1.098 0.782,-1.112 0.782,-1.125 0.781,-1.14 0.782,-1.156 0.782,-1.171 0.781,-1.189 0.782,-1.206 0.782,-1.226 0.781,-1.246 0.782,-1.267 0.782,-1.29 0.781,-1.313 0.782,-1.339 0.782,-1.365 0.781,-1.394 0.782,-1.424 0.782,-1.457 0.781,-1.49 0.782,-1.528 0.782,-1.567 0.781,-1.609 0.782,-1.655 0.782,-1.704 0.781,-1.756 0.782,-1.814 0.782,-1.876 0.781,-1.943 0.782,-2.017 0.782,-2.099 0.781,-2.187 0.782,-2.287 0.782,-2.396 0.781,-2.519 0.782,-2.657 0.782,-2.814 0.781,-2.993 0.782,-3.199 0.782,-3.44 0.781,-3.723 0.782,-4.063 0.782,-4.477 0.781,-4.992 0.782,-5.652 0.782,-6.525 0.781,-7.737 0.782,-9.53 0.782,-12.463 0.781,-18.149001 0.782,-34.359"
     inkscape:connector-curvature="0"
     style="fill:none;stroke:#ff0000;stroke-width:5" />
</svg>
