<?xml version="1.0" encoding="UTF-8" standalone="no"?>
<svg
   xmlns:dc="http://purl.org/dc/elements/1.1/"
   xmlns:cc="http://creativecommons.org/ns#"
   xmlns:rdf="http://www.w3.org/1999/02/22-rdf-syntax-ns#"
   xmlns:svg="http://www.w3.org/2000/svg"
   xmlns="http://www.w3.org/2000/svg"
   xmlns:sodipodi="http://sodipodi.sourceforge.net/DTD/sodipodi-0.dtd"
   xmlns:inkscape="http://www.inkscape.org/namespaces/inkscape"
   id="preview"
   width="542.92249"
   height="545.72229"
   viewBox="0 0 542.92249 545.7223"
   xunitlength="78"
   yunitlength="214"
   xmin="-3"
   xmax="3"
   ymin="-1.1"
   ymax="1.1"
   ox="274"
   oy="275.4"
   version="1.1"
   sodipodi:docname="cos(x).svg"
   inkscape:version="0.92.1 r15371">
  <metadata
     id="metadata42">
    <rdf:RDF>
      <cc:Work
         rdf:about="">
        <dc:format>image/svg+xml</dc:format>
        <dc:type
           rdf:resource="http://purl.org/dc/dcmitype/StillImage" />
      </cc:Work>
    </rdf:RDF>
  </metadata>
  <sodipodi:namedview
     pagecolor="#ffffff"
     bordercolor="#666666"
     borderopacity="1"
     objecttolerance="10"
     gridtolerance="10"
     guidetolerance="10"
     inkscape:pageopacity="0"
     inkscape:pageshadow="2"
     inkscape:window-width="640"
     inkscape:window-height="480"
     id="namedview40"
     showgrid="false"
     inkscape:zoom="0.3928096"
     inkscape:cx="251.91039"
     inkscape:cy="297.86114"
     inkscape:window-x="1109"
     inkscape:window-y="308"
     inkscape:window-maximized="0"
     inkscape:current-layer="preview" />
  <defs
     id="defs6">
    <style
       type="text/css"
       id="style2">@import url(&quot;http://cdnjs.cloudflare.com/ajax/libs/KaTeX/0.2.0/katex.min.css&quot;)</style>
    <style
       type="text/css"
       id="style4"><![CDATA[text {font-family="KaTeX_Main,serif"}]]></style>
  </defs>
  <path
     d="m 23.109238,280.03614 -21.528,-7.175 21.528,-7.176 -3.588,7.176 z"
     id="path8"
     inkscape:connector-curvature="0"
     style="fill:#000000;stroke:#000000;stroke-width:1" />
  <path
     d="m 519.81324,265.68514 21.528,7.176 -21.528,7.175 3.588,-7.175 z"
     id="path10"
     inkscape:connector-curvature="0"
     style="fill:#000000;stroke:#000000;stroke-width:1" />
  <path
     d="m 264.28524,23.109139 7.176,-21.5280002 7.176,21.5280002 -7.176,-3.588 z"
     id="path12"
     inkscape:connector-curvature="0"
     style="fill:#000000;stroke:#000000;stroke-width:1" />
  <path
     d="m 278.63724,522.61314 -7.176,21.528 -7.176,-21.528 7.176,3.588 z"
     id="path14"
     inkscape:connector-curvature="0"
     style="fill:#000000;stroke:#000000;stroke-width:1" />
  <path
     d="M 19.521238,272.86114 H 523.40124 M 271.46124,19.521139 V 526.20114 m 0,-246.34 v -14 m 78,14 v -14 m 78,14 v -14 m 78,14 v -14 m -312,14 v -14 m -78,14 v -14 m -78.000002,14 v -14 m 241.000002,7 h -14 m 14,214 h -14 m 14,-428.001001 h -14"
     id="path16"
     inkscape:connector-curvature="0"
     style="fill:none;stroke:#000000;stroke-width:2" />
  <text
     id="null"
     x="349.46124"
     y="302.86115"
     font-style=""
     font-size="28"
     font-weight="normal"
     style="font-weight:normal;font-size:28px;text-anchor:middle;fill:#000000;stroke-width:0px">1</text>
  <text
     id="text19"
     x="427.46124"
     y="302.86115"
     font-style=""
     font-size="28"
     font-weight="normal"
     style="font-weight:normal;font-size:28px;text-anchor:middle;fill:#000000;stroke-width:0px">2</text>
  <text
     id="text21"
     x="505.46124"
     y="302.86115"
     font-style=""
     font-size="28"
     font-weight="normal"
     style="font-weight:normal;font-size:28px;text-anchor:middle;fill:#000000;stroke-width:0px">3</text>
  <text
     id="text23"
     x="193.46124"
     y="302.86115"
     font-style=""
     font-size="28"
     font-weight="normal"
     style="font-weight:normal;font-size:28px;text-anchor:middle;fill:#000000;stroke-width:0px">-1</text>
  <text
     id="text25"
     x="115.46124"
     y="302.86115"
     font-style=""
     font-size="28"
     font-weight="normal"
     style="font-weight:normal;font-size:28px;text-anchor:middle;fill:#000000;stroke-width:0px">-2</text>
  <text
     id="text27"
     x="37.461239"
     y="302.86115"
     font-style=""
     font-size="28"
     font-weight="normal"
     style="font-weight:normal;font-size:28px;text-anchor:middle;fill:#000000;stroke-width:0px">-3</text>
  <text
     id="text29"
     x="260.12723"
     y="68.194138"
     font-style=""
     font-size="28"
     font-weight="normal"
     style="font-weight:normal;font-size:28px;text-anchor:end;fill:#000000;stroke-width:0px">1</text>
  <text
     id="text31"
     x="260.12723"
     y="496.19412"
     font-style=""
     font-size="28"
     font-weight="normal"
     style="font-weight:normal;font-size:28px;text-anchor:end;fill:#000000;stroke-width:0px">-1</text>
  <text
     id="text33"
     x="271.46124"
     y="-9.752862"
     font-style="italic"
     font-size="28"
     font-weight="normal"
     style="font-style:italic;font-weight:normal;font-size:28px;text-anchor:middle;fill:#000000;stroke-width:0px" />
  <text
     id="text35"
     x="552.67426"
     y="282.19415"
     font-style="italic"
     font-size="28"
     font-weight="normal"
     style="font-style:italic;font-weight:normal;font-size:28px;text-anchor:start;fill:#000000;stroke-width:0px" />
  <path
     id="path37"
     d="m 23.420238,486.70314 0.78,0.071 0.78,0.05 0.78,0.029 0.78,0.007 0.78,-0.014 0.78,-0.035 0.78,-0.057 0.78,-0.079 0.78,-0.099 0.78,-0.121 0.78,-0.143 0.78,-0.163 0.78,-0.186 0.78,-0.206 0.78,-0.228 0.78,-0.249 0.78,-0.27 0.78,-0.291 0.78,-0.313 0.78,-0.333 0.78,-0.355 0.78,-0.376 0.78,-0.397 0.78,-0.418 0.78,-0.439 0.78,-0.46 0.78,-0.481 0.78,-0.501 0.78,-0.523 0.78,-0.543 0.78,-0.564 0.78,-0.584 0.78,-0.605 0.78,-0.625 0.78,-0.646 0.78,-0.667 0.78,-0.686 0.78,-0.707 0.78,-0.727 0.78,-0.747 0.78,-0.767 0.78,-0.787 0.78,-0.807 0.78,-0.826 0.78,-0.847 0.78,-0.866 0.78,-0.885 0.78,-0.905 0.78,-0.924 0.78,-0.944 0.78,-0.962 0.78,-0.982 0.78,-1.001 0.78,-1.019 0.78,-1.039 0.78,-1.057 0.78,-1.075 0.78,-1.094 0.78,-1.113 0.78,-1.13 0.78,-1.149 0.78,-1.166 0.78,-1.185 0.78,-1.202 0.78,-1.22 0.78,-1.238 0.78,-1.255 0.78,-1.272 0.78,-1.289 0.78,-1.306 0.78,-1.323 0.78,-1.34 0.78,-1.357 0.78,-1.373 0.78,-1.389 0.78,-1.406 0.78,-1.422 0.78,-1.437 0.78,-1.453 0.78,-1.469 0.78,-1.485 0.78,-1.5 0.78,-1.515 0.78,-1.53 0.78,-1.545 0.78,-1.559 0.78,-1.575 0.78,-1.588 0.78,-1.603 0.78,-1.617 0.78,-1.631 0.78,-1.645 0.78,-1.658 0.78,-1.672 0.78,-1.685 0.78,-1.698 0.78,-1.711 0.78,-1.724 0.780002,-1.737 0.78,-1.748 0.78,-1.762 0.78,-1.773 0.78,-1.785 0.78,-1.797 0.78,-1.808 0.78,-1.82 0.78,-1.83 0.78,-1.842 0.78,-1.853 0.78,-1.863 0.78,-1.874 0.78,-1.884 0.78,-1.894 0.78,-1.904 0.78,-1.913 0.78,-1.923 0.78,-1.932 0.78,-1.942 0.78,-1.95 0.78,-1.959 0.78,-1.968 0.78,-1.976 0.78,-1.984 0.78,-1.991 0.78,-2 0.78,-2.007 0.78,-2.015 0.78,-2.021 0.78,-2.029 0.78,-2.035 0.78,-2.042 0.78,-2.048 0.78,-2.054 0.78,-2.06 0.78,-2.066 0.78,-2.071 0.78,-2.076 0.78,-2.082 0.78,-2.086 0.78,-2.091 0.78,-2.096 0.78,-2.1 0.78,-2.104 0.78,-2.107 0.78,-2.111 0.78,-2.115 0.78,-2.118 0.78,-2.12 0.78,-2.124 0.78,-2.126 0.78,-2.128 0.78,-2.131 0.78,-2.132 0.78,-2.134 0.78,-2.136 0.78,-2.137 0.78,-2.138 0.78,-2.138 0.78,-2.14 0.78,-2.14 0.78,-2.14 0.78,-2.14 0.78,-2.139 0.78,-2.14 0.78,-2.138 0.78,-2.138 0.78,-2.137 0.78,-2.135 0.78,-2.134 0.78,-2.132 0.78,-2.13 0.78,-2.128 0.78,-2.126 0.78,-2.123 0.78,-2.12 0.78,-2.117 0.78,-2.114 0.78,-2.111 0.78,-2.107 0.78,-2.103 0.78,-2.099 0.78,-2.095 0.78,-2.091 0.78,-2.085 0.78,-2.081 0.78,-2.076 0.78,-2.07 0.78,-2.065 0.78,-2.059 0.78,-2.053 0.78,-2.047 0.78,-2.041 0.78,-2.034 0.78,-2.028 0.78,-2.02 0.78,-2.013 0.78,-2.006 0.78,-1.999 0.78,-1.99 0.78,-1.983 0.78,-1.975 0.78,-1.966 0.78,-1.957 0.78,-1.949 0.78,-1.94 0.78,-1.931 0.78,-1.922 0.78,-1.912 0.78,-1.902 0.78,-1.892 0.78,-1.883 0.78,-1.872 0.78,-1.861 0.78,-1.851 0.78,-1.84 0.78,-1.829 0.78,-1.818 0.78,-1.807 0.78,-1.795 0.78,-1.783 0.78,-1.771 0.78,-1.759 0.78,-1.747 0.78,-1.735 0.78,-1.722 0.78,-1.709 0.78,-1.696 0.78,-1.683 0.78,-1.669 0.78,-1.656 0.78,-1.643 0.78,-1.629 0.78,-1.615 0.78,-1.6 0.78,-1.587 0.78,-1.571 0.78,-1.558 0.78,-1.542 0.78,-1.528 0.78,-1.513 0.78,-1.497 0.78,-1.482 0.78,-1.467 0.78,-1.45 0.78,-1.435 0.78,-1.42 0.78,-1.403 0.78,-1.386 0.78,-1.371 0.78,-1.354 0.78,-1.337 0.78,-1.321 0.78,-1.303 0.78,-1.287 0.78,-1.269001 0.78,-1.252 0.78,-1.235 0.78,-1.217 0.78,-1.199 0.78,-1.182 0.78,-1.164 0.78,-1.146 0.78,-1.127 0.78,-1.11 0.78,-1.091 0.78,-1.073 0.78,-1.054 0.78,-1.035 0.78,-1.016 0.78,-0.998 0.78,-0.979 0.78,-0.959 0.78,-0.941 0.78,-0.921 0.78,-0.902 0.78,-0.882 0.78,-0.863 0.78,-0.843 0.78,-0.824 0.78,-0.804 0.78,-0.783 0.78,-0.764 0.78,-0.744 0.78,-0.724 0.78,-0.703 0.78,-0.684 0.78,-0.663 0.78,-0.642 0.78,-0.623 0.78,-0.601 0.78,-0.581 0.78,-0.561 0.78,-0.54 0.78,-0.519 0.78,-0.498 0.78,-0.477 0.78,-0.457 0.78,-0.436 0.78,-0.414 0.78,-0.394 0.78,-0.373 0.78,-0.351 0.78,-0.33 0.78,-0.31 0.78,-0.288 0.78,-0.266 0.78,-0.246 0.78,-0.224 0.78,-0.203 0.78,-0.182 0.78,-0.16 0.78,-0.139 0.78,-0.118 0.78,-0.096 0.78,-0.075 0.78,-0.054 0.78,-0.032 0.78,-0.01 0.78,0.01 0.78,0.032 0.78,0.054 0.78,0.075 0.78,0.096 0.78,0.118 0.78,0.139 0.78,0.16 0.78,0.182 0.78,0.203 0.78,0.224 0.78,0.245 0.78,0.267 0.78,0.288 0.78,0.309 0.78,0.331 0.78,0.351 0.78,0.373 0.78,0.393 0.78,0.415 0.78,0.436 0.78,0.456 0.78,0.478 0.78,0.498 0.78,0.519 0.78,0.54 0.78,0.56 0.78,0.581 0.78,0.602 0.78,0.622 0.78,0.643 0.78,0.663 0.78,0.683 0.78,0.704 0.78,0.723 0.78,0.744 0.78,0.764 0.78,0.784 0.78,0.804 0.78,0.823 0.78,0.843 0.78,0.863 0.78,0.883 0.78,0.901 0.78,0.921 0.78,0.941 0.78,0.96 0.78,0.978 0.78,0.998 0.78,1.016 0.78,1.036 0.78,1.054 0.78,1.072 0.78,1.091 0.78,1.11 0.78,1.127 0.78,1.146 0.78,1.164 0.78,1.182 0.78,1.199 0.78,1.217 0.78,1.235 0.78,1.252 0.78,1.270001 0.78,1.286 0.78,1.304 0.78,1.32 0.78,1.337 0.78,1.354 0.78,1.371 0.78,1.387 0.78,1.403 0.78,1.419 0.78,1.435 0.78,1.451 0.78,1.466 0.78,1.482 0.78,1.497 0.78,1.513 0.78,1.528 0.78,1.542 0.78,1.558 0.78,1.571 0.78,1.587 0.78,1.6 0.78,1.615 0.78,1.629 0.78,1.642 0.78,1.657 0.78,1.669 0.78,1.683 0.78,1.696 0.78,1.709 0.78,1.722 0.78,1.735 0.78,1.746 0.78,1.76 0.78,1.771 0.78,1.783 0.78,1.795 0.78,1.807 0.78,1.817 0.78,1.829 0.78,1.841 0.78,1.851 0.78,1.861 0.78,1.872 0.78,1.882 0.78,1.893 0.78,1.902 0.78,1.912 0.78,1.922 0.78,1.93 0.78,1.94 0.78,1.949 0.78,1.958 0.78,1.966 0.78,1.975 0.78,1.982 0.78,1.991 0.78,1.998 0.78,2.006 0.78,2.014 0.78,2.02 0.78,2.028 0.78,2.034 0.78,2.04 0.78,2.048 0.78,2.053 0.78,2.059 0.78,2.065 0.78,2.07 0.78,2.076 0.78,2.08 0.78,2.086 0.78,2.09 0.78,2.095 0.78,2.099 0.78,2.104 0.78,2.107 0.78,2.11 0.78,2.114 0.78,2.118 0.78,2.12 0.78,2.123 0.78,2.126 0.78,2.128 0.78,2.13 0.78,2.132 0.78,2.134 0.78,2.135 0.78,2.137 0.78,2.138 0.78,2.138 0.78,2.139 0.78,2.14 0.78,2.14 0.78,2.14 0.78,2.14 0.78,2.139 0.78,2.139 0.78,2.138 0.78,2.137 0.78,2.135 0.78,2.134 0.78,2.133 0.78,2.13 0.78,2.129 0.78,2.126 0.78,2.123 0.78,2.121 0.78,2.118 0.78,2.114 0.78,2.112 0.78,2.107 0.78,2.104 0.78,2.1 0.78,2.095 0.78,2.091 0.78,2.087 0.78,2.081 0.78,2.077 0.78,2.071 0.78,2.066 0.78,2.06 0.78,2.054 0.78,2.048 0.78,2.042 0.78,2.035 0.78,2.028 0.78,2.022 0.78,2.014 0.78,2.008 0.78,1.999 0.78,1.992 0.78,1.984 0.78,1.976 0.78,1.968 0.78,1.959 0.78,1.95 0.78,1.941 0.78,1.933 0.78,1.923 0.78,1.913 0.78,1.904 0.78,1.894 0.78,1.884 0.78,1.874 0.78,1.863 0.78,1.853 0.78,1.841 0.78,1.831 0.78,1.82 0.78,1.808 0.78,1.797 0.78,1.785 0.78,1.773 0.78,1.761 0.78,1.749 0.78,1.737 0.78,1.724 0.78,1.711 0.78,1.698 0.78,1.685 0.78,1.672 0.78,1.658 0.78,1.645 0.78,1.631 0.78,1.617 0.78,1.603 0.78,1.588 0.78,1.575 0.78,1.559 0.78,1.545 0.78,1.53 0.78,1.515 0.78,1.5 0.78,1.485 0.78,1.469 0.78,1.453 0.78,1.438 0.78,1.421 0.78,1.406 0.78,1.389 0.78,1.373 0.78,1.357 0.78,1.34 0.78,1.323 0.78,1.306 0.78,1.29 0.78,1.272 0.78,1.255 0.78,1.237 0.78,1.22 0.78,1.202 0.78,1.185 0.78,1.166 0.78,1.149 0.78,1.131 0.78,1.112 0.78,1.094 0.78,1.076 0.78,1.057 0.78,1.038 0.78,1.02 0.78,1 0.78,0.982 0.78,0.963 0.78,0.943 0.78,0.924 0.78,0.905 0.78,0.886 0.78,0.866 0.78,0.846 0.78,0.827 0.78,0.807 0.78,0.787 0.78,0.767 0.78,0.747 0.78,0.727 0.78,0.706 0.78,0.687 0.78,0.666 0.78,0.646 0.78,0.626 0.78,0.605 0.78,0.584 0.78,0.564 0.78,0.543 0.78,0.522 0.78,0.502 0.78,0.481 0.78,0.46 0.78,0.439 0.78,0.418 0.78,0.397 0.78,0.375 0.78,0.355 0.78,0.334 0.78,0.313 0.78,0.291 0.78,0.27 0.78,0.249 0.78,0.228 0.78,0.206 0.78,0.185 0.78,0.164 0.78,0.143 0.78,0.121 0.78,0.099 0.78,0.079 0.78,0.057 0.78,0.035 0.78,0.014 0.78,-0.007 0.78,-0.029 0.78,-0.05 0.78,-0.071"
     inkscape:connector-curvature="0"
     style="fill:none;stroke:#ff0000;stroke-width:5" />
</svg>
