<?xml version="1.0" encoding="UTF-8" standalone="no"?>
<svg
   xmlns:dc="http://purl.org/dc/elements/1.1/"
   xmlns:cc="http://creativecommons.org/ns#"
   xmlns:rdf="http://www.w3.org/1999/02/22-rdf-syntax-ns#"
   xmlns:svg="http://www.w3.org/2000/svg"
   xmlns="http://www.w3.org/2000/svg"
   xmlns:sodipodi="http://sodipodi.sourceforge.net/DTD/sodipodi-0.dtd"
   xmlns:inkscape="http://www.inkscape.org/namespaces/inkscape"
   id="preview"
   width="545.16229"
   height="545.16229"
   viewBox="0 0 545.16229 545.16229"
   xunitlength="47"
   yunitlength="47"
   xmin="-5"
   xmax="5"
   ymin="-5"
   ymax="5"
   ox="275"
   oy="275"
   version="1.1"
   sodipodi:docname="cosec(x).svg"
   inkscape:version="0.92.1 r15371">
  <metadata
     id="metadata72">
    <rdf:RDF>
      <cc:Work
         rdf:about="">
        <dc:format>image/svg+xml</dc:format>
        <dc:type
           rdf:resource="http://purl.org/dc/dcmitype/StillImage" />
      </cc:Work>
    </rdf:RDF>
  </metadata>
  <sodipodi:namedview
     pagecolor="#ffffff"
     bordercolor="#666666"
     borderopacity="1"
     objecttolerance="10"
     gridtolerance="10"
     guidetolerance="10"
     inkscape:pageopacity="0"
     inkscape:pageshadow="2"
     inkscape:window-width="640"
     inkscape:window-height="480"
     id="namedview70"
     showgrid="false"
     inkscape:zoom="0.39333333"
     inkscape:cx="253.08961"
     inkscape:cy="297.58114"
     inkscape:window-x="0"
     inkscape:window-y="0"
     inkscape:window-maximized="0"
     inkscape:current-layer="preview" />
  <defs
     id="defs6">
    <style
       type="text/css"
       id="style2">@import url(&quot;http://cdnjs.cloudflare.com/ajax/libs/KaTeX/0.2.0/katex.min.css&quot;)</style>
    <style
       type="text/css"
       id="style4"><![CDATA[text {font-family="KaTeX_Main,serif"}]]></style>
  </defs>
  <path
     d="m 23.181139,279.78114 -21.6000002,-7.2 21.6000002,-7.2 -3.6,7.2 z"
     id="path8"
     inkscape:connector-curvature="0"
     style="fill:#000000;stroke:#000000;stroke-width:1" />
  <path
     d="m 521.98114,265.38114 21.6,7.2 -21.6,7.2 3.6,-7.2 z"
     id="path10"
     inkscape:connector-curvature="0"
     style="fill:#000000;stroke:#000000;stroke-width:1" />
  <path
     d="m 265.38114,23.181139 7.2,-21.6000002 7.2,21.6000002 -7.2,-3.6 z"
     id="path12"
     inkscape:connector-curvature="0"
     style="fill:#000000;stroke:#000000;stroke-width:1" />
  <path
     d="m 279.78114,521.98114 -7.2,21.6 -7.2,-21.6 7.2,3.6 z"
     id="path14"
     inkscape:connector-curvature="0"
     style="fill:#000000;stroke:#000000;stroke-width:1" />
  <path
     d="M 19.581139,272.58114 H 525.58114 m -253,-253.000001 V 525.58114 m 0,-246 v -14 m 47,14 v -14 m 47,14 v -14 m 47,14 v -14 m 47,14 v -14 m 47,14 v -14 m -282,14 v -14 m -47,14 v -14 m -47,14 v -14 m -47.000001,14 v -14 m -47,14 v -14 m 242.000001,7 h -14 m 14,47 h -14 m 14,47 h -14 m 14,47 h -14 m 14,47 h -14 m 14,47 h -14 m 14,-282 h -14 m 14,-47 h -14 m 14,-47 h -14 m 14,-47.000001 h -14 m 14,-47 h -14"
     id="path16"
     inkscape:connector-curvature="0"
     style="fill:none;stroke:#000000;stroke-width:2" />
  <text
     id="null"
     x="319.58115"
     y="302.58115"
     font-style=""
     font-size="28"
     font-weight="normal"
     style="font-weight:normal;font-size:28px;text-anchor:middle;fill:#000000;stroke-width:0px">1</text>
  <text
     id="text19"
     x="366.58115"
     y="302.58115"
     font-style=""
     font-size="28"
     font-weight="normal"
     style="font-weight:normal;font-size:28px;text-anchor:middle;fill:#000000;stroke-width:0px">2</text>
  <text
     id="text21"
     x="413.58115"
     y="302.58115"
     font-style=""
     font-size="28"
     font-weight="normal"
     style="font-weight:normal;font-size:28px;text-anchor:middle;fill:#000000;stroke-width:0px">3</text>
  <text
     id="text23"
     x="460.58115"
     y="302.58115"
     font-style=""
     font-size="28"
     font-weight="normal"
     style="font-weight:normal;font-size:28px;text-anchor:middle;fill:#000000;stroke-width:0px">4</text>
  <text
     id="text25"
     x="507.58115"
     y="302.58115"
     font-style=""
     font-size="28"
     font-weight="normal"
     style="font-weight:normal;font-size:28px;text-anchor:middle;fill:#000000;stroke-width:0px">5</text>
  <text
     id="text27"
     x="225.58115"
     y="302.58115"
     font-style=""
     font-size="28"
     font-weight="normal"
     style="font-weight:normal;font-size:28px;text-anchor:middle;fill:#000000;stroke-width:0px">-1</text>
  <text
     id="text29"
     x="178.58115"
     y="302.58115"
     font-style=""
     font-size="28"
     font-weight="normal"
     style="font-weight:normal;font-size:28px;text-anchor:middle;fill:#000000;stroke-width:0px">-2</text>
  <text
     id="text31"
     x="131.58115"
     y="302.58115"
     font-style=""
     font-size="28"
     font-weight="normal"
     style="font-weight:normal;font-size:28px;text-anchor:middle;fill:#000000;stroke-width:0px">-3</text>
  <text
     id="text33"
     x="84.581139"
     y="302.58115"
     font-style=""
     font-size="28"
     font-weight="normal"
     style="font-weight:normal;font-size:28px;text-anchor:middle;fill:#000000;stroke-width:0px">-4</text>
  <text
     id="text35"
     x="37.581139"
     y="302.58115"
     font-style=""
     font-size="28"
     font-weight="normal"
     style="font-weight:normal;font-size:28px;text-anchor:middle;fill:#000000;stroke-width:0px">-5</text>
  <text
     id="text37"
     x="261.24713"
     y="234.91415"
     font-style=""
     font-size="28"
     font-weight="normal"
     style="font-weight:normal;font-size:28px;text-anchor:end;fill:#000000;stroke-width:0px">1</text>
  <text
     id="text39"
     x="261.24713"
     y="187.91414"
     font-style=""
     font-size="28"
     font-weight="normal"
     style="font-weight:normal;font-size:28px;text-anchor:end;fill:#000000;stroke-width:0px">2</text>
  <text
     id="text41"
     x="261.24713"
     y="140.91414"
     font-style=""
     font-size="28"
     font-weight="normal"
     style="font-weight:normal;font-size:28px;text-anchor:end;fill:#000000;stroke-width:0px">3</text>
  <text
     id="text43"
     x="261.24713"
     y="93.914131"
     font-style=""
     font-size="28"
     font-weight="normal"
     style="font-weight:normal;font-size:28px;text-anchor:end;fill:#000000;stroke-width:0px">4</text>
  <text
     id="text45"
     x="261.24713"
     y="46.914139"
     font-style=""
     font-size="28"
     font-weight="normal"
     style="font-weight:normal;font-size:28px;text-anchor:end;fill:#000000;stroke-width:0px">5</text>
  <text
     id="text47"
     x="261.24713"
     y="328.91415"
     font-style=""
     font-size="28"
     font-weight="normal"
     style="font-weight:normal;font-size:28px;text-anchor:end;fill:#000000;stroke-width:0px">-1</text>
  <text
     id="text49"
     x="261.24713"
     y="375.91415"
     font-style=""
     font-size="28"
     font-weight="normal"
     style="font-weight:normal;font-size:28px;text-anchor:end;fill:#000000;stroke-width:0px">-2</text>
  <text
     id="text51"
     x="261.24713"
     y="422.91415"
     font-style=""
     font-size="28"
     font-weight="normal"
     style="font-weight:normal;font-size:28px;text-anchor:end;fill:#000000;stroke-width:0px">-3</text>
  <text
     id="text53"
     x="261.24713"
     y="469.91415"
     font-style=""
     font-size="28"
     font-weight="normal"
     style="font-weight:normal;font-size:28px;text-anchor:end;fill:#000000;stroke-width:0px">-4</text>
  <text
     id="text55"
     x="261.24713"
     y="516.91412"
     font-style=""
     font-size="28"
     font-weight="normal"
     style="font-weight:normal;font-size:28px;text-anchor:end;fill:#000000;stroke-width:0px">-5</text>
  <text
     id="text57"
     x="272.58115"
     y="-9.752861"
     font-style="italic"
     font-size="28"
     font-weight="normal"
     style="font-style:italic;font-weight:normal;font-size:28px;text-anchor:middle;fill:#000000;stroke-width:0px" />
  <text
     id="text59"
     x="554.91412"
     y="281.91415"
     font-style="italic"
     font-size="28"
     font-weight="normal"
     style="font-style:italic;font-weight:normal;font-size:28px;text-anchor:start;fill:#000000;stroke-width:0px" />
  <path
     id="path61"
     d="m 23.481139,216.10814 0.783,0.613 0.783,0.584 0.783,0.557 0.784,0.53 0.783,0.506 0.783,0.482 0.784,0.459 0.783,0.437 0.783,0.415 0.784,0.394 0.783,0.374 0.783,0.355 0.784,0.337 0.783,0.317 0.783,0.301 0.784,0.282 0.783,0.267 0.783,0.249 0.784,0.234 0.783,0.218 0.783,0.203 0.784,0.188 0.783,0.173 0.783,0.158 0.784,0.144 0.783,0.131 0.783,0.116 0.784,0.103 0.783,0.089 0.783,0.076 0.784,0.062 0.783,0.049 0.783,0.036 0.784,0.023 0.783,0.01 0.783,-0.003 0.784,-0.016 0.783,-0.03 0.783,-0.042 0.784,-0.056 0.783,-0.069 0.783,-0.082 0.784,-0.096 0.783,-0.109 0.783,-0.123 0.784,-0.137 0.783,-0.151 0.783,-0.166 0.784,-0.18 0.783,-0.195 0.783,-0.21 0.784,-0.226 0.783,-0.241 0.783,-0.258 0.784,-0.274 0.783,-0.291 0.783,-0.309 0.784,-0.327 0.783,-0.345 0.783,-0.364 0.784,-0.384 0.783,-0.405 0.783,-0.425 0.784,-0.447 0.783,-0.47 0.783,-0.494 0.784,-0.518 0.783,-0.543 0.783,-0.57 0.784,-0.598 0.783,-0.626 0.783,-0.657 0.784,-0.689 0.783,-0.722 0.783,-0.756 0.784,-0.794 0.783,-0.832 0.783,-0.873 0.784,-0.916 0.783,-0.961 0.783,-1.009 0.784,-1.061 0.783,-1.114 0.783,-1.173 0.784,-1.233 0.783,-1.299 0.783,-1.369 0.784,-1.443 0.783,-1.524 0.783,-1.61 0.784,-1.702 0.783,-1.803 0.783,-1.91 0.784,-2.028 0.783,-2.155 0.783,-2.293 0.784,-2.444 0.783001,-2.61 0.783,-2.791 0.784,-2.991 0.783,-3.211 0.783,-3.456 0.784,-3.728 0.783,-4.032 0.783,-4.374 0.784,-4.758 0.783,-5.194 0.783,-5.69 0.784,-6.259 0.783,-6.915 0.783,-7.678 0.784,-8.572 0.783,-9.626001 0.783,-10.887 0.784,-12.406 0.783,-14.263 0.783,-16.567 0.784,-19.47 0.083,-2.472"
     inkscape:connector-curvature="0"
     style="fill:none;stroke:#ff0000;stroke-width:5" />
  <path
     id="path63"
     d="m 133.85414,521.68114 0.86,-21.778 0.783,-16.59 0.783,-14.283 0.784,-12.421 0.783,-10.899 0.783,-9.637 0.784,-8.581 0.783,-7.685 0.783,-6.922 0.784,-6.265 0.783,-5.695 0.783,-5.198 0.784,-4.762 0.783,-4.376 0.783,-4.035 0.784,-3.731 0.783,-3.459 0.783,-3.213 0.784,-2.993 0.783,-2.793 0.783,-2.611 0.784,-2.445 0.783,-2.295 0.783,-2.156 0.784,-2.029 0.783,-1.911 0.783,-1.804 0.784,-1.703 0.783,-1.611 0.783,-1.524 0.784,-1.445 0.783,-1.369 0.783,-1.299 0.784,-1.234 0.783,-1.173 0.783,-1.115 0.784,-1.061 0.783,-1.01 0.783,-0.962 0.784,-0.916 0.783,-0.873 0.783,-0.833 0.784,-0.794 0.783,-0.757 0.783,-0.722 0.784,-0.689 0.783,-0.657 0.783,-0.627 0.784,-0.598 0.783,-0.57 0.783,-0.543 0.784,-0.519 0.783,-0.493 0.783,-0.47 0.784,-0.448 0.783,-0.426 0.783,-0.404 0.784,-0.384 0.783,-0.365 0.783,-0.345 0.784,-0.327 0.783,-0.309 0.783,-0.291 0.784,-0.275 0.783,-0.257 0.783,-0.242 0.784,-0.226 0.783,-0.21 0.783,-0.195 0.784,-0.181 0.783,-0.165 0.783,-0.152 0.784,-0.137 0.783,-0.123 0.783,-0.109 0.784,-0.096 0.783,-0.083 0.783,-0.069 0.784,-0.055 0.783,-0.043 0.783,-0.029 0.784,-0.017 0.783,-0.003 0.783,0.01 0.784,0.022 0.783,0.036 0.783,0.05 0.784,0.062 0.783,0.075 0.783,0.089 0.784,0.103 0.783,0.116 0.783,0.13 0.784,0.145 0.783,0.158 0.783,0.173 0.784,0.187 0.783,0.203 0.783,0.218 0.784,0.234 0.783,0.249 0.783,0.266 0.784,0.283 0.783,0.3 0.783,0.317 0.784,0.336 0.783,0.355 0.783,0.374 0.784,0.395 0.783,0.414 0.783,0.437 0.784,0.458 0.783,0.482 0.783,0.506 0.784,0.53 0.783,0.557 0.783,0.584 0.784,0.612 0.783,0.642 0.783,0.672 0.784,0.706 0.783,0.739 0.783,0.775 0.784,0.812 0.783,0.853 0.783,0.894 0.784,0.939 0.783,0.985 0.783,1.035 0.784,1.087 0.783,1.143 0.783,1.203 0.784,1.266 0.783,1.333 0.783,1.406 0.784,1.483 0.783,1.566 0.783,1.656 0.784,1.752 0.783,1.856 0.783,1.968 0.784,2.091 0.783,2.223 0.783,2.368 0.784,2.525 0.783,2.699 0.783,2.89 0.784,3.099 0.783,3.331 0.783,3.59 0.784,3.877 0.783,4.199 0.783,4.562 0.784,4.971 0.783,5.436 0.783,5.967 0.784,6.578 0.783,7.285 0.783,8.111 0.784,9.08 0.783,10.234 0.783,11.615 0.784,13.295 0.783,15.361 0.783,17.944 0.463,12.532"
     inkscape:connector-curvature="0"
     style="fill:none;stroke:#ff0000;stroke-width:5" />
  <path
     id="path65"
     d="m 281.51814,23.480139 1.246,30.465 0.783,15.363 0.783,13.296 0.784,11.617 0.783,10.234001 0.783,9.081 0.784,8.111 0.783,7.286 0.783,6.578 0.784,5.968 0.783,5.436 0.783,4.971 0.784,4.562 0.783,4.199 0.783,3.878 0.784,3.589 0.783,3.332 0.783,3.099 0.784,2.89 0.783,2.699 0.783,2.526 0.784,2.368 0.783,2.223 0.783,2.09 0.784,1.969 0.783,1.856 0.783,1.752 0.784,1.656 0.783,1.566 0.783,1.483 0.784,1.406 0.783,1.334 0.783,1.266 0.784,1.202 0.783,1.143 0.783,1.088 0.784,1.035 0.783,0.985 0.783,0.938 0.784,0.895 0.783,0.852 0.783,0.813 0.784,0.775 0.783,0.739 0.783,0.705 0.784,0.673 0.783,0.642 0.783,0.612 0.784,0.583 0.783,0.557 0.783,0.531 0.784,0.506 0.783,0.481 0.783,0.459 0.784,0.436 0.783,0.415 0.783,0.394 0.784,0.375 0.783,0.354 0.783,0.336 0.784,0.318 0.783,0.3 0.783,0.283 0.784,0.266 0.783,0.249 0.783,0.234 0.784,0.218 0.783,0.202 0.783,0.188 0.784,0.173 0.783,0.158 0.783,0.144 0.784,0.131 0.783,0.116 0.783,0.102 0.784,0.09 0.783,0.075 0.783,0.062 0.784,0.05 0.783,0.035 0.783,0.023 0.784,0.01 0.783,-0.003 0.783,-0.017 0.784,-0.029 0.783,-0.043 0.783,-0.055 0.784,-0.069 0.783,-0.083 0.783,-0.096 0.784,-0.109 0.783,-0.123 0.783,-0.137 0.784,-0.152 0.783,-0.165 0.783,-0.181 0.783,-0.195 0.784,-0.21 0.783,-0.226 0.783,-0.241 0.784,-0.258 0.783,-0.274 0.783,-0.292 0.784,-0.309 0.783,-0.327 0.783,-0.345 0.784,-0.364 0.783,-0.385 0.783,-0.404 0.784,-0.426 0.783,-0.447 0.783,-0.47 0.784,-0.494 0.783,-0.518 0.783,-0.544 0.784,-0.57 0.783,-0.598 0.783,-0.627 0.784,-0.657 0.783,-0.689 0.783,-0.722 0.784,-0.757 0.783,-0.794 0.783,-0.832 0.784,-0.873 0.783,-0.917 0.783,-0.961 0.784,-1.01 0.783,-1.061 0.783,-1.115 0.784,-1.173 0.783,-1.234 0.783,-1.299 0.784,-1.37 0.783,-1.444 0.783,-1.524 0.784,-1.611 0.783,-1.703 0.783,-1.803 0.784,-1.912 0.783,-2.029 0.783,-2.156 0.784,-2.294 0.783,-2.446 0.783,-2.611 0.784,-2.792 0.783,-2.993 0.783,-3.213 0.784,-3.458 0.783,-3.731 0.783,-4.035 0.784,-4.377 0.783,-4.761 0.783,-5.198 0.784,-5.694 0.783,-6.265 0.783,-6.921 0.784,-7.685 0.783,-8.58 0.783,-9.636001 0.784,-10.898 0.783,-12.421 0.783,-14.281 0.784,-16.588 0.783,-19.498 0.077,-2.292"
     inkscape:connector-curvature="0"
     style="fill:none;stroke:#ff0000;stroke-width:5" />
  <path
     id="path67"
     d="m 429.16414,521.68114 0.866,-21.93 0.783,-16.569 0.784,-14.265 0.783,-12.407 0.783,-10.887 0.784,-9.628 0.783,-8.571 0.783,-7.679 0.784,-6.916 0.783,-6.259 0.783,-5.691 0.784,-5.194 0.783,-4.758 0.783,-4.374 0.784,-4.032 0.783,-3.729 0.783,-3.456 0.784,-3.212 0.783,-2.99 0.783,-2.792 0.784,-2.609 0.783,-2.445 0.783,-2.293 0.784,-2.155 0.783,-2.028 0.783,-1.91 0.784,-1.803 0.783,-1.702 0.783,-1.61 0.784,-1.524 0.783,-1.444 0.783,-1.368 0.784,-1.299 0.783,-1.234 0.783,-1.172 0.784,-1.114 0.783,-1.061 0.783,-1.009 0.784,-0.962 0.783,-0.916 0.783,-0.872 0.784,-0.833 0.783,-0.793 0.783,-0.757 0.784,-0.722 0.783,-0.688 0.783,-0.657 0.784,-0.627 0.783,-0.598 0.783,-0.57 0.784,-0.543 0.783,-0.518 0.783,-0.493 0.784,-0.47 0.783,-0.448 0.783,-0.425 0.784,-0.405 0.783,-0.384 0.783,-0.364 0.784,-0.345 0.783,-0.327 0.783,-0.308 0.784,-0.292 0.783,-0.274 0.783,-0.258 0.784,-0.241 0.783,-0.226 0.783,-0.21 0.784,-0.195 0.783,-0.18 0.783,-0.166 0.784,-0.151 0.783,-0.137 0.783,-0.123 0.784,-0.109 0.783,-0.096 0.783,-0.082 0.784,-0.069 0.783,-0.056 0.783,-0.042 0.784,-0.03 0.783,-0.016 0.783,-0.003 0.784,0.01 0.783,0.023 0.783,0.036 0.784,0.049 0.783,0.062 0.783,0.076 0.784,0.089 0.783,0.103 0.783,0.116 0.784,0.131 0.783,0.144 0.783,0.158 0.784,0.173 0.783,0.188 0.783,0.203 0.784,0.218 0.783,0.234 0.783,0.249 0.784,0.266 0.783,0.283 0.783,0.3 0.784,0.318 0.783,0.336 0.783,0.355 0.784,0.375 0.783,0.394 0.783,0.415 0.784,0.437 0.783,0.458 0.783,0.482 0.784,0.506 0.783,0.531 0.783,0.557 0.784,0.584 0.783,0.612"
     inkscape:connector-curvature="0"
     style="fill:none;stroke:#ff0000;stroke-width:5" />
</svg>
