<?xml version="1.0" encoding="UTF-8" standalone="no"?>
<svg
   xmlns:dc="http://purl.org/dc/elements/1.1/"
   xmlns:cc="http://creativecommons.org/ns#"
   xmlns:rdf="http://www.w3.org/1999/02/22-rdf-syntax-ns#"
   xmlns:svg="http://www.w3.org/2000/svg"
   xmlns="http://www.w3.org/2000/svg"
   xmlns:sodipodi="http://sodipodi.sourceforge.net/DTD/sodipodi-0.dtd"
   xmlns:inkscape="http://www.inkscape.org/namespaces/inkscape"
   id="preview"
   width="547.40118"
   height="547.40222"
   viewBox="0 0 547.40118 547.40222"
   xunitlength="118"
   yunitlength="118"
   xmin="-2"
   xmax="2"
   ymin="-2"
   ymax="2"
   ox="276"
   oy="276"
   version="1.1"
   sodipodi:docname="e^x.svg"
   inkscape:version="0.92.1 r15371">
  <metadata
     id="metadata42">
    <rdf:RDF>
      <cc:Work
         rdf:about="">
        <dc:format>image/svg+xml</dc:format>
        <dc:type
           rdf:resource="http://purl.org/dc/dcmitype/StillImage" />
      </cc:Work>
    </rdf:RDF>
  </metadata>
  <sodipodi:namedview
     pagecolor="#ffffff"
     bordercolor="#666666"
     borderopacity="1"
     objecttolerance="10"
     gridtolerance="10"
     guidetolerance="10"
     inkscape:pageopacity="0"
     inkscape:pageshadow="2"
     inkscape:window-width="640"
     inkscape:window-height="480"
     id="namedview40"
     showgrid="false"
     inkscape:zoom="0.39202658"
     inkscape:cx="254.06131"
     inkscape:cy="298.70007"
     inkscape:window-x="0"
     inkscape:window-y="0"
     inkscape:window-maximized="0"
     inkscape:current-layer="preview" />
  <defs
     id="defs6">
    <style
       type="text/css"
       id="style2">@import url(&quot;http://cdnjs.cloudflare.com/ajax/libs/KaTeX/0.2.0/katex.min.css&quot;)</style>
    <style
       type="text/css"
       id="style4"><![CDATA[text {font-family="KaTeX_Main,serif"}]]></style>
  </defs>
  <path
     d="m 23.253139,280.92614 -21.6720002,-7.224 21.6720002,-7.224 -3.612,7.224 z"
     id="path8"
     inkscape:connector-curvature="0"
     style="fill:#000000;stroke:#000000;stroke-width:1" />
  <path
     d="m 524.14914,266.47814 21.671,7.224 -21.671,7.224 3.612,-7.224 z"
     id="path10"
     inkscape:connector-curvature="0"
     style="fill:#000000;stroke:#000000;stroke-width:1" />
  <path
     d="m 266.47714,23.253139 7.224,-21.6720002 7.224,21.6720002 -7.224,-3.611 z"
     id="path12"
     inkscape:connector-curvature="0"
     style="fill:#000000;stroke:#000000;stroke-width:1" />
  <path
     d="m 280.92514,524.15014 -7.224,21.671 -7.224,-21.671 7.224,3.612 z"
     id="path14"
     inkscape:connector-curvature="0"
     style="fill:#000000;stroke:#000000;stroke-width:1" />
  <path
     d="M 19.641139,273.70214 H 527.76114 M 273.70114,19.642139 V 527.76214 m 0,-247.06 v -14 m 118,14 v -14 m 118,14 v -14 m -354,14 v -14 m -118.000001,14 v -14 m 243.000001,7 h -14 m 14,118 h -14 m 14,118 h -14 m 14,-354 h -14 m 14,-118.000001 h -14"
     id="path16"
     inkscape:connector-curvature="0"
     style="fill:none;stroke:#000000;stroke-width:2" />
  <text
     id="null"
     x="391.70114"
     y="303.70215"
     font-style=""
     font-size="28"
     font-weight="normal"
     style="font-weight:normal;font-size:28px;text-anchor:middle;fill:#000000;stroke-width:0px">1</text>
  <text
     id="text19"
     x="509.70114"
     y="303.70215"
     font-style=""
     font-size="28"
     font-weight="normal"
     style="font-weight:normal;font-size:28px;text-anchor:middle;fill:#000000;stroke-width:0px">2</text>
  <text
     id="text21"
     x="155.70114"
     y="303.70215"
     font-style=""
     font-size="28"
     font-weight="normal"
     style="font-weight:normal;font-size:28px;text-anchor:middle;fill:#000000;stroke-width:0px">-1</text>
  <text
     id="text23"
     x="37.701138"
     y="303.70215"
     font-style=""
     font-size="28"
     font-weight="normal"
     style="font-weight:normal;font-size:28px;text-anchor:middle;fill:#000000;stroke-width:0px">-2</text>
  <text
     id="text25"
     x="262.36713"
     y="165.03513"
     font-style=""
     font-size="28"
     font-weight="normal"
     style="font-weight:normal;font-size:28px;text-anchor:end;fill:#000000;stroke-width:0px">1</text>
  <text
     id="text27"
     x="262.36713"
     y="47.035137"
     font-style=""
     font-size="28"
     font-weight="normal"
     style="font-weight:normal;font-size:28px;text-anchor:end;fill:#000000;stroke-width:0px">2</text>
  <text
     id="text29"
     x="262.36713"
     y="401.03516"
     font-style=""
     font-size="28"
     font-weight="normal"
     style="font-weight:normal;font-size:28px;text-anchor:end;fill:#000000;stroke-width:0px">-1</text>
  <text
     id="text31"
     x="262.36713"
     y="519.03516"
     font-style=""
     font-size="28"
     font-weight="normal"
     style="font-weight:normal;font-size:28px;text-anchor:end;fill:#000000;stroke-width:0px">-2</text>
  <text
     id="text33"
     x="273.70114"
     y="-9.7518597"
     font-style="italic"
     font-size="28"
     font-weight="normal"
     style="font-style:italic;font-weight:normal;font-size:28px;text-anchor:middle;fill:#000000;stroke-width:0px" />
  <text
     id="text35"
     x="557.15411"
     y="283.03516"
     font-style="italic"
     font-size="28"
     font-weight="normal"
     style="font-style:italic;font-weight:normal;font-size:28px;text-anchor:start;fill:#000000;stroke-width:0px" />
  <path
     id="path37"
     d="m 23.540139,259.53814 0.787,-0.095 0.787,-0.095 0.786,-0.096 0.787,-0.097 0.787,-0.097 0.786,-0.098 0.787,-0.099 0.787,-0.099 0.786,-0.1 0.787,-0.101 0.787,-0.101 0.786,-0.102 0.787,-0.103 0.787,-0.103 0.786,-0.104 0.787,-0.105 0.787,-0.105 0.786,-0.106 0.787,-0.107 0.787,-0.107 0.786,-0.109 0.787,-0.109 0.787,-0.109 0.786,-0.111 0.787,-0.111 0.787,-0.112 0.786,-0.113 0.787,-0.113 0.787,-0.114 0.786,-0.115 0.787,-0.116 0.787,-0.116 0.786,-0.118 0.787,-0.118 0.787,-0.118 0.786,-0.12 0.787,-0.121 0.787,-0.121 0.786,-0.122 0.787,-0.123 0.787,-0.123 0.786,-0.125 0.787,-0.125 0.787,-0.126 0.786,-0.128 0.787,-0.127 0.787,-0.129 0.786,-0.13 0.787,-0.13 0.787,-0.132 0.786,-0.132 0.787,-0.133 0.787,-0.134 0.786,-0.135 0.787,-0.136 0.787,-0.136 0.786,-0.138 0.787,-0.138 0.787,-0.14 0.786,-0.14 0.787,-0.142 0.787,-0.142 0.786,-0.143 0.787,-0.144 0.787,-0.145 0.786,-0.147 0.787,-0.147 0.787,-0.148 0.786,-0.149 0.787,-0.15 0.787,-0.151 0.786,-0.152 0.787,-0.153 0.787,-0.154 0.786,-0.156 0.787,-0.156 0.787,-0.157 0.786,-0.158 0.787,-0.16 0.787,-0.16 0.786,-0.162 0.787,-0.162 0.787,-0.164 0.786,-0.165 0.787,-0.165 0.787,-0.167 0.786,-0.168 0.787,-0.17 0.787,-0.17 0.786,-0.171 0.787,-0.173 0.787,-0.174 0.786,-0.175 0.787,-0.176 0.787,-0.177 0.786,-0.179 0.787,-0.179 0.787001,-0.181 0.786,-0.182 0.787,-0.184 0.787,-0.184 0.786,-0.186 0.787,-0.187 0.787,-0.188 0.786,-0.19 0.787,-0.191 0.787,-0.192 0.786,-0.193 0.787,-0.195 0.787,-0.195 0.786,-0.198 0.787,-0.198 0.787,-0.2 0.786,-0.201 0.787,-0.203 0.787,-0.204 0.786,-0.205 0.787,-0.207 0.787,-0.208 0.786,-0.209 0.787,-0.211 0.787,-0.213 0.786,-0.213 0.787,-0.215 0.787,-0.217 0.786,-0.218 0.787,-0.219 0.787,-0.221 0.786,-0.223 0.787,-0.224 0.787,-0.225 0.786,-0.227 0.787,-0.228 0.787,-0.23 0.786,-0.232 0.787,-0.233 0.787,-0.234 0.786,-0.236 0.787,-0.238 0.787,-0.239 0.786,-0.241 0.787,-0.243 0.787,-0.244 0.786,-0.246 0.787,-0.247 0.787,-0.249 0.786,-0.251 0.787,-0.253 0.787,-0.254 0.786,-0.255 0.787,-0.258 0.787,-0.259 0.786,-0.261 0.787,-0.263 0.787,-0.264 0.786,-0.267 0.787,-0.268 0.787,-0.27 0.786,-0.271 0.787,-0.274 0.787,-0.275 0.786,-0.277 0.787,-0.279 0.787,-0.281 0.786,-0.283 0.787,-0.284 0.787,-0.287 0.786,-0.288 0.787,-0.291 0.787,-0.292 0.786,-0.294 0.787,-0.296 0.787,-0.299 0.786,-0.3 0.787,-0.302 0.787,-0.304 0.786,-0.307 0.787,-0.308 0.787,-0.31 0.786,-0.313 0.787,-0.314 0.787,-0.317 0.786,-0.319 0.787,-0.321 0.787,-0.323 0.786,-0.325 0.787,-0.327 0.787,-0.33 0.786,-0.332 0.787,-0.334 0.787,-0.336 0.786,-0.338 0.787,-0.341 0.787,-0.343 0.786,-0.345 0.787,-0.348 0.787,-0.35 0.786,-0.352 0.787,-0.355 0.787,-0.357 0.786,-0.359 0.787,-0.362 0.787,-0.364 0.786,-0.367 0.787,-0.369 0.787,-0.372 0.786,-0.374 0.787,-0.376 0.787,-0.38 0.786,-0.381 0.787,-0.384 0.787,-0.387 0.786,-0.389 0.787,-0.392 0.787,-0.395 0.786,-0.397 0.787,-0.4 0.787,-0.403 0.786,-0.405 0.787,-0.408 0.787,-0.41 0.786,-0.414 0.787,-0.416 0.787,-0.419 0.786,-0.422 0.787,-0.424 0.787,-0.428 0.786,-0.43 0.787,-0.433 0.787,-0.436 0.786,-0.439 0.787,-0.442 0.787,-0.445 0.786,-0.448 0.787,-0.451 0.787,-0.454 0.786,-0.457 0.787,-0.46 0.787,-0.463 0.786,-0.466 0.787,-0.469 0.787,-0.472 0.786,-0.476 0.787,-0.479 0.787,-0.482 0.786,-0.485 0.787,-0.488 0.787,-0.492 0.786,-0.495 0.787,-0.498 0.787,-0.502 0.786,-0.505 0.787,-0.508 0.787,-0.512 0.786,-0.515 0.787,-0.518 0.787,-0.523 0.786,-0.525 0.787,-0.529 0.787,-0.533 0.786,-0.536 0.787,-0.54 0.787,-0.543 0.786,-0.547 0.787,-0.551 0.787,-0.554 0.786,-0.558 0.787,-0.562 0.787,-0.566 0.786,-0.569 0.787,-0.573 0.787,-0.577 0.786,-0.581 0.787,-0.585 0.787,-0.588 0.786,-0.593 0.787,-0.596 0.787,-0.601 0.786,-0.604 0.787,-0.609 0.787,-0.613 0.786,-0.616 0.787,-0.621 0.787,-0.625 0.786,-0.63 0.787,-0.633 0.787,-0.638 0.786,-0.642 0.787,-0.646 0.787,-0.65 0.786,-0.655 0.787,-0.659 0.787,-0.664 0.786,-0.668 0.787,-0.673 0.787,-0.677 0.786,-0.682 0.787,-0.686 0.787,-0.691 0.786,-0.695 0.787,-0.7 0.787,-0.705 0.786,-0.709 0.787,-0.714 0.787,-0.719 0.786,-0.724 0.787,-0.729 0.787,-0.733 0.786,-0.738 0.787,-0.744 0.787,-0.748 0.786,-0.753 0.787,-0.759 0.787,-0.763 0.786,-0.769 0.787,-0.773 0.787,-0.779 0.786,-0.784 0.787,-0.79 0.787,-0.794 0.786,-0.8 0.787,-0.805 0.787,-0.811 0.786,-0.816 0.787,-0.821 0.787,-0.827 0.786,-0.833 0.787,-0.838 0.787,-0.844 0.786,-0.849 0.787,-0.855 0.787,-0.861 0.786,-0.866 0.787,-0.873 0.787,-0.878 0.786,-0.884 0.787,-0.89 0.787,-0.896 0.786,-0.902 0.787,-0.907 0.787,-0.914 0.786,-0.92 0.787,-0.927 0.787,-0.932 0.786,-0.939 0.787,-0.945 0.787,-0.951 0.786,-0.958 0.787,-0.964 0.787,-0.97 0.786,-0.977 0.787,-0.984 0.787,-0.99 0.786,-0.997 0.787,-1.003 0.787,-1.01 0.786,-1.017 0.787,-1.024 0.787,-1.03 0.786,-1.037 0.787,-1.045 0.787,-1.051 0.786,-1.058 0.787,-1.066 0.787,-1.072 0.786,-1.08 0.787,-1.087 0.787,-1.094 0.786,-1.102 0.787,-1.109 0.787,-1.116 0.786,-1.124 0.787,-1.131 0.787,-1.139 0.786,-1.147 0.787,-1.154001 0.787,-1.162 0.786,-1.169 0.787,-1.178 0.787,-1.185 0.786,-1.194 0.787,-1.201 0.787,-1.209 0.786,-1.217 0.787,-1.226 0.787,-1.234 0.786,-1.242 0.787,-1.25 0.787,-1.259 0.786,-1.267 0.787,-1.275 0.787,-1.284 0.786,-1.293 0.787,-1.301 0.787,-1.31 0.786,-1.319 0.787,-1.328 0.787,-1.336 0.786,-1.346 0.787,-1.354 0.787,-1.364 0.786,-1.372 0.787,-1.382 0.787,-1.391 0.786,-1.4 0.787,-1.41 0.787,-1.419 0.786,-1.429 0.787,-1.438 0.787,-1.448 0.786,-1.457 0.787,-1.468 0.787,-1.477 0.786,-1.487 0.787,-1.497 0.787,-1.506 0.786,-1.517 0.787,-1.527 0.787,-1.538 0.786,-1.547 0.787,-1.558 0.787,-1.569 0.786,-1.579 0.787,-1.589 0.786,-1.6 0.787,-1.611 0.787,-1.621 0.786,-1.633 0.787,-1.643 0.787,-1.654 0.56,-1.187"
     inkscape:connector-curvature="0"
     style="fill:none;stroke:#ff0000;stroke-width:5" />
</svg>
