<?xml version="1.0" encoding="UTF-8" standalone="no"?>
<svg
   xmlns:dc="http://purl.org/dc/elements/1.1/"
   xmlns:cc="http://creativecommons.org/ns#"
   xmlns:rdf="http://www.w3.org/1999/02/22-rdf-syntax-ns#"
   xmlns:svg="http://www.w3.org/2000/svg"
   xmlns="http://www.w3.org/2000/svg"
   xmlns:sodipodi="http://sodipodi.sourceforge.net/DTD/sodipodi-0.dtd"
   xmlns:inkscape="http://www.inkscape.org/namespaces/inkscape"
   id="preview"
   width="547.40118"
   height="547.40222"
   viewBox="0 0 547.40118 547.40222"
   xunitlength="59"
   yunitlength="59"
   xmin="-4"
   xmax="4"
   ymin="-4"
   ymax="4"
   ox="276"
   oy="276"
   version="1.1"
   sodipodi:docname="floor(x).svg"
   inkscape:version="0.92.1 r15371">
  <metadata
     id="metadata72">
    <rdf:RDF>
      <cc:Work
         rdf:about="">
        <dc:format>image/svg+xml</dc:format>
        <dc:type
           rdf:resource="http://purl.org/dc/dcmitype/StillImage" />
      </cc:Work>
    </rdf:RDF>
  </metadata>
  <sodipodi:namedview
     pagecolor="#ffffff"
     bordercolor="#666666"
     borderopacity="1"
     objecttolerance="10"
     gridtolerance="10"
     guidetolerance="10"
     inkscape:pageopacity="0"
     inkscape:pageshadow="2"
     inkscape:window-width="640"
     inkscape:window-height="480"
     id="namedview70"
     showgrid="false"
     inkscape:zoom="0.39202658"
     inkscape:cx="254.06131"
     inkscape:cy="298.70007"
     inkscape:window-x="0"
     inkscape:window-y="0"
     inkscape:window-maximized="0"
     inkscape:current-layer="preview" />
  <defs
     id="defs6">
    <style
       type="text/css"
       id="style2">@import url(&quot;http://cdnjs.cloudflare.com/ajax/libs/KaTeX/0.2.0/katex.min.css&quot;)</style>
    <style
       type="text/css"
       id="style4"><![CDATA[text {font-family="KaTeX_Main,serif"}]]></style>
  </defs>
  <path
     d="m 23.253139,280.92614 -21.6720002,-7.224 21.6720002,-7.224 -3.612,7.224 z"
     id="path8"
     inkscape:connector-curvature="0"
     style="fill:#000000;stroke:#000000;stroke-width:1" />
  <path
     d="m 524.14914,266.47814 21.671,7.224 -21.671,7.224 3.612,-7.224 z"
     id="path10"
     inkscape:connector-curvature="0"
     style="fill:#000000;stroke:#000000;stroke-width:1" />
  <path
     d="m 266.47714,23.253139 7.224,-21.6720002 7.224,21.6720002 -7.224,-3.611 z"
     id="path12"
     inkscape:connector-curvature="0"
     style="fill:#000000;stroke:#000000;stroke-width:1" />
  <path
     d="m 280.92514,524.15014 -7.224,21.671 -7.224,-21.671 7.224,3.612 z"
     id="path14"
     inkscape:connector-curvature="0"
     style="fill:#000000;stroke:#000000;stroke-width:1" />
  <path
     d="M 19.641139,273.70214 H 527.76114 M 273.70114,19.642139 V 527.76214 m 0,-247.06 v -14 m 59,14 v -14 m 59,14 v -14 m 59,14 v -14 m 59,14 v -14 m -295,14 v -14 m -59,14 v -14 m -59.000001,14 v -14 m -59,14 v -14 m 243.000001,7 h -14 m 14,59 h -14 m 14,59 h -14 m 14,59 h -14 m 14,59 h -14 m 14,-295 h -14 m 14,-59 h -14 m 14,-59.000001 h -14 m 14,-59 h -14"
     id="path16"
     inkscape:connector-curvature="0"
     style="fill:none;stroke:#000000;stroke-width:2" />
  <text
     id="null"
     x="332.70114"
     y="303.70215"
     font-style=""
     font-size="28"
     font-weight="normal"
     style="font-weight:normal;font-size:28px;text-anchor:middle;fill:#000000;stroke-width:0px">1</text>
  <text
     id="text19"
     x="391.70114"
     y="303.70215"
     font-style=""
     font-size="28"
     font-weight="normal"
     style="font-weight:normal;font-size:28px;text-anchor:middle;fill:#000000;stroke-width:0px">2</text>
  <text
     id="text21"
     x="450.70114"
     y="303.70215"
     font-style=""
     font-size="28"
     font-weight="normal"
     style="font-weight:normal;font-size:28px;text-anchor:middle;fill:#000000;stroke-width:0px">3</text>
  <text
     id="text23"
     x="509.70114"
     y="303.70215"
     font-style=""
     font-size="28"
     font-weight="normal"
     style="font-weight:normal;font-size:28px;text-anchor:middle;fill:#000000;stroke-width:0px">4</text>
  <text
     id="text25"
     x="214.70114"
     y="303.70215"
     font-style=""
     font-size="28"
     font-weight="normal"
     style="font-weight:normal;font-size:28px;text-anchor:middle;fill:#000000;stroke-width:0px">-1</text>
  <text
     id="text27"
     x="155.70114"
     y="303.70215"
     font-style=""
     font-size="28"
     font-weight="normal"
     style="font-weight:normal;font-size:28px;text-anchor:middle;fill:#000000;stroke-width:0px">-2</text>
  <text
     id="text29"
     x="96.701141"
     y="303.70215"
     font-style=""
     font-size="28"
     font-weight="normal"
     style="font-weight:normal;font-size:28px;text-anchor:middle;fill:#000000;stroke-width:0px">-3</text>
  <text
     id="text31"
     x="37.701138"
     y="303.70215"
     font-style=""
     font-size="28"
     font-weight="normal"
     style="font-weight:normal;font-size:28px;text-anchor:middle;fill:#000000;stroke-width:0px">-4</text>
  <text
     id="text33"
     x="262.36713"
     y="224.03514"
     font-style=""
     font-size="28"
     font-weight="normal"
     style="font-weight:normal;font-size:28px;text-anchor:end;fill:#000000;stroke-width:0px">1</text>
  <text
     id="text35"
     x="262.36713"
     y="165.03513"
     font-style=""
     font-size="28"
     font-weight="normal"
     style="font-weight:normal;font-size:28px;text-anchor:end;fill:#000000;stroke-width:0px">2</text>
  <text
     id="text37"
     x="262.36713"
     y="106.03513"
     font-style=""
     font-size="28"
     font-weight="normal"
     style="font-weight:normal;font-size:28px;text-anchor:end;fill:#000000;stroke-width:0px">3</text>
  <text
     id="text39"
     x="262.36713"
     y="47.035137"
     font-style=""
     font-size="28"
     font-weight="normal"
     style="font-weight:normal;font-size:28px;text-anchor:end;fill:#000000;stroke-width:0px">4</text>
  <text
     id="text41"
     x="262.36713"
     y="342.03516"
     font-style=""
     font-size="28"
     font-weight="normal"
     style="font-weight:normal;font-size:28px;text-anchor:end;fill:#000000;stroke-width:0px">-1</text>
  <text
     id="text43"
     x="262.36713"
     y="401.03516"
     font-style=""
     font-size="28"
     font-weight="normal"
     style="font-weight:normal;font-size:28px;text-anchor:end;fill:#000000;stroke-width:0px">-2</text>
  <text
     id="text45"
     x="262.36713"
     y="460.03516"
     font-style=""
     font-size="28"
     font-weight="normal"
     style="font-weight:normal;font-size:28px;text-anchor:end;fill:#000000;stroke-width:0px">-3</text>
  <text
     id="text47"
     x="262.36713"
     y="519.03516"
     font-style=""
     font-size="28"
     font-weight="normal"
     style="font-weight:normal;font-size:28px;text-anchor:end;fill:#000000;stroke-width:0px">-4</text>
  <text
     id="text49"
     x="273.70114"
     y="-9.7518597"
     font-style="italic"
     font-size="28"
     font-weight="normal"
     style="font-style:italic;font-weight:normal;font-size:28px;text-anchor:middle;fill:#000000;stroke-width:0px" />
  <text
     id="text51"
     x="557.15411"
     y="283.03516"
     font-style="italic"
     font-size="28"
     font-weight="normal"
     style="font-style:italic;font-weight:normal;font-size:28px;text-anchor:start;fill:#000000;stroke-width:0px" />
  <path
     id="path53"
     d="m 273.70114,273.70214 h 0.098 0.098 0.098 0.099 0.098 0.098 0.099 0.098 0.098 0.099 0.098 0.098 0.099 0.098 0.098 0.099 0.098 0.098 0.099 0.098 0.098 0.099 0.098 0.098 0.099 0.098 0.098 0.099 0.098 0.098 0.099 0.098 0.098 0.099 0.098 0.098 0.099 0.098 0.098 0.099 0.098 0.098 0.099 0.098 0.098 0.099 0.098 0.098 0.099 0.098 0.098 0.099 0.098 0.098 0.099 0.098 0.098 0.099 0.098 0.098 0.099 0.098 0.098 0.099 0.098 0.098 0.099 0.098 0.098 0.099 0.098 0.098 0.099 0.098 0.098 0.099 0.098 0.098 0.099 0.098 0.098 0.099 0.098 0.098 0.099 0.098 0.098 0.099 0.098 0.098 0.099 0.098 0.098 0.099 0.098 0.098 0.099 0.098 0.098 0.099 0.098 0.098 0.099 0.098 0.098 0.099 0.098 0.098 0.099 0.098 0.098 0.099 0.098 0.098 0.099 0.098 0.098 0.099 0.098 0.098 0.099 0.098 0.098 0.099 0.098 0.098 0.099 0.098 0.098 0.099 0.098 0.098 0.099 0.098 0.098 0.099 0.098 0.098 0.099 0.098 0.098 0.099 0.098 0.098 0.099 0.098 0.098 0.099 0.098 0.098 0.099 0.098 0.098 0.099 0.098 0.098 0.099 0.098 0.098 0.099 0.098 0.098 0.099 0.098 0.098 0.099 0.098 0.098 0.099 0.098 0.098 0.099 0.098 0.098 0.099 0.098 0.098 0.099 0.098 0.098 0.099 0.098 0.098 0.099 0.098 0.098 0.099 0.098 0.098 0.099 0.098 0.098 0.099 0.098 0.098 0.099 0.098 0.098 0.099 0.098 0.098 0.099 0.098 0.098 0.099 0.098 0.098 0.099 0.098 0.098 0.099 0.098 0.098 0.099 0.098 0.098 0.099 0.098 0.098 0.099 0.098 0.098 0.099 0.098 0.098 0.099 0.098 0.098 0.099 0.098 0.098 0.099 0.098 0.098 0.099 0.098 0.098 0.099 0.098 0.098 0.099 0.098 0.098 0.099 0.098 0.098 0.099 0.098 0.098 0.099 0.098 0.098 0.099 0.098 0.098 0.099 0.098 0.098 0.099 0.098 0.098 0.099 0.098 0.098 0.099 0.098 0.098 0.099 0.098 0.098 0.099 0.098 0.098 0.099 0.098 0.098 0.099 0.098 0.098 0.099 0.098 0.098 0.099 0.098 0.098 0.099 0.098 0.098 0.099 0.098 0.098 0.099 0.098 0.098 0.099 0.098 0.098 0.099 0.098 0.098 0.099 0.098 0.098 0.099 0.098 0.098 0.099 0.098 0.098 0.099 0.098 0.098 0.099 0.098 0.098 0.099 0.098 0.098 0.099 0.098 0.098 0.099 0.098 0.098 0.099 0.098 0.098 0.099 0.098 0.098 0.099 0.098 0.098 0.099 0.098 0.098 0.099 0.098 0.098 0.099 0.098 0.098 0.099 0.098 0.098 0.099 0.098 0.098 0.099 0.098 0.098 0.099 0.098 0.098 0.099 0.098 0.098 0.099 0.098 0.098 0.099 0.098 0.098 0.099 0.098 0.098 0.099 0.098 0.098 0.099 0.098 0.098 0.099 0.098 0.098 0.099 0.098 0.098 0.099 0.098 0.098 0.099 0.098 0.098 0.099 0.098 0.098 0.099 0.098 0.098 0.099 0.098 0.098 0.099 0.098 0.098 0.099 0.098 0.098 0.099 0.098 0.098 0.099 0.098 0.098 0.099 0.098 0.098 0.099 0.098 0.098 0.099 0.098 0.098 0.099 0.098 0.098 0.099 0.098 0.098 0.099 0.098 0.098 0.099 0.098 0.098 0.099 0.098 0.098 0.099 0.098 0.098 0.099 0.098 0.098 0.099 0.098 0.098 0.099 0.098 0.098 0.099 0.098 0.098 0.099 0.098 0.098 0.099 0.098 0.098 0.099 0.098 0.098 0.099 0.098 0.098 0.099 0.098 0.098 0.099 0.098 0.098 0.099 0.098 0.098 0.099 0.098 0.098 0.099 0.098 0.098 0.099 0.098 0.098 0.099 0.098 0.098 0.099 0.098 0.098 0.099 0.098 0.098 0.099 0.098 0.098 0.099 0.098 0.098 0.099 0.098 0.098 0.099 0.098 0.098 0.099 0.098 0.098 0.099 0.098 0.098 0.099 0.098 0.098 0.099 0.098 0.098 0.099 0.098 0.098 0.099 0.098 0.098 0.099 0.098 0.098 0.099 0.098 0.098 0.099 0.098 0.098 0.099 0.098 0.098 0.099 0.098 0.098 0.099 0.098 0.098 0.099 0.098 0.098 0.099 0.098 0.098 0.099 0.098 0.098 0.099 0.098 0.098 0.099 0.098 0.098 0.099 0.098 0.098 0.099 0.098 0.098 0.099 0.098 0.098 0.099 0.098 0.098 0.099 0.098 0.098 0.099 0.098 0.098 0.099 0.098 0.098 0.099 0.098 0.098 0.099 0.098 0.098 0.099 0.098 0.098 0.099 0.098 0.098 0.099 0.098 0.098 0.099 0.098 0.098 0.099 0.098 0.098 0.099 0.098 0.098 0.099 0.098 0.098 0.099 0.098 0.098 0.099 0.098 0.098"
     inkscape:connector-curvature="0"
     style="fill:none;stroke:#ff0000;stroke-width:5" />
  <path
     id="path55"
     d="m 332.70114,214.70214 h 0.098 0.098 0.098 0.099 0.098 0.098 0.099 0.098 0.098 0.099 0.098 0.098 0.099 0.098 0.098 0.099 0.098 0.098 0.099 0.098 0.098 0.099 0.098 0.098 0.099 0.098 0.098 0.099 0.098 0.098 0.099 0.098 0.098 0.099 0.098 0.098 0.099 0.098 0.098 0.099 0.098 0.098 0.099 0.098 0.098 0.099 0.098 0.098 0.099 0.098 0.098 0.099 0.098 0.098 0.099 0.098 0.098 0.099 0.098 0.098 0.099 0.098 0.098 0.099 0.098 0.098 0.099 0.098 0.098 0.099 0.098 0.098 0.099 0.098 0.098 0.099 0.098 0.098 0.099 0.098 0.098 0.099 0.098 0.098 0.099 0.098 0.098 0.099 0.098 0.098 0.099 0.098 0.098 0.099 0.098 0.098 0.099 0.098 0.098 0.099 0.098 0.098 0.099 0.098 0.098 0.099 0.098 0.098 0.099 0.098 0.098 0.099 0.098 0.098 0.099 0.098 0.098 0.099 0.098 0.098 0.099 0.098 0.098 0.099 0.098 0.098 0.099 0.098 0.098 0.099 0.098 0.098 0.099 0.098 0.098 0.099 0.098 0.098 0.099 0.098 0.098 0.099 0.098 0.098 0.099 0.098 0.098 0.099 0.098 0.098 0.099 0.098 0.098 0.099 0.098 0.098 0.099 0.098 0.098 0.099 0.098 0.098 0.099 0.098 0.098 0.099 0.098 0.098 0.099 0.098 0.098 0.099 0.098 0.098 0.099 0.098 0.098 0.099 0.098 0.098 0.099 0.098 0.098 0.099 0.098 0.098 0.099 0.098 0.098 0.099 0.098 0.098 0.099 0.098 0.098 0.099 0.098 0.098 0.099 0.098 0.098 0.099 0.098 0.098 0.099 0.098 0.098 0.099 0.098 0.098 0.099 0.098 0.098 0.099 0.098 0.098 0.099 0.098 0.098 0.099 0.098 0.098 0.099 0.098 0.098 0.099 0.098 0.098 0.099 0.098 0.098 0.099 0.098 0.098 0.099 0.098 0.098 0.099 0.098 0.098 0.099 0.098 0.098 0.099 0.098 0.098 0.099 0.098 0.098 0.099 0.098 0.098 0.099 0.098 0.098 0.099 0.098 0.098 0.099 0.098 0.098 0.099 0.098 0.098 0.099 0.098 0.098 0.099 0.098 0.098 0.099 0.098 0.098 0.099 0.098 0.098 0.099 0.098 0.098 0.099 0.098 0.098 0.099 0.098 0.098 0.099 0.098 0.098 0.099 0.098 0.098 0.099 0.098 0.098 0.099 0.098 0.098 0.099 0.098 0.098 0.099 0.098 0.098 0.099 0.098 0.098 0.099 0.098 0.098 0.099 0.098 0.098 0.099 0.098 0.098 0.099 0.098 0.098 0.099 0.098 0.098 0.099 0.098 0.098 0.099 0.098 0.098 0.099 0.098 0.098 0.099 0.098 0.098 0.099 0.098 0.098 0.099 0.098 0.098 0.099 0.098 0.098 0.099 0.098 0.098 0.099 0.098 0.098 0.099 0.098 0.098 0.099 0.098 0.098 0.099 0.098 0.098 0.099 0.098 0.098 0.099 0.098 0.098 0.099 0.098 0.098 0.099 0.098 0.098 0.099 0.098 0.098 0.099 0.098 0.098 0.099 0.098 0.098 0.099 0.098 0.098 0.099 0.098 0.098 0.099 0.098 0.098 0.099 0.098 0.098 0.099 0.098 0.098 0.099 0.098 0.098 0.099 0.098 0.098 0.099 0.098 0.098 0.099 0.098 0.098 0.099 0.098 0.098 0.099 0.098 0.098 0.099 0.098 0.098 0.099 0.098 0.098 0.099 0.098 0.098 0.099 0.098 0.098 0.099 0.098 0.098 0.099 0.098 0.098 0.099 0.098 0.098 0.099 0.098 0.098 0.099 0.098 0.098 0.099 0.098 0.098 0.099 0.098 0.098 0.099 0.098 0.098 0.099 0.098 0.098 0.099 0.098 0.098 0.099 0.098 0.098 0.099 0.098 0.098 0.099 0.098 0.098 0.099 0.098 0.098 0.099 0.098 0.098 0.099 0.098 0.098 0.099 0.098 0.098 0.099 0.098 0.098 0.099 0.098 0.098 0.099 0.098 0.098 0.099 0.098 0.098 0.099 0.098 0.098 0.099 0.098 0.098 0.099 0.098 0.098 0.099 0.098 0.098 0.099 0.098 0.098 0.099 0.098 0.098 0.099 0.098 0.098 0.099 0.098 0.098 0.099 0.098 0.098 0.099 0.098 0.098 0.099 0.098 0.098 0.099 0.098 0.098 0.099 0.098 0.098 0.099 0.098 0.098 0.099 0.098 0.098 0.099 0.098 0.098 0.099 0.098 0.098 0.099 0.098 0.098 0.099 0.098 0.098 0.099 0.098 0.098 0.099 0.098 0.098 0.099 0.098 0.098 0.099 0.098 0.098 0.099 0.098 0.098 0.099 0.098 0.098 0.099 0.098 0.098 0.099 0.098 0.098 0.099 0.098 0.098 0.099 0.098 0.098 0.099 0.098 0.098 0.099 0.098 0.098 0.099 0.098 0.098 0.099 0.098 0.098 0.099 0.098 0.098 0.099 0.098 0.098 0.099 0.098 0.098 0.099 0.098 0.098 0.099 0.098 0.098"
     inkscape:connector-curvature="0"
     style="fill:none;stroke:#ff0000;stroke-width:5" />
  <path
     id="path57"
     d="m 391.70114,155.70214 h 0.098 0.098 0.098 0.099 0.098 0.098 0.099 0.098 0.098 0.099 0.098 0.098 0.099 0.098 0.098 0.099 0.098 0.098 0.099 0.098 0.098 0.099 0.098 0.098 0.099 0.098 0.098 0.099 0.098 0.098 0.099 0.098 0.098 0.099 0.098 0.098 0.099 0.098 0.098 0.099 0.098 0.098 0.099 0.098 0.098 0.099 0.098 0.098 0.099 0.098 0.098 0.099 0.098 0.098 0.099 0.098 0.098 0.099 0.098 0.098 0.099 0.098 0.098 0.099 0.098 0.098 0.099 0.098 0.098 0.099 0.098 0.098 0.099 0.098 0.098 0.099 0.098 0.098 0.099 0.098 0.098 0.099 0.098 0.098 0.099 0.098 0.098 0.099 0.098 0.098 0.099 0.098 0.098 0.099 0.098 0.098 0.099 0.098 0.098 0.099 0.098 0.098 0.099 0.098 0.098 0.099 0.098 0.098 0.099 0.098 0.098 0.099 0.098 0.098 0.099 0.098 0.098 0.099 0.098 0.098 0.099 0.098 0.098 0.099 0.098 0.098 0.099 0.098 0.098 0.099 0.098 0.098 0.099 0.098 0.098 0.099 0.098 0.098 0.099 0.098 0.098 0.099 0.098 0.098 0.099 0.098 0.098 0.099 0.098 0.098 0.099 0.098 0.098 0.099 0.098 0.098 0.099 0.098 0.098 0.099 0.098 0.098 0.099 0.098 0.098 0.099 0.098 0.098 0.099 0.098 0.098 0.099 0.098 0.098 0.099 0.098 0.098 0.099 0.098 0.098 0.099 0.098 0.098 0.099 0.098 0.098 0.099 0.098 0.098 0.099 0.098 0.098 0.099 0.098 0.098 0.099 0.098 0.098 0.099 0.098 0.098 0.099 0.098 0.098 0.099 0.098 0.098 0.099 0.098 0.098 0.099 0.098 0.098 0.099 0.098 0.098 0.099 0.098 0.098 0.099 0.098 0.098 0.099 0.098 0.098 0.099 0.098 0.098 0.099 0.098 0.098 0.099 0.098 0.098 0.099 0.098 0.098 0.099 0.098 0.098 0.099 0.098 0.098 0.099 0.098 0.098 0.099 0.098 0.098 0.099 0.098 0.098 0.099 0.098 0.098 0.099 0.098 0.098 0.099 0.098 0.098 0.099 0.098 0.098 0.099 0.098 0.098 0.099 0.098 0.098 0.099 0.098 0.098 0.099 0.098 0.098 0.099 0.098 0.098 0.099 0.098 0.098 0.099 0.098 0.098 0.099 0.098 0.098 0.099 0.098 0.098 0.099 0.098 0.098 0.099 0.098 0.098 0.099 0.098 0.098 0.099 0.098 0.098 0.099 0.098 0.098 0.099 0.098 0.098 0.099 0.098 0.098 0.099 0.098 0.098 0.099 0.098 0.098 0.099 0.098 0.098 0.099 0.098 0.098 0.099 0.098 0.098 0.099 0.098 0.098 0.099 0.098 0.098 0.099 0.098 0.098 0.099 0.098 0.098 0.099 0.098 0.098 0.099 0.098 0.098 0.099 0.098 0.098 0.099 0.098 0.098 0.099 0.098 0.098 0.099 0.098 0.098 0.099 0.098 0.098 0.099 0.098 0.098 0.099 0.098 0.098 0.099 0.098 0.098 0.099 0.098 0.098 0.099 0.098 0.098 0.099 0.098 0.098 0.099 0.098 0.098 0.099 0.098 0.098 0.099 0.098 0.098 0.099 0.098 0.098 0.099 0.098 0.098 0.099 0.098 0.098 0.099 0.098 0.098 0.099 0.098 0.098 0.099 0.098 0.098 0.099 0.098 0.098 0.099 0.098 0.098 0.099 0.098 0.098 0.099 0.098 0.098 0.099 0.098 0.098 0.099 0.098 0.098 0.099 0.098 0.098 0.099 0.098 0.098 0.099 0.098 0.098 0.099 0.098 0.098 0.099 0.098 0.098 0.099 0.098 0.098 0.099 0.098 0.098 0.099 0.098 0.098 0.099 0.098 0.098 0.099 0.098 0.098 0.099 0.098 0.098 0.099 0.098 0.098 0.099 0.098 0.098 0.099 0.098 0.098 0.099 0.098 0.098 0.099 0.098 0.098 0.099 0.098 0.098 0.099 0.098 0.098 0.099 0.098 0.098 0.099 0.098 0.098 0.099 0.098 0.098 0.099 0.098 0.098 0.099 0.098 0.098 0.099 0.098 0.098 0.099 0.098 0.098 0.099 0.098 0.098 0.099 0.098 0.098 0.099 0.098 0.098 0.099 0.098 0.098 0.099 0.098 0.098 0.099 0.098 0.098 0.099 0.098 0.098 0.099 0.098 0.098 0.099 0.098 0.098 0.099 0.098 0.098 0.099 0.098 0.098 0.099 0.098 0.098 0.099 0.098 0.098 0.099 0.098 0.098 0.099 0.098 0.098 0.099 0.098 0.098 0.099 0.098 0.098 0.099 0.098 0.098 0.099 0.098 0.098 0.099 0.098 0.098 0.099 0.098 0.098 0.099 0.098 0.098 0.099 0.098 0.098 0.099 0.098 0.098 0.099 0.098 0.098 0.099 0.098 0.098 0.099 0.098 0.098 0.099 0.098 0.098 0.099 0.098 0.098 0.099 0.098 0.098 0.099 0.098 0.098 0.099 0.098 0.098 0.099 0.098 0.098 0.099 0.098 0.098"
     inkscape:connector-curvature="0"
     style="fill:none;stroke:#ff0000;stroke-width:5" />
  <path
     id="path59"
     d="m 450.70114,96.702139 h 0.098 0.098 0.098 0.098 0.099 0.098 0.098 0.098 0.099 0.098 0.098 0.098 0.099 0.098 0.098 0.098 0.098 0.099 0.098 0.098 0.098 0.099 0.098 0.098 0.098 0.099 0.098 0.098 0.098 0.099 0.098 0.098 0.098 0.098 0.099 0.098 0.098 0.098 0.099 0.098 0.098 0.098 0.099 0.098 0.098 0.098 0.099 0.098 0.098 0.098 0.098 0.099 0.098 0.098 0.098 0.099 0.098 0.098 0.098 0.099 0.098 0.098 0.098 0.099 0.098 0.098 0.098 0.098 0.099 0.098 0.098 0.098 0.099 0.098 0.098 0.098 0.099 0.098 0.098 0.098 0.099 0.098 0.098 0.098 0.098 0.099 0.098 0.098 0.098 0.099 0.098 0.098 0.098 0.099 0.098 0.098 0.098 0.099 0.098 0.098 0.098 0.098 0.099 0.098 0.098 0.098 0.099 0.098 0.098 0.098 0.099 0.098 0.098 0.098 0.099 0.098 0.098 0.098 0.098 0.099 0.098 0.098 0.098 0.099 0.098 0.098 0.098 0.099 0.098 0.098 0.098 0.099 0.098 0.098 0.098 0.098 0.099 0.098 0.098 0.098 0.099 0.098 0.098 0.098 0.099 0.098 0.098 0.098 0.099 0.098 0.098 0.098 0.098 0.099 0.098 0.098 0.098 0.099 0.098 0.098 0.098 0.099 0.098 0.098 0.098 0.098 0.099 0.098 0.098 0.098 0.099 0.098 0.098 0.098 0.099 0.098 0.098 0.098 0.099 0.098 0.098 0.098 0.098 0.099 0.098 0.098 0.098 0.099 0.098 0.098 0.098 0.099 0.098 0.098 0.098 0.099 0.098 0.098 0.098 0.098 0.099 0.098 0.098 0.098 0.099 0.098 0.098 0.098 0.099 0.098 0.098 0.098 0.099 0.098 0.098 0.098 0.098 0.099 0.098 0.098 0.098 0.099 0.098 0.098 0.098 0.099 0.098 0.098 0.098 0.099 0.098 0.098 0.098 0.098 0.099 0.098 0.098 0.098 0.099 0.098 0.098 0.098 0.099 0.098 0.098 0.098 0.099 0.098 0.098 0.098 0.098 0.099 0.098 0.098 0.098 0.099 0.098 0.098 0.098 0.099 0.098 0.098 0.098 0.099 0.098 0.098 0.098 0.098 0.099 0.098 0.098 0.098 0.099 0.098 0.098 0.098 0.099 0.098 0.098 0.098 0.099 0.098 0.098 0.098 0.098 0.099 0.098 0.098 0.098 0.099 0.098 0.098 0.098 0.099 0.098 0.098 0.098 0.099 0.098 0.098 0.098 0.098 0.099 0.098 0.098 0.098 0.099 0.098 0.098 0.098 0.099 0.098 0.098 0.098 0.098 0.099 0.098 0.098 0.098 0.099 0.098 0.098 0.098 0.099 0.098 0.098 0.098 0.099 0.098 0.098 0.098 0.098 0.099 0.098 0.098 0.098 0.099 0.098 0.098 0.098 0.099 0.098 0.098 0.098 0.099 0.098 0.098 0.098 0.098 0.099 0.098 0.098 0.098 0.099 0.098 0.098 0.098 0.099 0.098 0.098 0.098 0.099 0.098 0.098 0.098 0.098 0.099 0.098 0.098 0.098 0.099 0.098 0.098 0.098 0.099 0.098 0.098 0.098 0.099 0.098 0.098 0.098 0.098 0.099 0.098 0.098 0.098 0.099 0.098 0.098 0.098 0.099 0.098 0.098 0.098 0.099 0.098 0.098 0.098 0.098 0.099 0.098 0.098 0.098 0.099 0.098 0.098 0.098 0.099 0.098 0.098 0.098 0.099 0.098 0.098 0.098 0.098 0.099 0.098 0.098 0.098 0.099 0.098 0.098 0.098 0.099 0.098 0.098 0.098 0.099 0.098 0.098 0.098 0.098 0.099 0.098 0.098 0.098 0.099 0.098 0.098 0.098 0.099 0.098 0.098 0.098 0.099 0.098 0.098 0.098 0.098 0.099 0.098 0.098 0.098 0.099 0.098 0.098 0.098 0.099 0.098 0.098 0.098 0.098 0.099 0.098 0.098 0.098 0.099 0.098 0.098 0.098 0.099 0.098 0.098 0.098 0.099 0.098 0.098 0.098 0.098 0.099 0.098 0.098 0.098 0.099 0.098 0.098 0.098 0.099 0.098 0.098 0.098 0.099 0.098 0.098 0.098 0.098 0.099 0.098 0.098 0.098 0.099 0.098 0.098 0.098 0.099 0.098 0.098 0.098 0.099 0.098 0.098 0.098 0.098 0.099 0.098 0.098 0.098 0.099 0.098 0.098 0.098 0.099 0.098 0.098 0.098 0.099 0.098 0.098 0.098 0.098 0.099 0.098 0.098 0.098 0.099 0.098 0.098 0.098 0.099 0.098 0.098 0.098 0.099 0.098 0.098 0.098 0.098 0.099 0.098 0.098 0.098 0.099 0.098 0.098 0.098 0.099 0.098 0.098 0.098 0.099 0.098 0.098 0.098 0.098 0.099 0.098 0.098 0.098 0.099 0.098 0.098 0.098 0.099 0.098 0.098 0.098 0.099 0.098 0.098 0.098 0.098 0.099 0.098 0.098 0.098 0.099 0.098 0.098 0.098 0.099 0.098 0.098 0.098 0.099 0.098 0.098 0.098 0.098"
     inkscape:connector-curvature="0"
     style="fill:none;stroke:#ff0000;stroke-width:5" />
  <path
     id="path61"
     d="m 214.70114,332.70214 h 0.098 0.098 0.098 0.099 0.098 0.098 0.099 0.098 0.098 0.099 0.098 0.098 0.099 0.098 0.098 0.099 0.098 0.098 0.099 0.098 0.098 0.099 0.098 0.098 0.099 0.098 0.098 0.099 0.098 0.098 0.099 0.098 0.098 0.099 0.098 0.098 0.099 0.098 0.098 0.099 0.098 0.098 0.099 0.098 0.098 0.099 0.098 0.098 0.099 0.098 0.098 0.099 0.098 0.098 0.099 0.098 0.098 0.099 0.098 0.098 0.099 0.098 0.098 0.099 0.098 0.098 0.099 0.098 0.098 0.099 0.098 0.098 0.099 0.098 0.098 0.099 0.098 0.098 0.099 0.098 0.098 0.099 0.098 0.098 0.099 0.098 0.098 0.099 0.098 0.098 0.099 0.098 0.098 0.099 0.098 0.098 0.099 0.098 0.098 0.099 0.098 0.098 0.099 0.098 0.098 0.099 0.098 0.098 0.099 0.098 0.098 0.099 0.098 0.098 0.099 0.098 0.098 0.099 0.098 0.098 0.099 0.098 0.098 0.099 0.098 0.098 0.099 0.098 0.098 0.099 0.098 0.098 0.099 0.098 0.098 0.099 0.098 0.098 0.099 0.098 0.098 0.099 0.098 0.098 0.099 0.098 0.098 0.099 0.098 0.098 0.099 0.098 0.098 0.099 0.098 0.098 0.099 0.098 0.098 0.099 0.098 0.098 0.099 0.098 0.098 0.099 0.098 0.098 0.099 0.098 0.098 0.099 0.098 0.098 0.099 0.098 0.098 0.099 0.098 0.098 0.099 0.098 0.098 0.099 0.098 0.098 0.099 0.098 0.098 0.099 0.098 0.098 0.099 0.098 0.098 0.099 0.098 0.098 0.099 0.098 0.098 0.099 0.098 0.098 0.099 0.098 0.098 0.099 0.098 0.098 0.099 0.098 0.098 0.099 0.098 0.098 0.099 0.098 0.098 0.099 0.098 0.098 0.099 0.098 0.098 0.099 0.098 0.098 0.099 0.098 0.098 0.099 0.098 0.098 0.099 0.098 0.098 0.099 0.098 0.098 0.099 0.098 0.098 0.099 0.098 0.098 0.099 0.098 0.098 0.099 0.098 0.098 0.099 0.098 0.098 0.099 0.098 0.098 0.099 0.098 0.098 0.099 0.098 0.098 0.099 0.098 0.098 0.099 0.098 0.098 0.099 0.098 0.098 0.099 0.098 0.098 0.099 0.098 0.098 0.099 0.098 0.098 0.099 0.098 0.098 0.099 0.098 0.098 0.099 0.098 0.098 0.099 0.098 0.098 0.099 0.098 0.098 0.099 0.098 0.098 0.099 0.098 0.098 0.099 0.098 0.098 0.099 0.098 0.098 0.099 0.098 0.098 0.099 0.098 0.098 0.099 0.098 0.098 0.099 0.098 0.098 0.099 0.098 0.098 0.099 0.098 0.098 0.099 0.098 0.098 0.099 0.098 0.098 0.099 0.098 0.098 0.099 0.098 0.098 0.099 0.098 0.098 0.099 0.098 0.098 0.099 0.098 0.098 0.099 0.098 0.098 0.099 0.098 0.098 0.099 0.098 0.098 0.099 0.098 0.098 0.099 0.098 0.098 0.099 0.098 0.098 0.099 0.098 0.098 0.099 0.098 0.098 0.099 0.098 0.098 0.099 0.098 0.098 0.099 0.098 0.098 0.099 0.098 0.098 0.099 0.098 0.098 0.099 0.098 0.098 0.099 0.098 0.098 0.099 0.098 0.098 0.099 0.098 0.098 0.099 0.098 0.098 0.099 0.098 0.098 0.099 0.098 0.098 0.099 0.098 0.098 0.099 0.098 0.098 0.099 0.098 0.098 0.099 0.098 0.098 0.099 0.098 0.098 0.099 0.098 0.098 0.099 0.098 0.098 0.099 0.098 0.098 0.099 0.098 0.098 0.099 0.098 0.098 0.099 0.098 0.098 0.099 0.098 0.098 0.099 0.098 0.098 0.099 0.098 0.098 0.099 0.098 0.098 0.099 0.098 0.098 0.099 0.098 0.098 0.099 0.098 0.098 0.099 0.098 0.098 0.099 0.098 0.098 0.099 0.098 0.098 0.099 0.098 0.098 0.099 0.098 0.098 0.099 0.098 0.098 0.099 0.098 0.098 0.099 0.098 0.098 0.099 0.098 0.098 0.099 0.098 0.098 0.099 0.098 0.098 0.099 0.098 0.098 0.099 0.098 0.098 0.099 0.098 0.098 0.099 0.098 0.098 0.099 0.098 0.098 0.099 0.098 0.098 0.099 0.098 0.098 0.099 0.098 0.098 0.099 0.098 0.098 0.099 0.098 0.098 0.099 0.098 0.098 0.099 0.098 0.098 0.099 0.098 0.098 0.099 0.098 0.098 0.099 0.098 0.098 0.099 0.098 0.098 0.099 0.098 0.098 0.099 0.098 0.098 0.099 0.098 0.098 0.099 0.098 0.098 0.099 0.098 0.098 0.099 0.098 0.098 0.099 0.098 0.098 0.099 0.098 0.098 0.099 0.098 0.098 0.099 0.098 0.098 0.099 0.098 0.098 0.099 0.098 0.098 0.099 0.098 0.098 0.099 0.098 0.098 0.099 0.098 0.098 0.099 0.098 0.098 0.099 0.098 0.098 0.099 0.098 0.098 0.099 0.098 0.098"
     inkscape:connector-curvature="0"
     style="fill:none;stroke:#ff0000;stroke-width:5" />
  <path
     id="path63"
     d="m 155.70114,391.70214 h 0.098 0.098 0.098 0.099 0.098 0.098 0.099 0.098 0.098 0.099 0.098 0.098 0.099 0.098 0.098 0.099 0.098 0.098 0.099 0.098 0.098 0.099 0.098 0.098 0.099 0.098 0.098 0.099 0.098 0.098 0.099 0.098 0.098 0.099 0.098 0.098 0.099 0.098 0.098 0.099 0.098 0.098 0.099 0.098 0.098 0.099 0.098 0.098 0.099 0.098 0.098 0.099 0.098 0.098 0.099 0.098 0.098 0.099 0.098 0.098 0.099 0.098 0.098 0.099 0.098 0.098 0.099 0.098 0.098 0.099 0.098 0.098 0.099 0.098 0.098 0.099 0.098 0.098 0.099 0.098 0.098 0.099 0.098 0.098 0.099 0.098 0.098 0.099 0.098 0.098 0.099 0.098 0.098 0.099 0.098 0.098 0.099 0.098 0.098 0.099 0.098 0.098 0.099 0.098 0.098 0.099 0.098 0.098 0.099 0.098 0.098 0.099 0.098 0.098 0.099 0.098 0.098 0.099 0.098 0.098 0.099 0.098 0.098 0.099 0.098 0.098 0.099 0.098 0.098 0.099 0.098 0.098 0.099 0.098 0.098 0.099 0.098 0.098 0.099 0.098 0.098 0.099 0.098 0.098 0.099 0.098 0.098 0.099 0.098 0.098 0.099 0.098 0.098 0.099 0.098 0.098 0.099 0.098 0.098 0.099 0.098 0.098 0.099 0.098 0.098 0.099 0.098 0.098 0.099 0.098 0.098 0.099 0.098 0.098 0.099 0.098 0.098 0.099 0.098 0.098 0.099 0.098 0.098 0.099 0.098 0.098 0.099 0.098 0.098 0.099 0.098 0.098 0.099 0.098 0.098 0.099 0.098 0.098 0.099 0.098 0.098 0.099 0.098 0.098 0.099 0.098 0.098 0.099 0.098 0.098 0.099 0.098 0.098 0.099 0.098 0.098 0.099 0.098 0.098 0.099 0.098 0.098 0.099 0.098 0.098 0.099 0.098 0.098 0.099 0.098 0.098 0.099 0.098 0.098 0.099 0.098 0.098 0.099 0.098 0.098 0.099 0.098 0.098 0.099 0.098 0.098 0.099 0.098 0.098 0.099 0.098 0.098 0.099 0.098 0.098 0.099 0.098 0.098 0.099 0.098 0.098 0.099 0.098 0.098 0.099 0.098 0.098 0.099 0.098 0.098 0.099 0.098 0.098 0.099 0.098 0.098 0.099 0.098 0.098 0.099 0.098 0.098 0.099 0.098 0.098 0.099 0.098 0.098 0.099 0.098 0.098 0.099 0.098 0.098 0.099 0.098 0.098 0.099 0.098 0.098 0.099 0.098 0.098 0.099 0.098 0.098 0.099 0.098 0.098 0.099 0.098 0.098 0.099 0.098 0.098 0.099 0.098 0.098 0.099 0.098 0.098 0.099 0.098 0.098 0.099 0.098 0.098 0.099 0.098 0.098 0.099 0.098 0.098 0.099 0.098 0.098 0.099 0.098 0.098 0.099 0.098 0.098 0.099 0.098 0.098 0.099 0.098 0.098 0.099 0.098 0.098 0.099 0.098 0.098 0.099 0.098 0.098 0.099 0.098 0.098 0.099 0.098 0.098 0.099 0.098 0.098 0.099 0.098 0.098 0.099 0.098 0.098 0.099 0.098 0.098 0.099 0.098 0.098 0.099 0.098 0.098 0.099 0.098 0.098 0.099 0.098 0.098 0.099 0.098 0.098 0.099 0.098 0.098 0.099 0.098 0.098 0.099 0.098 0.098 0.099 0.098 0.098 0.099 0.098 0.098 0.099 0.098 0.098 0.099 0.098 0.098 0.099 0.098 0.098 0.099 0.098 0.098 0.099 0.098 0.098 0.099 0.098 0.098 0.099 0.098 0.098 0.099 0.098 0.098 0.099 0.098 0.098 0.099 0.098 0.098 0.099 0.098 0.098 0.099 0.098 0.098 0.099 0.098 0.098 0.099 0.098 0.098 0.099 0.098 0.098 0.099 0.098 0.098 0.099 0.098 0.098 0.099 0.098 0.098 0.099 0.098 0.098 0.099 0.098 0.098 0.099 0.098 0.098 0.099 0.098 0.098 0.099 0.098 0.098 0.099 0.098 0.098 0.099 0.098 0.098 0.099 0.098 0.098 0.099 0.098 0.098 0.099 0.098 0.098 0.099 0.098 0.098 0.099 0.098 0.098 0.099 0.098 0.098 0.099 0.098 0.098 0.099 0.098 0.098 0.099 0.098 0.098 0.099 0.098 0.098 0.099 0.098 0.098 0.099 0.098 0.098 0.099 0.098 0.098 0.099 0.098 0.098 0.099 0.098 0.098 0.099 0.098 0.098 0.099 0.098 0.098 0.099 0.098 0.098 0.099 0.098 0.098 0.099 0.098 0.098 0.099 0.098 0.098 0.099 0.098 0.098 0.099 0.098 0.098 0.099 0.098 0.098 0.099 0.098 0.098 0.099 0.098 0.098 0.099 0.098 0.098 0.099 0.098 0.098 0.099 0.098 0.098 0.099 0.098 0.098 0.099 0.098 0.098 0.099 0.098 0.098 0.099 0.098 0.098 0.099 0.098 0.098 0.099 0.098 0.098 0.099 0.098 0.098 0.099 0.098 0.098 0.099 0.098 0.098 0.099 0.098 0.098 0.099 0.098 0.098"
     inkscape:connector-curvature="0"
     style="fill:none;stroke:#ff0000;stroke-width:5" />
  <path
     id="path65"
     d="m 96.701139,450.70214 h 0.098 0.098 0.098 0.099 0.098 0.098 0.099 0.098 0.098 0.099 0.098 0.098 0.099 0.098 0.098 0.099 0.098 0.098 0.099 0.098 0.098 0.099 0.098 0.098 0.099 0.098 0.098 0.099 0.098 0.098 0.099 0.098 0.098 0.099 0.098 0.098 0.099 0.098 0.098 0.099 0.098 0.098 0.099 0.098 0.098 0.099 0.098 0.098 0.099 0.098 0.098 0.099 0.098 0.098 0.099 0.098 0.098 0.099 0.098 0.098 0.099 0.098 0.098 0.099 0.098 0.098 0.099 0.098 0.098 0.099 0.098 0.098 0.099 0.098 0.098 0.099 0.098 0.098 0.099 0.098 0.098 0.099 0.098 0.098 0.099 0.098 0.098 0.099 0.098 0.098 0.099 0.098 0.098 0.099 0.098 0.098 0.099 0.098 0.098 0.099 0.098 0.098 0.099 0.098 0.098 0.099 0.098 0.098 0.099 0.098 0.098 0.099 0.098 0.098 0.099 0.098 0.098 0.099 0.098 0.098 0.099 0.098 0.098 0.099 0.098 0.098 0.099 0.098 0.098 0.099 0.098 0.098 0.099 0.098 0.098 0.099 0.098 0.098 0.099 0.098 0.098 0.099 0.098 0.098 0.099 0.098 0.098 0.099 0.098 0.098 0.099 0.098 0.098 0.099 0.098 0.098 0.099 0.098 0.098 0.099 0.098 0.098 0.099 0.098 0.098 0.099 0.098 0.098 0.099 0.098 0.098 0.099 0.098 0.098 0.099 0.098 0.098 0.099 0.098 0.098 0.099 0.098 0.098 0.099 0.098 0.098 0.099 0.098 0.098 0.099 0.098 0.098 0.099 0.098 0.098 0.099 0.098 0.098 0.099 0.098 0.098 0.099 0.098 0.098 0.099 0.098 0.098 0.099 0.098 0.098 0.099 0.098 0.098 0.099 0.098 0.098 0.099 0.098 0.098 0.099 0.098 0.098 0.099 0.098 0.098 0.099 0.098 0.098 0.099 0.098 0.098 0.099 0.098 0.098 0.099 0.098 0.098 0.099 0.098 0.098 0.099 0.098 0.098 0.099 0.098 0.098 0.099 0.098 0.098 0.099 0.098 0.098 0.099 0.098 0.098 0.099 0.098 0.098 0.099 0.098 0.098 0.099 0.098 0.098 0.099 0.098 0.098 0.099 0.098 0.098 0.099 0.098 0.098 0.099 0.098 0.098 0.099 0.098 0.098 0.099 0.098 0.098 0.099 0.098 0.098 0.099 0.098 0.098 0.099 0.098 0.098 0.099 0.098 0.098 0.099 0.098 0.098 0.099 0.098 0.098 0.099 0.098 0.098 0.099 0.098 0.098 0.099 0.098 0.098 0.099 0.098 0.098 0.099 0.098 0.098 0.099 0.098 0.098 0.099 0.098 0.098 0.099 0.098 0.098 0.099 0.098 0.098 0.099 0.098 0.098 0.099 0.098 0.098 0.099 0.098 0.098 0.099 0.098 0.098 0.099 0.098 0.098 0.099 0.098 0.098 0.099 0.098 0.098 0.099 0.098 0.098 0.099 0.098 0.098 0.099 0.098 0.098 0.099 0.098 0.098 0.099 0.098 0.098 0.099 0.098 0.098 0.099 0.098 0.098 0.099 0.098 0.098 0.099 0.098 0.098 0.099 0.098 0.098 0.099 0.098 0.098 0.099 0.098 0.098 0.099 0.098 0.098 0.099 0.098 0.098 0.099 0.098 0.098 0.099 0.098 0.098 0.099 0.098 0.098 0.099 0.098 0.098 0.099 0.098 0.098 0.099 0.098 0.098 0.099 0.098 0.098 0.099 0.098 0.098 0.099 0.098 0.098 0.099 0.098 0.098 0.099 0.098 0.098 0.099 0.098 0.098 0.099 0.098 0.098 0.099 0.098 0.098 0.099 0.098 0.098 0.099 0.098 0.098 0.099 0.098 0.098 0.099 0.098 0.098 0.099 0.098 0.098 0.099 0.098 0.098 0.099 0.098 0.098 0.099 0.098 0.098 0.099 0.098 0.098 0.099 0.098 0.098 0.099 0.098 0.098 0.099 0.098 0.098 0.099 0.098 0.098 0.099 0.098 0.098 0.099 0.098 0.098 0.099 0.098 0.098 0.099 0.098 0.098 0.099 0.098 0.098 0.099 0.098 0.098 0.099 0.098 0.098 0.099 0.098 0.098 0.099 0.098 0.098 0.099 0.098 0.098 0.099 0.098 0.098 0.099 0.098 0.098 0.099 0.098 0.098 0.099 0.098 0.098 0.099 0.098 0.098 0.099 0.098 0.098 0.099 0.098 0.098 0.099 0.098 0.098 0.099 0.098 0.098 0.099 0.098 0.098 0.099 0.098 0.098 0.099 0.098 0.098 0.099 0.098 0.098 0.099 0.098 0.098 0.099 0.098 0.098 0.099 0.098 0.098 0.099 0.098 0.098 0.099 0.098 0.098 0.099 0.098 0.098 0.099 0.098 0.098 0.099 0.098 0.098 0.099 0.098 0.098 0.099 0.098 0.098 0.099 0.098 0.098 0.099 0.098 0.098 0.099 0.098 0.098 0.099 0.098 0.098 0.099 0.098 0.098 0.099 0.098 0.098 0.099 0.098 0.098 0.099 0.098 0.098 0.099 0.098 0.098 0.099 0.098 0.098"
     inkscape:connector-curvature="0"
     style="fill:none;stroke:#ff0000;stroke-width:5" />
  <path
     id="path67"
     d="m 37.760139,509.70214 h 0.098 0.098 0.098 0.098 0.099 0.098 0.098 0.098 0.099 0.098 0.098 0.098 0.099 0.098 0.098 0.098 0.098 0.099 0.098 0.098 0.098 0.099 0.098 0.098 0.098 0.099 0.098 0.098 0.098 0.099 0.098 0.098 0.098 0.098 0.099 0.098 0.098 0.098 0.099 0.098 0.098 0.098 0.099 0.098 0.098 0.098 0.099 0.098 0.098 0.098 0.098 0.099 0.098 0.098 0.098 0.099 0.098 0.098 0.098 0.099 0.098 0.098 0.098 0.099 0.098 0.098 0.098 0.098 0.099 0.098 0.098 0.098 0.099 0.098 0.098 0.098 0.099 0.098 0.098 0.098 0.099 0.098 0.098 0.098 0.098 0.099 0.098 0.098 0.098 0.099 0.098 0.098 0.098 0.099 0.098 0.098 0.098 0.099 0.098 0.098 0.098 0.098 0.099 0.098 0.098 0.098 0.099 0.098 0.098 0.098 0.099 0.098 0.098 0.098 0.099 0.098 0.098 0.098 0.098 0.099 0.098 0.098 0.098 0.099 0.098 0.098 0.098 0.099 0.098 0.098 0.098 0.099 0.098 0.098 0.098 0.098 0.099 0.098 0.098 0.098 0.099 0.098 0.098 0.098 0.099 0.098 0.098 0.098 0.099 0.098 0.098 0.098 0.098 0.099 0.098 0.098 0.098 0.099 0.098 0.098 0.098 0.099 0.098 0.098 0.098 0.098 0.099 0.098 0.098 0.098 0.099 0.098 0.098 0.098 0.099 0.098 0.098 0.098 0.099 0.098 0.098 0.098 0.098 0.099 0.098 0.098 0.098 0.099 0.098 0.098 0.098 0.099 0.098 0.098 0.098 0.099 0.098 0.098 0.098 0.098 0.099 0.098 0.098 0.098 0.099 0.098 0.098 0.098 0.099 0.098 0.098 0.098 0.099 0.098 0.098 0.098 0.098 0.099 0.098 0.098 0.098 0.099 0.098 0.098 0.098 0.099 0.098 0.098 0.098 0.099 0.098 0.098 0.098 0.098 0.099 0.098 0.098 0.098 0.099 0.098 0.098 0.098 0.099 0.098 0.098 0.098 0.099 0.098 0.098 0.098 0.098 0.099 0.098 0.098 0.098 0.099 0.098 0.098 0.098 0.099 0.098 0.098 0.098 0.099 0.098 0.098 0.098 0.098 0.099 0.098 0.098 0.098 0.099 0.098 0.098 0.098 0.099 0.098 0.098 0.098 0.099 0.098 0.098 0.098 0.098 0.099 0.098 0.098 0.098 0.099 0.098 0.098 0.098 0.099 0.098 0.098 0.098 0.099 0.098 0.098 0.098 0.098 0.099 0.098 0.098 0.098 0.099 0.098 0.098 0.098 0.099 0.098 0.098 0.098 0.098 0.099 0.098 0.098 0.098 0.099 0.098 0.098 0.098 0.099 0.098 0.098 0.098 0.099 0.098 0.098 0.098 0.098 0.099 0.098 0.098 0.098 0.099 0.098 0.098 0.098 0.099 0.098 0.098 0.098 0.099 0.098 0.098 0.098 0.098 0.099 0.098 0.098 0.098 0.099 0.098 0.098 0.098 0.099 0.098 0.098 0.098 0.099 0.098 0.098 0.098 0.098 0.099 0.098 0.098 0.098 0.099 0.098 0.098 0.098 0.099 0.098 0.098 0.098 0.099 0.098 0.098 0.098 0.098 0.099 0.098 0.098 0.098 0.099 0.098 0.098 0.098 0.099 0.098 0.098 0.098 0.099 0.098 0.098 0.098 0.098 0.099 0.098 0.098 0.098 0.099 0.098 0.098 0.098 0.099 0.098 0.098 0.098 0.099 0.098 0.098 0.098 0.098 0.099 0.098 0.098 0.098 0.099 0.098 0.098 0.098 0.099 0.098 0.098 0.098 0.099 0.098 0.098 0.098 0.098 0.099 0.098 0.098 0.098 0.099 0.098 0.098 0.098 0.099 0.098 0.098 0.098 0.099 0.098 0.098 0.098 0.098 0.099 0.098 0.098 0.098 0.099 0.098 0.098 0.098 0.099 0.098 0.098 0.098 0.098 0.099 0.098 0.098 0.098 0.099 0.098 0.098 0.098 0.099 0.098 0.098 0.098 0.099 0.098 0.098 0.098 0.098 0.099 0.098 0.098 0.098 0.099 0.098 0.098 0.098 0.099 0.098 0.098 0.098 0.099 0.098 0.098 0.098 0.098 0.099 0.098 0.098 0.098 0.099 0.098 0.098 0.098 0.099 0.098 0.098 0.098 0.099 0.098 0.098 0.098 0.098 0.099 0.098 0.098 0.098 0.099 0.098 0.098 0.098 0.099 0.098 0.098 0.098 0.099 0.098 0.098 0.098 0.098 0.099 0.098 0.098 0.098 0.099 0.098 0.098 0.098 0.099 0.098 0.098 0.098 0.099 0.098 0.098 0.098 0.098 0.099 0.098 0.098 0.098 0.099 0.098 0.098 0.098 0.099 0.098 0.098 0.098 0.099 0.098 0.098 0.098 0.098 0.099 0.098 0.098 0.098 0.099 0.098 0.098 0.098 0.099 0.098 0.098 0.098 0.099 0.098 0.098 0.098 0.098 0.099 0.098 0.098 0.098 0.099 0.098 0.098 0.098 0.099 0.098 0.098 0.098 0.099 0.098 0.098 0.098 0.098"
     inkscape:connector-curvature="0"
     style="fill:none;stroke:#ff0000;stroke-width:5" />
</svg>
