<?xml version="1.0" encoding="UTF-8" standalone="no"?>
<svg
   xmlns:dc="http://purl.org/dc/elements/1.1/"
   xmlns:cc="http://creativecommons.org/ns#"
   xmlns:rdf="http://www.w3.org/1999/02/22-rdf-syntax-ns#"
   xmlns:svg="http://www.w3.org/2000/svg"
   xmlns="http://www.w3.org/2000/svg"
   xmlns:sodipodi="http://sodipodi.sourceforge.net/DTD/sodipodi-0.dtd"
   xmlns:inkscape="http://www.inkscape.org/namespaces/inkscape"
   id="preview"
   width="525.58112"
   height="525.58112"
   viewBox="0 0 525.58112 525.58112"
   xunitlength="94"
   yunitlength="94"
   xmin="-2.5"
   xmax="2.5"
   ymin="-2.5"
   ymax="2.5"
   ox="275"
   oy="275"
   version="1.1"
   sodipodi:docname="H(x).svg"
   inkscape:version="0.92.1 r15371">
  <metadata
     id="metadata40">
    <rdf:RDF>
      <cc:Work
         rdf:about="">
        <dc:format>image/svg+xml</dc:format>
        <dc:type
           rdf:resource="http://purl.org/dc/dcmitype/StillImage" />
      </cc:Work>
    </rdf:RDF>
  </metadata>
  <sodipodi:namedview
     pagecolor="#ffffff"
     bordercolor="#666666"
     borderopacity="1"
     objecttolerance="10"
     gridtolerance="10"
     guidetolerance="10"
     inkscape:pageopacity="0"
     inkscape:pageshadow="2"
     inkscape:window-width="640"
     inkscape:window-height="480"
     id="namedview38"
     showgrid="false"
     inkscape:zoom="0.39333333"
     inkscape:cx="233.50847"
     inkscape:cy="278"
     inkscape:window-x="0"
     inkscape:window-y="0"
     inkscape:window-maximized="0"
     inkscape:current-layer="preview" />
  <defs
     id="defs6">
    <style
       type="text/css"
       id="style2">@import url(&quot;http://cdnjs.cloudflare.com/ajax/libs/KaTeX/0.2.0/katex.min.css&quot;)</style>
    <style
       type="text/css"
       id="style4"><![CDATA[text {font-family="KaTeX_Main,serif"}]]></style>
  </defs>
  <path
     d="m 502.4,265.38114 21.6,7.2 -21.6,7.2 3.6,-7.2 z"
     id="path8"
     inkscape:connector-curvature="0"
     style="fill:#000000;stroke:#000000;stroke-width:1" />
  <path
     d="m 245.8,23.181139 7.2,-21.6000002 7.2,21.6000002 -7.2,-3.6 z"
     id="path10"
     inkscape:connector-curvature="0"
     style="fill:#000000;stroke:#000000;stroke-width:1" />
  <path
     d="M 0,272.58114 H 506 M 253,19.581139 V 525.58114 m 0,-246 v -14 m 94,14 v -14 m 94,14 v -14 m -282,14 v -14 m -94,14 v -14 m 195,7 h -14 m 14,94 h -14 m 14,94 h -14 m 14,-282 h -14 m 14,-94.000001 h -14"
     id="path12"
     inkscape:connector-curvature="0"
     style="fill:none;stroke:#000000;stroke-width:2" />
  <text
     id="null"
     x="347"
     y="302.58115"
     font-style=""
     font-size="28"
     font-weight="normal"
     style="font-weight:normal;font-size:28px;text-anchor:middle;fill:#000000;stroke-width:0px">1</text>
  <text
     id="text15"
     x="441"
     y="302.58115"
     font-style=""
     font-size="28"
     font-weight="normal"
     style="font-weight:normal;font-size:28px;text-anchor:middle;fill:#000000;stroke-width:0px">2</text>
  <text
     id="text17"
     x="159"
     y="302.58115"
     font-style=""
     font-size="28"
     font-weight="normal"
     style="font-weight:normal;font-size:28px;text-anchor:middle;fill:#000000;stroke-width:0px">-1</text>
  <text
     id="text19"
     x="65"
     y="302.58115"
     font-style=""
     font-size="28"
     font-weight="normal"
     style="font-weight:normal;font-size:28px;text-anchor:middle;fill:#000000;stroke-width:0px">-2</text>
  <text
     id="text21"
     x="241.66599"
     y="187.91414"
     font-style=""
     font-size="28"
     font-weight="normal"
     style="font-weight:normal;font-size:28px;text-anchor:end;fill:#000000;stroke-width:0px">1</text>
  <text
     id="text23"
     x="241.66599"
     y="93.914131"
     font-style=""
     font-size="28"
     font-weight="normal"
     style="font-weight:normal;font-size:28px;text-anchor:end;fill:#000000;stroke-width:0px">2</text>
  <text
     id="text25"
     x="241.66599"
     y="375.91415"
     font-style=""
     font-size="28"
     font-weight="normal"
     style="font-weight:normal;font-size:28px;text-anchor:end;fill:#000000;stroke-width:0px">-1</text>
  <text
     id="text27"
     x="241.66599"
     y="469.91415"
     font-style=""
     font-size="28"
     font-weight="normal"
     style="font-weight:normal;font-size:28px;text-anchor:end;fill:#000000;stroke-width:0px">-2</text>
  <text
     id="text29"
     x="253"
     y="-9.752861"
     font-style="italic"
     font-size="28"
     font-weight="normal"
     style="font-style:italic;font-weight:normal;font-size:28px;text-anchor:middle;fill:#000000;stroke-width:0px" />
  <text
     id="text31"
     x="535.33301"
     y="281.91415"
     font-style="italic"
     font-size="28"
     font-weight="normal"
     style="font-style:italic;font-weight:normal;font-size:28px;text-anchor:start;fill:#000000;stroke-width:0px" />
  <path
     id="path33"
     d="m 253,178.58114 h 0.391 0.392 0.391 0.392 0.392 0.391 0.392 0.392 0.391 0.392 0.392 0.391 0.392 0.392 0.391 0.392 0.392 0.391 0.392 0.392 0.391 0.392 0.392 0.391 0.392 0.392 0.391 0.392 0.392 0.391 0.392 0.392 0.391 0.392 0.392 0.391 0.392 0.392 0.391 0.392 0.392 0.391 0.392 0.392 0.391 0.392 0.392 0.391 0.392 0.392 0.391 0.392 0.392 0.391 0.392 0.392 0.391 0.392 0.392 0.391 0.392 0.392 0.391 0.392 0.392 0.391 0.392 0.392 0.391 0.392 0.392 0.391 0.392 0.392 0.391 0.392 0.392 0.391 0.392 0.392 0.391 0.392 0.392 0.391 0.392 0.392 0.391 0.392 0.392 0.391 0.392 0.392 0.391 0.392 0.392 0.391 0.392 0.392 0.391 0.392 0.392 0.391 0.392 0.392 0.391 0.392 0.392 0.391 0.392 0.392 0.391 0.392 0.392 0.391 0.392 0.392 0.391 0.392 0.392 0.391 0.392 0.392 0.391 0.392 0.392 0.391 0.392 0.392 0.391 0.392 0.392 0.391 0.392 0.392 0.391 0.392 0.392 0.391 0.392 0.392 0.391 0.392 0.392 0.391 0.392 0.392 0.391 0.392 0.392 0.391 0.392 0.392 0.391 0.392 0.392 0.391 0.392 0.392 0.391 0.392 0.392 0.391 0.392 0.392 0.391 0.392 0.392 0.391 0.392 0.392 0.391 0.392 0.392 0.391 0.392 0.392 0.391 0.392 0.392 0.391 0.392 0.392 0.391 0.392 0.392 0.391 0.392 0.392 0.391 0.392 0.392 0.391 0.392 0.392 0.391 0.392 0.392 0.391 0.392 0.392 0.391 0.392 0.392 0.391 0.392 0.392 0.391 0.392 0.392 0.391 0.392 0.392 0.391 0.392 0.392 0.391 0.392 0.392 0.391 0.392 0.392 0.391 0.392 0.392 0.391 0.392 0.392 0.391 0.392 0.392 0.391 0.392 0.392 0.391 0.392 0.392 0.391 0.392 0.392 0.391 0.392 0.392 0.391 0.392 0.392 0.391 0.392 0.392 0.391 0.392 0.392 0.391 0.392 0.392 0.391 0.392 0.392 0.391 0.392 0.392 0.391 0.392 0.392 0.391 0.392 0.392 0.391 0.392 0.392 0.391 0.392 0.392 0.391 0.392 0.392 0.391 0.392 0.392 0.391 0.392 0.392 0.391 0.392 0.392 0.391 0.392 0.392 0.391 0.392 0.392 0.391 0.392 0.392 0.391 0.392 0.392 0.391 0.392 0.392 0.391 0.392 0.392 0.391 0.392 0.392 0.391 0.392 0.392 0.391 0.392 0.392 0.391 0.392 0.392 0.391 0.392 0.392 0.391 0.392 0.392 0.391 0.392 0.392 0.391 0.392 0.392 0.391 0.392 0.392 0.391 0.392 0.392 0.391 0.392 0.392 0.391 0.392 0.392 0.391 0.392 0.392 0.391 0.392 0.392 0.391 0.392 0.392 0.391 0.392 0.392 0.391 0.392 0.392 0.391 0.392 0.392 0.391 0.392 0.392 0.391 0.392 0.392 0.391 0.392 0.392 0.391 0.392 0.392 0.391 0.392 0.392 0.391 0.392 0.392 0.391 0.392 0.392 0.391 0.392 0.392 0.391 0.392 0.392 0.391 0.392 0.392 0.391 0.392 0.392 0.391 0.392 0.392 0.391 0.392 0.392 0.391 0.392 0.392 0.391 0.392 0.392 0.391 0.392 0.392 0.391 0.392 0.392 0.391 0.392 0.392 0.391 0.392 0.392 0.391 0.392 0.392 0.391 0.392 0.392 0.391 0.392 0.392 0.391 0.392 0.392 0.391 0.392 0.392 0.391 0.392 0.392 0.391 0.392 0.392 0.391 0.392 0.392 0.391 0.392 0.392 0.391 0.392 0.392 0.391 0.392 0.392 0.391 0.392 0.392 0.391 0.392 0.392 0.391 0.392 0.392 0.391 0.392 0.392 0.391 0.392 0.392 0.391 0.392 0.392 0.391 0.392 0.392 0.391 0.392 0.392 0.391 0.392 0.392 0.391 0.392 0.392 0.391 0.392 0.392 0.391 0.392 0.392 0.391 0.392 0.392 0.391 0.392 0.392 0.391 0.392 0.392 0.391 0.392 0.392 0.391 0.392 0.392 0.391 0.392 0.392 0.391 0.392 0.392 0.391 0.392 0.392 0.391 0.392 0.392 0.391 0.392 0.392 0.391 0.392 0.392 0.391 0.392 0.392 0.391 0.392 0.392 0.391 0.392 0.392 0.391 0.392 0.392 0.391 0.392 0.392 0.391 0.392 0.392 0.391 0.392 0.392 0.391 0.392 0.392 0.391 0.392 0.392 0.391 0.392 0.392 0.391 0.392 0.392 0.391 0.392 0.392 0.391 0.392 0.392 0.391 0.392 0.392 0.391 0.392 0.392 0.391 0.392 0.392 0.391 0.392 0.392 0.391 0.392 0.392 0.391 0.392 0.392 0.391 0.392 0.392 0.391 0.392 0.392 0.391 0.392 0.392 0.391 0.392 0.392 0.391 0.392 0.392 0.391 0.392 0.392 0.391 0.392 0.392 0.391 0.392 0.392 0.391 0.392 0.392 0.391 0.392 0.392 0.391 0.392 0.392 0.391 0.392 0.392 0.391 0.392 0.392 0.391 0.392 0.392 0.391 0.392 0.392 0.391"
     inkscape:connector-curvature="0"
     style="fill:none;stroke:#ff0000;stroke-width:5" />
  <path
     id="path35"
     d="m 10.949,272.58114 h 0.392 0.392 0.391 0.392 0.392 0.391 0.392 0.392 0.391 0.392 0.392 0.391 0.392 0.392 0.391 0.392 0.392 0.391 0.392 0.392 0.391 0.392 0.392 0.391 0.392 0.392 0.391 0.392 0.392 0.391 0.392 0.392 0.391 0.392 0.392 0.391 0.392 0.392 0.391 0.392 0.392 0.391 0.392 0.392 0.391 0.392 0.392 0.391 0.392 0.392 0.391 0.392 0.392 0.391 0.392 0.392 0.391 0.392 0.392 0.391 0.392 0.392 0.391 0.392 0.392 0.391 0.392 0.392 0.391 0.392 0.392 0.391 0.392 0.392 0.391 0.392 0.392 0.391 0.392 0.392 0.391 0.392 0.392 0.391 0.392 0.392 0.391 0.392 0.392 0.391 0.392 0.392 0.391 0.392 0.392 0.391 0.392 0.392 0.391 0.392 0.392 0.391 0.392 0.392 0.391 0.392 0.392 0.391 0.392 0.392 0.391 0.392 0.392 0.391 0.392 0.392 0.391 0.392 0.392 0.391 0.392 0.392 0.391 0.392 0.392 0.391 0.392 0.392 0.391 0.392 0.392 0.391 0.392 0.392 0.391 0.392 0.392 0.391 0.392 0.392 0.391 0.392 0.392 0.391 0.392 0.392 0.391 0.392 0.392 0.391 0.392 0.392 0.391 0.392 0.392 0.391 0.392 0.392 0.391 0.392 0.392 0.391 0.392 0.392 0.391 0.392 0.392 0.391 0.392 0.392 0.391 0.392 0.392 0.391 0.392 0.392 0.391 0.392 0.392 0.391 0.392 0.392 0.391 0.392 0.392 0.391 0.392 0.392 0.391 0.392 0.392 0.391 0.392 0.392 0.391 0.392 0.392 0.391 0.392 0.392 0.391 0.392 0.392 0.391 0.392 0.392 0.391 0.392 0.392 0.391 0.392 0.392 0.391 0.392 0.392 0.391 0.392 0.392 0.391 0.392 0.392 0.391 0.392 0.392 0.391 0.392 0.392 0.391 0.392 0.392 0.391 0.392 0.392 0.391 0.392 0.392 0.391 0.392 0.392 0.391 0.392 0.392 0.391 0.392 0.392 0.391 0.392 0.392 0.391 0.392 0.392 0.391 0.392 0.392 0.391 0.392 0.392 0.391 0.392 0.392 0.391 0.392 0.392 0.391 0.392 0.392 0.391 0.392 0.392 0.391 0.392 0.392 0.391 0.392 0.392 0.391 0.392 0.392 0.391 0.392 0.392 0.391 0.392 0.392 0.391 0.392 0.392 0.391 0.392 0.392 0.391 0.392 0.392 0.391 0.392 0.392 0.391 0.392 0.392 0.391 0.392 0.392 0.391 0.392 0.392 0.391 0.392 0.392 0.391 0.392 0.392 0.391 0.392 0.392 0.391 0.392 0.392 0.391 0.392 0.392 0.391 0.392 0.392 0.391 0.392 0.392 0.391 0.392 0.392 0.391 0.392 0.392 0.391 0.392 0.392 0.391 0.392 0.392 0.391 0.392 0.392 0.391 0.392 0.392 0.391 0.392 0.392 0.391 0.392 0.392 0.391 0.392 0.392 0.391 0.392 0.392 0.391 0.392 0.392 0.391 0.392 0.392 0.391 0.392 0.392 0.391 0.392 0.392 0.391 0.392 0.392 0.391 0.392 0.392 0.391 0.392 0.392 0.391 0.392 0.392 0.391 0.392 0.392 0.391 0.392 0.392 0.391 0.392 0.392 0.391 0.392 0.392 0.391 0.392 0.392 0.391 0.392 0.392 0.391 0.392 0.392 0.391 0.392 0.392 0.391 0.392 0.392 0.391 0.392 0.392 0.391 0.392 0.392 0.391 0.392 0.392 0.391 0.392 0.392 0.391 0.392 0.392 0.391 0.392 0.392 0.391 0.392 0.392 0.391 0.392 0.392 0.391 0.392 0.392 0.391 0.392 0.392 0.391 0.392 0.392 0.391 0.392 0.392 0.391 0.392 0.392 0.391 0.392 0.392 0.391 0.392 0.392 0.391 0.392 0.392 0.391 0.392 0.392 0.391 0.392 0.392 0.391 0.392 0.392 0.391 0.392 0.392 0.391 0.392 0.392 0.391 0.392 0.392 0.391 0.392 0.392 0.391 0.392 0.392 0.391 0.392 0.392 0.391 0.392 0.392 0.391 0.392 0.392 0.391 0.392 0.392 0.391 0.392 0.392 0.391 0.392 0.392 0.391 0.392 0.392 0.391 0.392 0.392 0.391 0.392 0.392 0.391 0.392 0.392 0.391 0.392 0.392 0.391 0.392 0.392 0.391 0.392 0.392 0.391 0.392 0.392 0.391 0.392 0.392 0.391 0.392 0.392 0.391 0.392 0.392 0.391 0.392 0.392 0.391 0.392 0.392 0.391 0.392 0.392 0.391 0.392 0.392 0.391 0.392 0.392 0.391 0.392 0.392 0.391 0.392 0.392 0.391 0.392 0.392 0.391 0.392 0.392 0.391 0.392 0.392 0.391 0.392 0.392 0.391 0.392 0.392 0.391 0.392 0.392 0.391 0.392 0.392 0.391 0.392 0.392 0.391 0.392 0.392 0.391 0.392 0.392 0.391 0.392 0.392 0.391 0.392 0.392 0.391 0.392 0.392 0.391 0.392 0.392 0.391 0.392 0.392 0.391 0.392 0.392 0.391 0.392 0.392 0.391 0.392 0.392 0.391 0.392 0.392 0.391 0.392 0.392 0.391 0.392 0.392 0.391 0.392 0.392 0.391"
     inkscape:connector-curvature="0"
     style="fill:none;stroke:#ff0000;stroke-width:5" />
</svg>
