<?xml version="1.0" encoding="UTF-8" standalone="no"?>
<svg
   xmlns:dc="http://purl.org/dc/elements/1.1/"
   xmlns:cc="http://creativecommons.org/ns#"
   xmlns:rdf="http://www.w3.org/1999/02/22-rdf-syntax-ns#"
   xmlns:svg="http://www.w3.org/2000/svg"
   xmlns="http://www.w3.org/2000/svg"
   xmlns:sodipodi="http://sodipodi.sourceforge.net/DTD/sodipodi-0.dtd"
   xmlns:inkscape="http://www.inkscape.org/namespaces/inkscape"
   id="preview"
   width="547.40118"
   height="547.40222"
   viewBox="0 0 547.40118 547.40222"
   xunitlength="118"
   yunitlength="118"
   xmin="-2"
   xmax="2"
   ymin="-2"
   ymax="2"
   ox="276"
   oy="276"
   version="1.1"
   sodipodi:docname="ln(x).svg"
   inkscape:version="0.92.1 r15371">
  <metadata
     id="metadata42">
    <rdf:RDF>
      <cc:Work
         rdf:about="">
        <dc:format>image/svg+xml</dc:format>
        <dc:type
           rdf:resource="http://purl.org/dc/dcmitype/StillImage" />
      </cc:Work>
    </rdf:RDF>
  </metadata>
  <sodipodi:namedview
     pagecolor="#ffffff"
     bordercolor="#666666"
     borderopacity="1"
     objecttolerance="10"
     gridtolerance="10"
     guidetolerance="10"
     inkscape:pageopacity="0"
     inkscape:pageshadow="2"
     inkscape:window-width="640"
     inkscape:window-height="480"
     id="namedview40"
     showgrid="false"
     inkscape:zoom="0.39202658"
     inkscape:cx="254.06131"
     inkscape:cy="298.70007"
     inkscape:window-x="0"
     inkscape:window-y="0"
     inkscape:window-maximized="0"
     inkscape:current-layer="preview" />
  <defs
     id="defs6">
    <style
       type="text/css"
       id="style2">@import url(&quot;http://cdnjs.cloudflare.com/ajax/libs/KaTeX/0.2.0/katex.min.css&quot;)</style>
    <style
       type="text/css"
       id="style4"><![CDATA[text {font-family="KaTeX_Main,serif"}]]></style>
  </defs>
  <path
     d="m 23.253139,280.92614 -21.6720002,-7.224 21.6720002,-7.224 -3.612,7.224 z"
     id="path8"
     inkscape:connector-curvature="0"
     style="fill:#000000;stroke:#000000;stroke-width:1" />
  <path
     d="m 524.14914,266.47814 21.671,7.224 -21.671,7.224 3.612,-7.224 z"
     id="path10"
     inkscape:connector-curvature="0"
     style="fill:#000000;stroke:#000000;stroke-width:1" />
  <path
     d="m 266.47714,23.253139 7.224,-21.6720002 7.224,21.6720002 -7.224,-3.611 z"
     id="path12"
     inkscape:connector-curvature="0"
     style="fill:#000000;stroke:#000000;stroke-width:1" />
  <path
     d="m 280.92514,524.15014 -7.224,21.671 -7.224,-21.671 7.224,3.612 z"
     id="path14"
     inkscape:connector-curvature="0"
     style="fill:#000000;stroke:#000000;stroke-width:1" />
  <path
     d="M 19.641139,273.70214 H 527.76114 M 273.70114,19.642139 V 527.76214 m 0,-247.06 v -14 m 118,14 v -14 m 118,14 v -14 m -354,14 v -14 m -118.000001,14 v -14 m 243.000001,7 h -14 m 14,118 h -14 m 14,118 h -14 m 14,-354 h -14 m 14,-118.000001 h -14"
     id="path16"
     inkscape:connector-curvature="0"
     style="fill:none;stroke:#000000;stroke-width:2" />
  <text
     id="null"
     x="391.70114"
     y="303.70215"
     font-style=""
     font-size="28"
     font-weight="normal"
     style="font-weight:normal;font-size:28px;text-anchor:middle;fill:#000000;stroke-width:0px">1</text>
  <text
     id="text19"
     x="509.70114"
     y="303.70215"
     font-style=""
     font-size="28"
     font-weight="normal"
     style="font-weight:normal;font-size:28px;text-anchor:middle;fill:#000000;stroke-width:0px">2</text>
  <text
     id="text21"
     x="155.70114"
     y="303.70215"
     font-style=""
     font-size="28"
     font-weight="normal"
     style="font-weight:normal;font-size:28px;text-anchor:middle;fill:#000000;stroke-width:0px">-1</text>
  <text
     id="text23"
     x="37.701138"
     y="303.70215"
     font-style=""
     font-size="28"
     font-weight="normal"
     style="font-weight:normal;font-size:28px;text-anchor:middle;fill:#000000;stroke-width:0px">-2</text>
  <text
     id="text25"
     x="262.36713"
     y="165.03513"
     font-style=""
     font-size="28"
     font-weight="normal"
     style="font-weight:normal;font-size:28px;text-anchor:end;fill:#000000;stroke-width:0px">1</text>
  <text
     id="text27"
     x="262.36713"
     y="47.035137"
     font-style=""
     font-size="28"
     font-weight="normal"
     style="font-weight:normal;font-size:28px;text-anchor:end;fill:#000000;stroke-width:0px">2</text>
  <text
     id="text29"
     x="262.36713"
     y="401.03516"
     font-style=""
     font-size="28"
     font-weight="normal"
     style="font-weight:normal;font-size:28px;text-anchor:end;fill:#000000;stroke-width:0px">-1</text>
  <text
     id="text31"
     x="262.36713"
     y="519.03516"
     font-style=""
     font-size="28"
     font-weight="normal"
     style="font-weight:normal;font-size:28px;text-anchor:end;fill:#000000;stroke-width:0px">-2</text>
  <text
     id="text33"
     x="273.70114"
     y="-9.7518597"
     font-style="italic"
     font-size="28"
     font-weight="normal"
     style="font-style:italic;font-weight:normal;font-size:28px;text-anchor:middle;fill:#000000;stroke-width:0px" />
  <text
     id="text35"
     x="557.15411"
     y="283.03516"
     font-style="italic"
     font-size="28"
     font-weight="normal"
     style="font-style:italic;font-weight:normal;font-size:28px;text-anchor:start;fill:#000000;stroke-width:0px" />
  <path
     id="path37"
     d="m 287.86414,523.86214 1.57,-12.4 0.786,-5.757 0.787,-5.49 0.787,-5.245 0.786,-5.022 0.787,-4.817 0.787,-4.628 0.786,-4.454 0.787,-4.291 0.787,-4.141 0.786,-4 0.787,-3.87 0.787,-3.746 0.786,-3.631 0.787,-3.523 0.787,-3.42 0.786,-3.325 0.787,-3.233 0.787,-3.147 0.786,-3.065 0.787,-2.987 0.787,-2.914 0.786,-2.844 0.787,-2.776 0.787,-2.713 0.786,-2.652 0.787,-2.593 0.787,-2.538 0.786,-2.484 0.787,-2.433 0.787,-2.384 0.786,-2.337 0.787,-2.291 0.787,-2.248 0.786,-2.206 0.787,-2.165 0.787,-2.126 0.786,-2.089 0.787,-2.052 0.787,-2.017 0.786,-1.983 0.787,-1.951 0.787,-1.919 0.786,-1.888 0.787,-1.858 0.787,-1.83 0.786,-1.801 0.787,-1.775 0.787,-1.748 0.786,-1.722 0.787,-1.698 0.787,-1.674 0.786,-1.65 0.787,-1.628 0.787,-1.606 0.786,-1.584 0.787,-1.562 0.787,-1.543 0.786,-1.523 0.787,-1.503 0.787,-1.484 0.786,-1.466 0.787,-1.448 0.787,-1.43 0.786,-1.413 0.787,-1.397 0.787,-1.38 0.786,-1.364 0.787,-1.349 0.787,-1.333 0.786,-1.319 0.787,-1.303 0.787,-1.29 0.786,-1.276 0.787,-1.262 0.787,-1.248 0.786,-1.236 0.787,-1.223 0.787,-1.21 0.786,-1.198 0.787,-1.186 0.787,-1.174 0.786,-1.163 0.787,-1.151 0.787,-1.14 0.786,-1.129 0.787,-1.119 0.786,-1.108 0.787,-1.098 0.787,-1.087 0.786,-1.078 0.787,-1.068 0.787,-1.058 0.786,-1.049 0.787,-1.04 0.787,-1.03 0.786,-1.022 0.787,-1.013 0.787,-1.004 0.786,-0.996 0.787,-0.987 0.787,-0.979 0.786,-0.972 0.787,-0.963 0.787,-0.955 0.786,-0.948 0.787,-0.94 0.787,-0.933 0.786,-0.926 0.787,-0.918 0.787,-0.911 0.786,-0.904 0.787,-0.898 0.787,-0.89 0.786,-0.884 0.787,-0.878 0.787,-0.87 0.786,-0.865 0.787,-0.858 0.787,-0.852 0.786,-0.846 0.787,-0.84 0.787,-0.834 0.786,-0.828 0.787,-0.822 0.787,-0.817 0.786,-0.811 0.787,-0.805 0.787,-0.8 0.786,-0.795 0.787,-0.789 0.787,-0.784 0.786,-0.779 0.787,-0.774 0.787,-0.769 0.786,-0.763 0.787,-0.759 0.787,-0.754 0.786,-0.749 0.787,-0.745 0.787,-0.74 0.786,-0.735 0.787,-0.731 0.787,-0.726 0.786,-0.721 0.787,-0.718 0.787,-0.713 0.786,-0.708 0.787,-0.705 0.787,-0.7 0.786,-0.696 0.787,-0.692 0.787,-0.689 0.786,-0.684 0.787,-0.68 0.787,-0.676 0.786,-0.672 0.787,-0.669 0.787,-0.665 0.786,-0.661 0.787,-0.657 0.787,-0.654 0.786,-0.65 0.787,-0.647 0.787,-0.643 0.786,-0.639 0.787,-0.636 0.787,-0.633 0.786,-0.629 0.787,-0.626 0.787,-0.623 0.786,-0.619 0.787,-0.617 0.787,-0.613 0.786,-0.609 0.787,-0.607 0.787,-0.604 0.786,-0.6 0.787,-0.598 0.787,-0.594 0.786,-0.592 0.787,-0.588 0.787,-0.586 0.786,-0.583 0.787,-0.579 0.787,-0.577 0.786,-0.575 0.787,-0.571 0.787,-0.569 0.786,-0.566 0.787,-0.563 0.787,-0.56 0.786,-0.558 0.787,-0.556 0.787,-0.552 0.786,-0.551 0.787,-0.547 0.787,-0.545 0.786,-0.543 0.787,-0.54 0.787,-0.537 0.786,-0.535 0.787,-0.533 0.787,-0.531 0.786,-0.527 0.787,-0.526 0.787,-0.523 0.786,-0.521 0.787,-0.519 0.787,-0.516 0.786,-0.515 0.787,-0.512 0.787,-0.509 0.786,-0.508 0.787,-0.505 0.787,-0.503 0.786,-0.501 0.787,-0.499 0.787,-0.497 0.786,-0.495 0.787,-0.493 0.787,-0.49 0.786,-0.489 0.787,-0.487 0.787,-0.484 0.786,-0.483 0.787,-0.48 0.787,-0.479 0.786,-0.477 0.787,-0.475 0.787,-0.473 0.786,-0.471 0.787,-0.469 0.787,-0.467 0.786,-0.466 0.787,-0.463 0.787,-0.462 0.786,-0.46 0.787,-0.459 0.787,-0.456 0.786,-0.455 0.787,-0.453 0.787,-0.451 0.786,-0.449 0.787,-0.448 0.787,-0.446 0.786,-0.445 0.787,-0.443 0.787,-0.441 0.786,-0.439 0.787,-0.438 0.787,-0.436 0.786,-0.435 0.787,-0.433 0.787,-0.431 0.786,-0.43 0.787,-0.429 0.787,-0.426 0.786,-0.426 0.787,-0.423 0.787,-0.422 0.786,-0.421 0.787,-0.419 0.787,-0.418 0.786,-0.416 0.787,-0.415 0.787,-0.413 0.786,-0.412 0.787,-0.411 0.787,-0.409 0.786,-0.407 0.787,-0.406 0.787,-0.405 0.786,-0.404 0.787,-0.402 0.787,-0.4 0.786,-0.4 0.787,-0.398 0.787,-0.396 0.786,-0.396 0.787,-0.394 0.787,-0.392 0.786,-0.392 0.787,-0.39 0.787,-0.389 0.786,-0.387 0.787,-0.386 0.787,-0.385 0.786,-0.384 0.787,-0.383 0.787,-0.381 0.786,-0.38 0.787,-0.379 0.787,-0.377 0.786,-0.377 0.787,-0.375 0.787,-0.374 0.786,-0.373 0.787,-0.371"
     inkscape:connector-curvature="0"
     style="fill:none;stroke:#ff0000;stroke-width:5" />
</svg>
