<?xml version="1.0" encoding="UTF-8" standalone="no"?>
<svg
   xmlns:dc="http://purl.org/dc/elements/1.1/"
   xmlns:cc="http://creativecommons.org/ns#"
   xmlns:rdf="http://www.w3.org/1999/02/22-rdf-syntax-ns#"
   xmlns:svg="http://www.w3.org/2000/svg"
   xmlns="http://www.w3.org/2000/svg"
   xmlns:sodipodi="http://sodipodi.sourceforge.net/DTD/sodipodi-0.dtd"
   xmlns:inkscape="http://www.inkscape.org/namespaces/inkscape"
   id="preview"
   width="545.16229"
   height="545.16229"
   viewBox="0 0 545.16229 545.16229"
   xunitlength="47"
   yunitlength="47"
   xmin="-5"
   xmax="5"
   ymin="-5"
   ymax="5"
   ox="275"
   oy="275"
   version="1.1"
   sodipodi:docname="sec(x).svg"
   inkscape:version="0.92.1 r15371">
  <metadata
     id="metadata74">
    <rdf:RDF>
      <cc:Work
         rdf:about="">
        <dc:format>image/svg+xml</dc:format>
        <dc:type
           rdf:resource="http://purl.org/dc/dcmitype/StillImage" />
      </cc:Work>
    </rdf:RDF>
  </metadata>
  <sodipodi:namedview
     pagecolor="#ffffff"
     bordercolor="#666666"
     borderopacity="1"
     objecttolerance="10"
     gridtolerance="10"
     guidetolerance="10"
     inkscape:pageopacity="0"
     inkscape:pageshadow="2"
     inkscape:window-width="640"
     inkscape:window-height="480"
     id="namedview72"
     showgrid="false"
     inkscape:zoom="0.39333333"
     inkscape:cx="253.08961"
     inkscape:cy="297.58114"
     inkscape:window-x="0"
     inkscape:window-y="0"
     inkscape:window-maximized="0"
     inkscape:current-layer="preview" />
  <defs
     id="defs6">
    <style
       type="text/css"
       id="style2">@import url(&quot;http://cdnjs.cloudflare.com/ajax/libs/KaTeX/0.2.0/katex.min.css&quot;)</style>
    <style
       type="text/css"
       id="style4"><![CDATA[text {font-family="KaTeX_Main,serif"}]]></style>
  </defs>
  <path
     d="m 23.181139,279.78114 -21.6000002,-7.2 21.6000002,-7.2 -3.6,7.2 z"
     id="path8"
     inkscape:connector-curvature="0"
     style="fill:#000000;stroke:#000000;stroke-width:1" />
  <path
     d="m 521.98114,265.38114 21.6,7.2 -21.6,7.2 3.6,-7.2 z"
     id="path10"
     inkscape:connector-curvature="0"
     style="fill:#000000;stroke:#000000;stroke-width:1" />
  <path
     d="m 265.38114,23.181139 7.2,-21.6000002 7.2,21.6000002 -7.2,-3.6 z"
     id="path12"
     inkscape:connector-curvature="0"
     style="fill:#000000;stroke:#000000;stroke-width:1" />
  <path
     d="m 279.78114,521.98114 -7.2,21.6 -7.2,-21.6 7.2,3.6 z"
     id="path14"
     inkscape:connector-curvature="0"
     style="fill:#000000;stroke:#000000;stroke-width:1" />
  <path
     d="M 19.581139,272.58114 H 525.58114 m -253,-253.000001 V 525.58114 m 0,-246 v -14 m 47,14 v -14 m 47,14 v -14 m 47,14 v -14 m 47,14 v -14 m 47,14 v -14 m -282,14 v -14 m -47,14 v -14 m -47,14 v -14 m -47.000001,14 v -14 m -47,14 v -14 m 242.000001,7 h -14 m 14,47 h -14 m 14,47 h -14 m 14,47 h -14 m 14,47 h -14 m 14,47 h -14 m 14,-282 h -14 m 14,-47 h -14 m 14,-47 h -14 m 14,-47.000001 h -14 m 14,-47 h -14"
     id="path16"
     inkscape:connector-curvature="0"
     style="fill:none;stroke:#000000;stroke-width:2" />
  <text
     id="null"
     x="319.58115"
     y="302.58115"
     font-style=""
     font-size="28"
     font-weight="normal"
     style="font-weight:normal;font-size:28px;text-anchor:middle;fill:#000000;stroke-width:0px">1</text>
  <text
     id="text19"
     x="366.58115"
     y="302.58115"
     font-style=""
     font-size="28"
     font-weight="normal"
     style="font-weight:normal;font-size:28px;text-anchor:middle;fill:#000000;stroke-width:0px">2</text>
  <text
     id="text21"
     x="413.58115"
     y="302.58115"
     font-style=""
     font-size="28"
     font-weight="normal"
     style="font-weight:normal;font-size:28px;text-anchor:middle;fill:#000000;stroke-width:0px">3</text>
  <text
     id="text23"
     x="460.58115"
     y="302.58115"
     font-style=""
     font-size="28"
     font-weight="normal"
     style="font-weight:normal;font-size:28px;text-anchor:middle;fill:#000000;stroke-width:0px">4</text>
  <text
     id="text25"
     x="507.58115"
     y="302.58115"
     font-style=""
     font-size="28"
     font-weight="normal"
     style="font-weight:normal;font-size:28px;text-anchor:middle;fill:#000000;stroke-width:0px">5</text>
  <text
     id="text27"
     x="225.58115"
     y="302.58115"
     font-style=""
     font-size="28"
     font-weight="normal"
     style="font-weight:normal;font-size:28px;text-anchor:middle;fill:#000000;stroke-width:0px">-1</text>
  <text
     id="text29"
     x="178.58115"
     y="302.58115"
     font-style=""
     font-size="28"
     font-weight="normal"
     style="font-weight:normal;font-size:28px;text-anchor:middle;fill:#000000;stroke-width:0px">-2</text>
  <text
     id="text31"
     x="131.58115"
     y="302.58115"
     font-style=""
     font-size="28"
     font-weight="normal"
     style="font-weight:normal;font-size:28px;text-anchor:middle;fill:#000000;stroke-width:0px">-3</text>
  <text
     id="text33"
     x="84.581139"
     y="302.58115"
     font-style=""
     font-size="28"
     font-weight="normal"
     style="font-weight:normal;font-size:28px;text-anchor:middle;fill:#000000;stroke-width:0px">-4</text>
  <text
     id="text35"
     x="37.581139"
     y="302.58115"
     font-style=""
     font-size="28"
     font-weight="normal"
     style="font-weight:normal;font-size:28px;text-anchor:middle;fill:#000000;stroke-width:0px">-5</text>
  <text
     id="text37"
     x="261.24713"
     y="234.91415"
     font-style=""
     font-size="28"
     font-weight="normal"
     style="font-weight:normal;font-size:28px;text-anchor:end;fill:#000000;stroke-width:0px">1</text>
  <text
     id="text39"
     x="261.24713"
     y="187.91414"
     font-style=""
     font-size="28"
     font-weight="normal"
     style="font-weight:normal;font-size:28px;text-anchor:end;fill:#000000;stroke-width:0px">2</text>
  <text
     id="text41"
     x="261.24713"
     y="140.91414"
     font-style=""
     font-size="28"
     font-weight="normal"
     style="font-weight:normal;font-size:28px;text-anchor:end;fill:#000000;stroke-width:0px">3</text>
  <text
     id="text43"
     x="261.24713"
     y="93.914131"
     font-style=""
     font-size="28"
     font-weight="normal"
     style="font-weight:normal;font-size:28px;text-anchor:end;fill:#000000;stroke-width:0px">4</text>
  <text
     id="text45"
     x="261.24713"
     y="46.914139"
     font-style=""
     font-size="28"
     font-weight="normal"
     style="font-weight:normal;font-size:28px;text-anchor:end;fill:#000000;stroke-width:0px">5</text>
  <text
     id="text47"
     x="261.24713"
     y="328.91415"
     font-style=""
     font-size="28"
     font-weight="normal"
     style="font-weight:normal;font-size:28px;text-anchor:end;fill:#000000;stroke-width:0px">-1</text>
  <text
     id="text49"
     x="261.24713"
     y="375.91415"
     font-style=""
     font-size="28"
     font-weight="normal"
     style="font-weight:normal;font-size:28px;text-anchor:end;fill:#000000;stroke-width:0px">-2</text>
  <text
     id="text51"
     x="261.24713"
     y="422.91415"
     font-style=""
     font-size="28"
     font-weight="normal"
     style="font-weight:normal;font-size:28px;text-anchor:end;fill:#000000;stroke-width:0px">-3</text>
  <text
     id="text53"
     x="261.24713"
     y="469.91415"
     font-style=""
     font-size="28"
     font-weight="normal"
     style="font-weight:normal;font-size:28px;text-anchor:end;fill:#000000;stroke-width:0px">-4</text>
  <text
     id="text55"
     x="261.24713"
     y="516.91412"
     font-style=""
     font-size="28"
     font-weight="normal"
     style="font-weight:normal;font-size:28px;text-anchor:end;fill:#000000;stroke-width:0px">-5</text>
  <text
     id="text57"
     x="272.58115"
     y="-9.752861"
     font-style="italic"
     font-size="28"
     font-weight="normal"
     style="font-style:italic;font-weight:normal;font-size:28px;text-anchor:middle;fill:#000000;stroke-width:0px" />
  <text
     id="text59"
     x="554.91412"
     y="281.91415"
     font-style="italic"
     font-size="28"
     font-weight="normal"
     style="font-style:italic;font-weight:normal;font-size:28px;text-anchor:start;fill:#000000;stroke-width:0px" />
  <path
     id="path61"
     d="m 23.481139,187.80014 0.783,-2.188 0.783,-2.329 0.783,-2.484 0.784,-2.653 0.783,-2.839 0.783,-3.043 0.784,-3.27 0.783,-3.521 0.783,-3.8 0.784,-4.113 0.783,-4.464 0.783,-4.861 0.784,-5.311 0.783,-5.824 0.783,-6.413 0.784,-7.094 0.783,-7.886 0.783,-8.816 0.784,-9.918001 0.783,-11.237 0.783,-12.831 0.784,-14.788 0.783,-17.223 0.672,-17.414"
     inkscape:connector-curvature="0"
     style="fill:none;stroke:#ff0000;stroke-width:5" />
  <path
     id="path63"
     d="m 60.035139,521.68114 1.045,-26.135 0.784,-15.969 0.783,-13.785 0.783,-12.016 0.784,-10.564 0.783,-9.358 0.783,-8.344 0.784,-7.486 0.783,-6.749 0.783,-6.116 0.784,-5.566 0.783,-5.085 0.783,-4.662 0.784,-4.288 0.783,-3.956 0.783,-3.661 0.784,-3.395 0.783,-3.157 0.783,-2.941 0.784,-2.746 0.783,-2.569 0.783,-2.407 0.784,-2.259 0.783,-2.123 0.783,-1.999 0.784,-1.884 0.783,-1.778 0.783,-1.68 0.784,-1.589 0.783,-1.504 0.783,-1.425 0.784,-1.351 0.783,-1.283 0.783,-1.219 0.784,-1.158 0.783,-1.101 0.783,-1.048 0.784,-0.998 0.783,-0.95 0.783,-0.905 0.784,-0.863 0.783,-0.823 0.783,-0.785 0.784,-0.748 0.783,-0.714 0.783,-0.68 0.784,-0.65 0.783,-0.62 0.783,-0.59 0.784,-0.564 0.783001,-0.537 0.783,-0.512 0.784,-0.488 0.783,-0.464 0.783,-0.442 0.784,-0.421 0.783,-0.399 0.783,-0.38 0.784,-0.359 0.783,-0.341 0.783,-0.322 0.784,-0.305 0.783,-0.287 0.783,-0.27 0.784,-0.254 0.783,-0.237 0.783,-0.222 0.784,-0.207 0.783,-0.191 0.783,-0.177 0.784,-0.162 0.783,-0.148 0.783,-0.134 0.784,-0.119 0.783,-0.106 0.783,-0.093 0.784,-0.079 0.783,-0.066 0.783,-0.052 0.784,-0.04 0.783,-0.026 0.783,-0.013 h 0.784 l 0.783,0.013 0.783,0.026 0.784,0.039 0.783,0.053 0.783,0.065 0.784,0.079 0.783,0.093 0.783,0.106 0.784,0.119 0.783,0.134 0.783,0.148 0.784,0.161 0.783,0.177 0.783,0.191 0.784,0.207 0.783,0.221 0.783,0.238 0.784,0.253 0.783,0.271 0.783,0.287 0.784,0.304 0.783,0.322 0.783,0.341 0.784,0.359 0.783,0.379 0.783,0.399 0.784,0.421 0.783,0.441 0.783,0.465 0.784,0.487 0.783,0.512 0.783,0.537 0.784,0.563 0.783,0.591 0.783,0.619 0.784,0.649 0.783,0.681 0.783,0.714 0.784,0.747 0.783,0.785 0.783,0.822 0.784,0.863 0.783,0.905 0.783,0.949 0.784,0.998 0.783,1.047 0.783,1.101 0.784,1.157 0.783,1.218 0.783,1.283 0.784,1.351 0.783,1.424 0.783,1.503 0.784,1.588 0.783,1.679 0.783,1.777 0.784,1.883 0.783,1.998 0.783,2.122 0.784,2.258 0.783,2.406 0.783,2.567 0.784,2.744 0.783,2.939 0.783,3.155 0.784,3.393 0.783,3.658 0.783,3.954 0.784,4.285 0.783,4.658 0.783,5.08 0.784,5.561 0.783,6.111 0.783,6.744 0.784,7.477 0.783,8.337 0.783,9.347 0.784,10.553 0.783,12.001 0.783,13.767 0.784,15.947 0.783,18.683 0.269,7.609"
     inkscape:connector-curvature="0"
     style="fill:none;stroke:#ff0000;stroke-width:5" />
  <path
     id="path65"
     d="m 207.68314,23.480139 1.447,34.491 0.784,14.808 0.783,12.848 0.783,11.249 0.784,9.929001 0.783,8.826 0.783,7.894 0.784,7.1 0.783,6.419 0.783,5.829 0.784,5.315 0.783,4.865 0.783,4.468 0.784,4.116 0.783,3.803 0.783,3.523 0.784,3.272 0.783,3.045 0.783,2.841 0.784,2.654 0.783,2.486 0.783,2.331 0.784,2.189 0.783,2.059 0.783,1.94 0.784,1.829 0.783,1.728 0.783,1.633 0.784,1.545 0.783,1.464 0.783,1.387 0.784,1.317 0.783,1.249 0.783,1.188 0.784,1.129 0.783,1.074 0.783,1.022 0.784,0.974 0.783,0.927 0.783,0.884 0.784,0.842 0.783,0.803 0.783,0.766 0.784,0.731 0.783,0.697 0.783,0.665 0.784,0.634 0.783,0.605 0.783,0.577 0.784,0.55 0.783,0.524 0.783,0.5 0.784,0.476 0.783,0.453 0.783,0.431 0.784,0.41 0.783,0.389 0.783,0.369 0.784,0.35 0.783,0.332 0.783,0.313 0.784,0.296 0.783,0.278 0.783,0.262 0.784,0.246 0.783,0.229 0.783,0.214 0.784,0.199 0.783,0.184 0.783,0.17 0.784,0.154 0.783,0.141 0.783,0.127 0.784,0.113 0.783,0.099 0.783,0.085 0.784,0.073 0.783,0.059 0.783,0.046 0.784,0.032 0.783,0.02 0.783,0.006 0.784,-0.006 0.783,-0.02 0.783,-0.032 0.784,-0.046 0.783,-0.059 0.783,-0.072 0.784,-0.086 0.783,-0.099 0.783,-0.113 0.784,-0.127 0.783,-0.141 0.783,-0.154 0.784,-0.17 0.783,-0.184 0.783,-0.198 0.784,-0.215 0.783,-0.229 0.783,-0.246 0.784,-0.262 0.783,-0.278 0.783,-0.296 0.784,-0.313 0.783,-0.331 0.783,-0.35 0.784,-0.37 0.783,-0.389 0.783,-0.41 0.784,-0.431 0.783,-0.453 0.783,-0.476 0.784,-0.499 0.783,-0.525 0.783,-0.55 0.784,-0.577 0.783,-0.605 0.783,-0.634 0.784,-0.665 0.783,-0.697 0.783,-0.73 0.784,-0.766 0.783,-0.803 0.783,-0.843 0.784,-0.883 0.783,-0.928 0.783,-0.973 0.784,-1.022 0.783,-1.074 0.783,-1.129 0.784,-1.188 0.783,-1.25 0.783,-1.316 0.784,-1.387 0.783,-1.464 0.783,-1.545 0.784,-1.633 0.783,-1.727 0.783,-1.83 0.784,-1.94 0.783,-2.059 0.783,-2.189 0.784,-2.331 0.783,-2.485 0.783,-2.654 0.784,-2.841 0.783,-3.045 0.783,-3.272 0.784,-3.523 0.783,-3.803 0.783,-4.115 0.784,-4.468 0.783,-4.865 0.783,-5.314 0.784,-5.829 0.783,-6.418 0.783,-7.1 0.784,-7.894 0.783,-8.825 0.783,-9.928001 0.784,-11.248 0.783,-12.847 0.783,-14.806 0.784,-17.247 0.664,-17.255"
     inkscape:connector-curvature="0"
     style="fill:none;stroke:#ff0000;stroke-width:5" />
  <path
     id="path67"
     d="m 355.34514,521.68114 1.052,-26.282 0.783,-15.948 0.783,-13.768 0.784,-12.002 0.783,-10.553 0.783,-9.349 0.784,-8.337 0.783,-7.478 0.783,-6.744 0.784,-6.111 0.783,-5.561 0.783,-5.081 0.784,-4.659 0.783,-4.285 0.783,-3.954 0.784,-3.658 0.783,-3.393 0.783,-3.155 0.784,-2.939 0.783,-2.745 0.783,-2.567 0.784,-2.406 0.783,-2.257 0.783,-2.123 0.784,-1.998 0.783,-1.883 0.783,-1.777 0.784,-1.679 0.783,-1.588 0.783,-1.503 0.784,-1.425 0.783,-1.351 0.783,-1.282 0.784,-1.218 0.783,-1.157 0.783,-1.101 0.784,-1.048 0.783,-0.997 0.783,-0.95 0.784,-0.905 0.783,-0.862 0.783,-0.823 0.784,-0.784 0.783,-0.748 0.783,-0.713 0.784,-0.681 0.783,-0.649 0.783,-0.62 0.784,-0.59 0.783,-0.564 0.783,-0.537 0.784,-0.511 0.783,-0.488 0.783,-0.464 0.784,-0.442 0.783,-0.42 0.783,-0.4 0.784,-0.379 0.783,-0.359 0.783,-0.341 0.784,-0.322 0.783,-0.304 0.783,-0.287 0.784,-0.27 0.783,-0.254 0.783,-0.237 0.784,-0.222 0.783,-0.207 0.783,-0.191 0.784,-0.176 0.783,-0.162 0.783,-0.148 0.784,-0.134 0.783,-0.119 0.783,-0.106 0.784,-0.093 0.783,-0.079 0.783,-0.065 0.784,-0.053 0.783,-0.039 0.783,-0.026 0.784,-0.013 h 0.783 l 0.783,0.013 0.784,0.026 0.783,0.04 0.783,0.052 0.784,0.066 0.783,0.079 0.783,0.092 0.784,0.107 0.783,0.119 0.783,0.134 0.784,0.148 0.783,0.162 0.783,0.177 0.784,0.191 0.783,0.206 0.783,0.222 0.784,0.238 0.783,0.254 0.783,0.27 0.784,0.287 0.783,0.305 0.783,0.322 0.784,0.341 0.783,0.359 0.783,0.379 0.784,0.4 0.783,0.42 0.783,0.442 0.784,0.465 0.783,0.487 0.783,0.512 0.784,0.538 0.783,0.563 0.783,0.591 0.784,0.62 0.783,0.649 0.783,0.681 0.784,0.714 0.783,0.748 0.783,0.784 0.784,0.823 0.783,0.863 0.783,0.905 0.784,0.951 0.783,0.997 0.783,1.048 0.784,1.102 0.783,1.158 0.783,1.218 0.784,1.283 0.783,1.351 0.783,1.425 0.784,1.504 0.783,1.589 0.783,1.68 0.784,1.778 0.783,1.884 0.783,1.998 0.784,2.124 0.783,2.259 0.783,2.407 0.784,2.568 0.783,2.746 0.783,2.941 0.784,3.157 0.783,3.395 0.783,3.66 0.784,3.957 0.783,4.288 0.783,4.661 0.784,5.085 0.783,5.565 0.783,6.115 0.784,6.75 0.783,7.485 0.783,8.344 0.784,9.357 0.783,10.563 0.783,12.015 0.784,13.783 0.783,15.968 0.783,18.71 0.263,7.436"
     inkscape:connector-curvature="0"
     style="fill:none;stroke:#ff0000;stroke-width:5" />
  <path
     id="path69"
     d="m 502.99214,23.480139 1.455,34.627 0.783,14.789 0.783,12.833 0.784,11.237 0.783,9.919001 0.783,8.817 0.784,7.886 0.783,7.095 0.783,6.413 0.784,5.824 0.783,5.311 0.783,4.862 0.784,4.464 0.783,4.114 0.783,3.8 0.784,3.521 0.783,3.27 0.783,3.043 0.784,2.839 0.783,2.653 0.783,2.484 0.784,2.33 0.783,2.188"
     inkscape:connector-curvature="0"
     style="fill:none;stroke:#ff0000;stroke-width:5" />
</svg>
