<?xml version="1.0" encoding="UTF-8" standalone="no"?>
<svg
   xmlns:dc="http://purl.org/dc/elements/1.1/"
   xmlns:cc="http://creativecommons.org/ns#"
   xmlns:rdf="http://www.w3.org/1999/02/22-rdf-syntax-ns#"
   xmlns:svg="http://www.w3.org/2000/svg"
   xmlns="http://www.w3.org/2000/svg"
   xmlns:sodipodi="http://sodipodi.sourceforge.net/DTD/sodipodi-0.dtd"
   xmlns:inkscape="http://www.inkscape.org/namespaces/inkscape"
   id="preview"
   width="545.16229"
   height="575.16229"
   viewBox="0 0 545.16229 575.16229"
   xunitlength="47"
   yunitlength="5"
   xmin="-5"
   xmax="5"
   ymin="-50"
   ymax="50"
   ox="275"
   oy="290"
   version="1.1"
   sodipodi:docname="(x+3)(x - 2)^2(x + 1)^3.svg"
   inkscape:version="0.92.1 r15371">
  <metadata
     id="metadata66">
    <rdf:RDF>
      <cc:Work
         rdf:about="">
        <dc:format>image/svg+xml</dc:format>
        <dc:type
           rdf:resource="http://purl.org/dc/dcmitype/StillImage" />
      </cc:Work>
    </rdf:RDF>
  </metadata>
  <sodipodi:namedview
     pagecolor="#ffffff"
     bordercolor="#666666"
     borderopacity="1"
     objecttolerance="10"
     gridtolerance="10"
     guidetolerance="10"
     inkscape:pageopacity="0"
     inkscape:pageshadow="2"
     inkscape:window-width="640"
     inkscape:window-height="480"
     id="namedview64"
     showgrid="false"
     inkscape:zoom="0.37460317"
     inkscape:cx="250.86504"
     inkscape:cy="312.58114"
     inkscape:window-x="0"
     inkscape:window-y="0"
     inkscape:window-maximized="0"
     inkscape:current-layer="preview" />
  <defs
     id="defs6">
    <style
       type="text/css"
       id="style2">@import url(&quot;http://cdnjs.cloudflare.com/ajax/libs/KaTeX/0.2.0/katex.min.css&quot;)</style>
    <style
       type="text/css"
       id="style4"><![CDATA[text {font-family="KaTeX_Main,serif"}]]></style>
  </defs>
  <path
     d="m 23.181139,294.78114 -21.6000002,-7.2 21.6000002,-7.2 -3.6,7.2 z"
     id="path8"
     inkscape:connector-curvature="0"
     style="fill:#000000;stroke:#000000;stroke-width:1" />
  <path
     d="m 521.98114,280.38114 21.6,7.2 -21.6,7.2 3.6,-7.2 z"
     id="path10"
     inkscape:connector-curvature="0"
     style="fill:#000000;stroke:#000000;stroke-width:1" />
  <path
     d="m 265.38114,23.181139 7.2,-21.6000002 7.2,21.6000002 -7.2,-3.6 z"
     id="path12"
     inkscape:connector-curvature="0"
     style="fill:#000000;stroke:#000000;stroke-width:1" />
  <path
     d="m 279.78114,551.98114 -7.2,21.6 -7.2,-21.6 7.2,3.6 z"
     id="path14"
     inkscape:connector-curvature="0"
     style="fill:#000000;stroke:#000000;stroke-width:1" />
  <path
     d="M 19.581139,287.58114 H 525.58114 m -253,-268.000001 V 555.58114 m 0,-261 v -14 m 47,14 v -14 m 47,14 v -14 m 47,14 v -14 m 47,14 v -14 m 47,14 v -14 m -282,14 v -14 m -47,14 v -14 m -47,14 v -14 m -47.000001,14 v -14 m -47,14 v -14 m 242.000001,7 h -14 m 14,50 h -14 m 14,50 h -14 m 14,50 h -14 m 14,50 h -14 m 14,50 h -14 m 14,-300 h -14 m 14,-50 h -14 m 14,-50 h -14 m 14,-50.000001 h -14 m 14,-50 h -14"
     id="path16"
     inkscape:connector-curvature="0"
     style="fill:none;stroke:#000000;stroke-width:2" />
  <text
     id="null"
     x="319.58115"
     y="317.58115"
     font-style=""
     font-size="28"
     font-weight="normal"
     style="font-weight:normal;font-size:28px;text-anchor:middle;fill:#000000;stroke-width:0px">1</text>
  <text
     id="text19"
     x="366.58115"
     y="317.58115"
     font-style=""
     font-size="28"
     font-weight="normal"
     style="font-weight:normal;font-size:28px;text-anchor:middle;fill:#000000;stroke-width:0px">2</text>
  <text
     id="text21"
     x="413.58115"
     y="317.58115"
     font-style=""
     font-size="28"
     font-weight="normal"
     style="font-weight:normal;font-size:28px;text-anchor:middle;fill:#000000;stroke-width:0px">3</text>
  <text
     id="text23"
     x="460.58115"
     y="317.58115"
     font-style=""
     font-size="28"
     font-weight="normal"
     style="font-weight:normal;font-size:28px;text-anchor:middle;fill:#000000;stroke-width:0px">4</text>
  <text
     id="text25"
     x="507.58115"
     y="317.58115"
     font-style=""
     font-size="28"
     font-weight="normal"
     style="font-weight:normal;font-size:28px;text-anchor:middle;fill:#000000;stroke-width:0px">5</text>
  <text
     id="text27"
     x="225.58115"
     y="317.58115"
     font-style=""
     font-size="28"
     font-weight="normal"
     style="font-weight:normal;font-size:28px;text-anchor:middle;fill:#000000;stroke-width:0px">-1</text>
  <text
     id="text29"
     x="178.58115"
     y="317.58115"
     font-style=""
     font-size="28"
     font-weight="normal"
     style="font-weight:normal;font-size:28px;text-anchor:middle;fill:#000000;stroke-width:0px">-2</text>
  <text
     id="text31"
     x="131.58115"
     y="317.58115"
     font-style=""
     font-size="28"
     font-weight="normal"
     style="font-weight:normal;font-size:28px;text-anchor:middle;fill:#000000;stroke-width:0px">-3</text>
  <text
     id="text33"
     x="84.581139"
     y="317.58115"
     font-style=""
     font-size="28"
     font-weight="normal"
     style="font-weight:normal;font-size:28px;text-anchor:middle;fill:#000000;stroke-width:0px">-4</text>
  <text
     id="text35"
     x="37.581139"
     y="317.58115"
     font-style=""
     font-size="28"
     font-weight="normal"
     style="font-weight:normal;font-size:28px;text-anchor:middle;fill:#000000;stroke-width:0px">-5</text>
  <text
     id="text37"
     x="261.24713"
     y="246.91415"
     font-style=""
     font-size="28"
     font-weight="normal"
     style="font-weight:normal;font-size:28px;text-anchor:end;fill:#000000;stroke-width:0px">10</text>
  <text
     id="text39"
     x="261.24713"
     y="196.91414"
     font-style=""
     font-size="28"
     font-weight="normal"
     style="font-weight:normal;font-size:28px;text-anchor:end;fill:#000000;stroke-width:0px">20</text>
  <text
     id="text41"
     x="261.24713"
     y="146.91414"
     font-style=""
     font-size="28"
     font-weight="normal"
     style="font-weight:normal;font-size:28px;text-anchor:end;fill:#000000;stroke-width:0px">30</text>
  <text
     id="text43"
     x="261.24713"
     y="96.914131"
     font-style=""
     font-size="28"
     font-weight="normal"
     style="font-weight:normal;font-size:28px;text-anchor:end;fill:#000000;stroke-width:0px">40</text>
  <text
     id="text45"
     x="261.24713"
     y="46.914139"
     font-style=""
     font-size="28"
     font-weight="normal"
     style="font-weight:normal;font-size:28px;text-anchor:end;fill:#000000;stroke-width:0px">50</text>
  <text
     id="text47"
     x="261.24713"
     y="346.91415"
     font-style=""
     font-size="28"
     font-weight="normal"
     style="font-weight:normal;font-size:28px;text-anchor:end;fill:#000000;stroke-width:0px">-10</text>
  <text
     id="text49"
     x="261.24713"
     y="396.91415"
     font-style=""
     font-size="28"
     font-weight="normal"
     style="font-weight:normal;font-size:28px;text-anchor:end;fill:#000000;stroke-width:0px">-20</text>
  <text
     id="text51"
     x="261.24713"
     y="446.91415"
     font-style=""
     font-size="28"
     font-weight="normal"
     style="font-weight:normal;font-size:28px;text-anchor:end;fill:#000000;stroke-width:0px">-30</text>
  <text
     id="text53"
     x="261.24713"
     y="496.91415"
     font-style=""
     font-size="28"
     font-weight="normal"
     style="font-weight:normal;font-size:28px;text-anchor:end;fill:#000000;stroke-width:0px">-40</text>
  <text
     id="text55"
     x="261.24713"
     y="546.91412"
     font-style=""
     font-size="28"
     font-weight="normal"
     style="font-weight:normal;font-size:28px;text-anchor:end;fill:#000000;stroke-width:0px">-50</text>
  <text
     id="text57"
     x="272.58115"
     y="-9.752861"
     font-style="italic"
     font-size="28"
     font-weight="normal"
     style="font-style:italic;font-weight:normal;font-size:28px;text-anchor:middle;fill:#000000;stroke-width:0px" />
  <text
     id="text59"
     x="554.91412"
     y="296.91415"
     font-style="italic"
     font-size="28"
     font-weight="normal"
     style="font-style:italic;font-weight:normal;font-size:28px;text-anchor:start;fill:#000000;stroke-width:0px" />
  <path
     id="path61"
     d="m 122.74914,22.581139 0.998,38.731 0.783,28.572 0.784,27.130001 0.783,25.737 0.783,24.387 0.784,23.084 0.783,21.823 0.783,20.606 0.784,19.43 0.783,18.296 0.783,17.201 0.784,16.146 0.783,15.128 0.783,14.147 0.784,13.204 0.783,12.296 0.783,11.422 0.784,10.583 0.783,9.776 0.783,9.001 0.784,8.258 0.783,7.546 0.783,6.864 0.784,6.21 0.783,5.585 0.783,4.987 0.784,4.416 0.783,3.872 0.783,3.353 0.784,2.859 0.783,2.388 0.783,1.94 0.784,1.517 0.783,1.114 0.783,0.733 0.784,0.373 0.783,0.033 0.783,-0.288 0.784,-0.59 0.783,-0.872 0.783,-1.139 0.784,-1.387 0.783,-1.619 0.783,-1.835 0.784,-2.035 0.783,-2.22 0.783,-2.392 0.784,-2.548 0.783,-2.692 0.783,-2.823 0.784,-2.94 0.783,-3.047 0.783,-3.142 0.784,-3.225 0.783,-3.299 0.783,-3.361 0.784,-3.415 0.783,-3.458 0.783,-3.493 0.784,-3.52 0.783,-3.538 0.783,-3.548 0.784,-3.552 0.783,-3.548 0.783,-3.538 0.784,-3.522 0.783,-3.498 0.783,-3.471 0.784,-3.437 0.783,-3.4 0.783,-3.356 0.784,-3.309 0.783,-3.258 0.783,-3.203 0.784,-3.144 0.783,-3.083 0.783,-3.018 0.784,-2.952 0.783,-2.881 0.783,-2.81 0.784,-2.737 0.783,-2.661 0.783,-2.584 0.784,-2.507 0.783,-2.427 0.783,-2.347 0.784,-2.267 0.783,-2.186 0.783,-2.104 0.784,-2.023 0.783,-1.942 0.783,-1.861 0.784,-1.78 0.783,-1.7 0.783,-1.621 0.784,-1.542 0.783,-1.464 0.783,-1.388 0.784,-1.312 0.783,-1.239 0.783,-1.166 0.784,-1.095 0.783,-1.025 0.783,-0.959 0.784,-0.892 0.783,-0.828 0.783,-0.767 0.784,-0.706 0.783,-0.649 0.783,-0.594 0.784,-0.54 0.783,-0.489 0.783,-0.441 0.784,-0.395 0.783,-0.351 0.783,-0.309 0.784,-0.271 0.783,-0.235 0.783,-0.201 0.784,-0.17 0.783,-0.142 0.783,-0.116 0.784,-0.092 0.783,-0.072 0.783,-0.054 0.784,-0.039 0.783,-0.026 0.783,-0.015 0.784,-0.008 0.783,-0.003 h 0.783 l 0.784,-0.001 0.783,-0.003 0.783,-0.008 0.784,-0.015 0.783,-0.025 0.783,-0.037 0.784,-0.051 0.783,-0.068 0.783,-0.087 0.784,-0.108 0.783,-0.131 0.783,-0.156 0.784,-0.184 0.783,-0.212 0.783,-0.244 0.784,-0.276 0.783,-0.311 0.783,-0.347 0.784,-0.385 0.783,-0.424 0.783,-0.465 0.784,-0.507 0.783,-0.551 0.783,-0.596 0.784,-0.642 0.783,-0.688 0.783,-0.737 0.784,-0.786 0.783,-0.835 0.783,-0.886 0.784,-0.937 0.783,-0.989 0.783,-1.041 0.784,-1.094 0.783,-1.147 0.783,-1.2 0.784,-1.254 0.783,-1.307 0.783,-1.36 0.784,-1.414 0.783,-1.467 0.783,-1.519 0.784,-1.572 0.783,-1.624 0.783,-1.675 0.784,-1.726 0.783,-1.776 0.783,-1.825 0.784,-1.873 0.783,-1.92 0.783,-1.967 0.784,-2.011 0.783,-2.055 0.783,-2.097 0.784,-2.138 0.783,-2.177 0.783,-2.215 0.784,-2.251 0.783,-2.285 0.783,-2.318 0.784,-2.348 0.783,-2.377 0.783,-2.403 0.784,-2.428 0.783,-2.45 0.783,-2.47 0.784,-2.487 0.783,-2.503 0.783,-2.515 0.784,-2.526 0.783,-2.534 0.783,-2.538 0.784,-2.541 0.783,-2.541 0.783,-2.537 0.784,-2.532 0.783,-2.522 0.783,-2.512 0.784,-2.496 0.783,-2.479 0.783,-2.458 0.784,-2.435 0.783,-2.408 0.783,-2.379 0.784,-2.345 0.783,-2.31 0.783,-2.27 0.784,-2.229 0.783,-2.183 0.783,-2.134 0.784,-2.083 0.783,-2.029 0.783,-1.971 0.784,-1.909 0.783,-1.846 0.783,-1.779 0.784,-1.708 0.783,-1.636 0.783,-1.56 0.784,-1.481 0.783,-1.399 0.783,-1.314 0.784,-1.227 0.783,-1.137 0.783,-1.044 0.784,-0.949 0.783,-0.851 0.783,-0.751 0.784,-0.648 0.783,-0.543 0.783,-0.437 0.784,-0.327 0.783,-0.216 0.783,-0.104 0.784,0.012 0.783,0.127 0.783,0.245 0.784,0.364 0.783,0.485 0.783,0.605 0.784,0.728 0.783,0.851 0.783,0.974 0.784,1.099 0.783,1.222 0.783,1.347 0.784,1.471 0.783,1.595 0.783,1.718 0.784,1.841 0.783,1.962 0.783,2.083 0.784,2.201 0.783,2.319 0.783,2.435 0.784,2.548 0.783,2.659 0.783,2.767 0.784,2.873 0.783,2.974 0.783,3.074 0.784,3.168 0.783,3.259 0.783,3.345 0.784,3.427 0.783,3.503 0.783,3.575 0.784,3.639 0.783,3.699 0.783,3.752 0.784,3.798 0.783,3.837 0.783,3.868 0.784,3.891 0.783,3.905 0.783,3.912 0.784,3.909 0.783,3.896 0.783,3.872 0.784,3.84 0.783,3.795 0.783,3.738 0.784,3.671 0.783,3.591 0.783,3.498 0.784,3.391 0.783,3.27 0.783,3.135 0.783,2.986 0.784,2.819 0.783,2.639 0.783,2.44 0.784,2.224 0.783,1.991 0.783,1.74 0.784,1.469 0.783,1.179 0.783,0.868 0.784,0.537 0.783,0.183 0.783,-0.191 0.784,-0.589 0.783,-1.01 0.783,-1.456 0.784,-1.926 0.783,-2.423 0.783,-2.945 0.784,-3.495 0.783,-4.071 0.783,-4.678 0.784,-5.313 0.783,-5.978 0.783,-6.675 0.784,-7.402 0.783,-8.163 0.783,-8.957 0.784,-9.785 0.783,-10.647 0.783,-11.547 0.784,-12.482 0.783,-13.455 0.783,-14.468 0.784,-15.518 0.783,-16.611 0.783,-17.743 0.784,-18.919001 0.783,-20.137 0.783,-21.4 0.587,-17.015"
     inkscape:connector-curvature="0"
     style="fill:none;stroke:#ff0000;stroke-width:5" />
</svg>
