<?xml version="1.0" encoding="UTF-8" standalone="no"?>
<svg
   xmlns:dc="http://purl.org/dc/elements/1.1/"
   xmlns:cc="http://creativecommons.org/ns#"
   xmlns:rdf="http://www.w3.org/1999/02/22-rdf-syntax-ns#"
   xmlns:svg="http://www.w3.org/2000/svg"
   xmlns="http://www.w3.org/2000/svg"
   xmlns:sodipodi="http://sodipodi.sourceforge.net/DTD/sodipodi-0.dtd"
   xmlns:inkscape="http://www.inkscape.org/namespaces/inkscape"
   id="preview"
   width="545.16229"
   height="545.16229"
   viewBox="0 0 545.16229 545.16229"
   xunitlength="47"
   yunitlength="47"
   xmin="-5"
   xmax="5"
   ymin="-5"
   ymax="5"
   ox="275"
   oy="275"
   version="1.1"
   sodipodi:docname="abs(x).svg"
   inkscape:version="0.92.1 r15371">
  <metadata
     id="metadata26">
    <rdf:RDF>
      <cc:Work
         rdf:about="">
        <dc:format>image/svg+xml</dc:format>
        <dc:type
           rdf:resource="http://purl.org/dc/dcmitype/StillImage" />
      </cc:Work>
    </rdf:RDF>
  </metadata>
  <sodipodi:namedview
     pagecolor="#ffffff"
     bordercolor="#666666"
     borderopacity="1"
     objecttolerance="10"
     gridtolerance="10"
     guidetolerance="10"
     inkscape:pageopacity="0"
     inkscape:pageshadow="2"
     inkscape:window-width="958"
     inkscape:window-height="1008"
     id="namedview24"
     showgrid="false"
     inkscape:zoom="0.39333333"
     inkscape:cx="297.58114"
     inkscape:cy="297.58114"
     inkscape:window-x="953"
     inkscape:window-y="0"
     inkscape:window-maximized="0"
     inkscape:current-layer="preview" />
  <defs
     id="defs6">
    <style
       type="text/css"
       id="style2">@import url(&quot;http://cdnjs.cloudflare.com/ajax/libs/KaTeX/0.2.0/katex.min.css&quot;)</style>
    <style
       type="text/css"
       id="style4"><![CDATA[text {font-family="KaTeX_Main,serif"}]]></style>
  </defs>
  <path
     d="m 23.181139,279.78114 -21.6000002,-7.2 21.6000002,-7.2 -3.6,7.2 z"
     id="path8"
     inkscape:connector-curvature="0"
     style="fill:#000000;stroke:#000000;stroke-width:1" />
  <path
     d="m 521.98114,265.38114 21.6,7.2 -21.6,7.2 3.6,-7.2 z"
     id="path10"
     inkscape:connector-curvature="0"
     style="fill:#000000;stroke:#000000;stroke-width:1" />
  <path
     d="m 265.38114,23.181139 7.2,-21.6000002 7.2,21.6000002 -7.2,-3.6 z"
     id="path12"
     inkscape:connector-curvature="0"
     style="fill:#000000;stroke:#000000;stroke-width:1" />
  <path
     d="m 279.78114,521.98114 -7.2,21.6 -7.2,-21.6 7.2,3.6 z"
     id="path14"
     inkscape:connector-curvature="0"
     style="fill:#000000;stroke:#000000;stroke-width:1" />
  <path
     d="M 19.581139,272.58114 H 525.58114 m -253,-253.000001 V 525.58114 m 0,-246 v -14 m 47,14 v -14 m 47,14 v -14 m 47,14 v -14 m 47,14 v -14 m 47,14 v -14 m -282,14 v -14 m -47,14 v -14 m -47,14 v -14 m -47.000001,14 v -14 m -47,14 v -14 m 242.000001,7 h -14 m 14,47 h -14 m 14,47 h -14 m 14,47 h -14 m 14,47 h -14 m 14,47 h -14 m 14,-282 h -14 m 14,-47 h -14 m 14,-47 h -14 m 14,-47.000001 h -14 m 14,-47 h -14"
     id="path16"
     inkscape:connector-curvature="0"
     style="fill:none;stroke:#000000;stroke-width:2" />
  <text
     id="null"
     x="272.58115"
     y="-9.752861"
     font-style="italic"
     font-size="28"
     font-weight="normal"
     style="font-style:italic;font-weight:normal;font-size:28px;text-anchor:middle;fill:#000000;stroke-width:0px" />
  <text
     id="text19"
     x="554.91412"
     y="281.91415"
     font-style="italic"
     font-size="28"
     font-weight="normal"
     style="font-style:italic;font-weight:normal;font-size:28px;text-anchor:start;fill:#000000;stroke-width:0px" />
  <path
     id="path21"
     d="m 23.481139,23.480139 0.783,0.784 0.783,0.783 0.783,0.783 0.784,0.784 0.783,0.783 0.783,0.783 0.784,0.784 0.783,0.783 0.783,0.783 0.784,0.784 0.783,0.783 0.783,0.783 0.784,0.784 0.783,0.783 0.783,0.783 0.784,0.784 0.783,0.783 0.783,0.783 0.784,0.784 0.783,0.783 0.783,0.783 0.784,0.784 0.783,0.783 0.783,0.783 0.784,0.784 0.783,0.783 0.783,0.783 0.784,0.784 0.783,0.783 0.783,0.783 0.784,0.784 0.783,0.783 0.783,0.783 0.784,0.784 0.783,0.783 0.783,0.783 0.784,0.784 0.783,0.783 0.783,0.783 0.784,0.784 0.783,0.783 0.783,0.783 0.784,0.784 0.783,0.783 0.783,0.783 0.784,0.784 0.783,0.783 0.783,0.783 0.784,0.784 0.783,0.783 0.783,0.783 0.784,0.784 0.783,0.783 0.783,0.783 0.784,0.784 0.783,0.783 0.783,0.783 0.784,0.784 0.783,0.783 0.783,0.783 0.784,0.784 0.783,0.783 0.783,0.783 0.784,0.784 0.783,0.783 0.783,0.783 0.784,0.784 0.783,0.783 0.783,0.783 0.784,0.784 0.783,0.783 0.783,0.783 0.784,0.784 0.783,0.783 0.783,0.783 0.784,0.784 0.783,0.783 0.783,0.783 0.784,0.784 0.783,0.783 0.783,0.783 0.784,0.784 0.783,0.783 0.783,0.783 0.784,0.784 0.783,0.783 0.783,0.783 0.784,0.784 0.783,0.783 0.783,0.783 0.784,0.784 0.783,0.783 0.783,0.783 0.784,0.784 0.783,0.783 0.783,0.783 0.784,0.784 0.783001,0.783001 0.783,0.783 0.784,0.784 0.783,0.783 0.783,0.783 0.784,0.784 0.783,0.783 0.783,0.783 0.784,0.784 0.783,0.783 0.783,0.783 0.784,0.784 0.783,0.783 0.783,0.783 0.784,0.784 0.783,0.783 0.783,0.783 0.784,0.784 0.783,0.783 0.783,0.783 0.784,0.784 0.783,0.783 0.783,0.783 0.784,0.784 0.783,0.783 0.783,0.783 0.784,0.784 0.783,0.783 0.783,0.783 0.784,0.784 0.783,0.783 0.783,0.783 0.784,0.784 0.783,0.783 0.783,0.783 0.784,0.784 0.783,0.783 0.783,0.783 0.784,0.784 0.783,0.783 0.783,0.783 0.784,0.784 0.783,0.783 0.783,0.783 0.784,0.784 0.783,0.783 0.783,0.783 0.784,0.784 0.783,0.783 0.783,0.783 0.784,0.784 0.783,0.783 0.783,0.783 0.784,0.784 0.783,0.783 0.783,0.783 0.784,0.784 0.783,0.783 0.783,0.783 0.784,0.784 0.783,0.783 0.783,0.783 0.784,0.784 0.783,0.783 0.783,0.783 0.784,0.784 0.783,0.783 0.783,0.783 0.784,0.784 0.783,0.783 0.783,0.783 0.784,0.784 0.783,0.783 0.783,0.783 0.784,0.784 0.783,0.783 0.783,0.783 0.784,0.784 0.783,0.783 0.783,0.783 0.784,0.784 0.783,0.783 0.783,0.783 0.784,0.784 0.783,0.783 0.783,0.783 0.784,0.784 0.783,0.783 0.783,0.783 0.784,0.784 0.783,0.783 0.783,0.783 0.784,0.784 0.783,0.783 0.783,0.783 0.784,0.784 0.783,0.783 0.783,0.783 0.784,0.784 0.783,0.783 0.783,0.783 0.784,0.784 0.783,0.783 0.783,0.783 0.784,0.784 0.783,0.783 0.783,0.783 0.784,0.784 0.783,0.783 0.783,0.783 0.784,0.784 0.783,0.783 0.783,0.783 0.784,0.784 0.783,0.783 0.783,0.783 0.784,0.784 0.783,0.783 0.783,0.783 0.784,0.784 0.783,0.783 0.783,0.783 0.784,0.784 0.783,0.783 0.783,0.783 0.784,0.784 0.783,0.783 0.783,0.783 0.784,0.784 0.783,0.783 0.783,0.783 0.784,0.784 0.783,0.783 0.783,0.783 0.784,0.784 0.783,0.783 0.783,0.783 0.784,0.784 0.783,0.783 0.783,0.783 0.784,0.784 0.783,0.783 0.783,0.783 0.784,0.784 0.783,0.783 0.783,0.783 0.784,0.784 0.783,0.783 0.783,0.783 0.784,0.784 0.783,0.783 0.783,0.783 0.784,0.784 0.783,0.783 0.783,0.783 0.784,0.784 0.783,0.783 0.783,0.783 0.784,0.784 0.783,0.783 0.783,0.783 0.784,0.784 0.783,0.783 0.783,0.783 0.784,0.784 0.783,0.783 0.783,0.783 0.784,0.784 0.783,0.783 0.783,0.783 0.784,0.784 0.783,0.783 0.783,0.783 0.784,0.784 0.783,0.783 0.783,0.783 0.784,0.784 0.783,0.783 0.783,0.783 0.784,0.784 0.783,0.783 0.783,0.783 0.784,0.784 0.783,0.783 0.783,0.783 0.784,0.784 0.783,0.783 0.783,0.783 0.784,0.784 0.783,0.783 0.783,0.783 0.784,0.784 0.783,0.783 0.783,0.783 0.784,0.784 0.783,0.783 0.783,0.783 0.784,0.784 0.783,0.783 0.783,0.783 0.784,0.784 0.783,0.783 0.783,0.783 0.784,0.784 0.783,0.783 0.783,0.783 0.784,0.784 0.783,0.783 0.783,0.783 0.784,0.784 0.783,0.783 0.783,0.783 0.784,0.784 0.783,0.783 0.783,0.783 0.784,0.784 0.783,0.783 0.783,0.783 0.784,0.784 0.783,0.783 0.783,0.783 0.784,-0.783 0.783,-0.783 0.783,-0.783 0.784,-0.784 0.783,-0.783 0.783,-0.783 0.784,-0.784 0.783,-0.783 0.783,-0.783 0.784,-0.784 0.783,-0.783 0.783,-0.783 0.784,-0.784 0.783,-0.783 0.783,-0.783 0.784,-0.784 0.783,-0.783 0.783,-0.783 0.784,-0.784 0.783,-0.783 0.783,-0.783 0.784,-0.784 0.783,-0.783 0.783,-0.783 0.784,-0.784 0.783,-0.783 0.783,-0.783 0.784,-0.784 0.783,-0.783 0.783,-0.783 0.784,-0.784 0.783,-0.783 0.783,-0.783 0.784,-0.784 0.783,-0.783 0.783,-0.783 0.784,-0.784 0.783,-0.783 0.783,-0.783 0.784,-0.784 0.783,-0.783 0.783,-0.783 0.784,-0.784 0.783,-0.783 0.783,-0.783 0.784,-0.784 0.783,-0.783 0.783,-0.783 0.784,-0.784 0.783,-0.783 0.783,-0.783 0.784,-0.784 0.783,-0.783 0.783,-0.783 0.784,-0.784 0.783,-0.783 0.783,-0.783 0.784,-0.784 0.783,-0.783 0.783,-0.783 0.784,-0.784 0.783,-0.783 0.783,-0.783 0.784,-0.784 0.783,-0.783 0.783,-0.783 0.784,-0.784 0.783,-0.783 0.783,-0.783 0.784,-0.784 0.783,-0.783 0.783,-0.783 0.784,-0.784 0.783,-0.783 0.783,-0.783 0.784,-0.784 0.783,-0.783 0.783,-0.783 0.784,-0.784 0.783,-0.783 0.783,-0.783 0.784,-0.784 0.783,-0.783 0.783,-0.783 0.784,-0.784 0.783,-0.783 0.783,-0.783 0.784,-0.784 0.783,-0.783 0.783,-0.783 0.784,-0.784 0.783,-0.783 0.783,-0.783 0.784,-0.784 0.783,-0.783 0.783,-0.783 0.784,-0.784 0.783,-0.783 0.783,-0.783 0.784,-0.784 0.783,-0.783 0.783,-0.783 0.784,-0.784 0.783,-0.783 0.783,-0.783 0.784,-0.784 0.783,-0.783 0.783,-0.783 0.783,-0.783 0.784,-0.784 0.783,-0.783 0.783,-0.783 0.784,-0.784 0.783,-0.783 0.783,-0.783 0.784,-0.784 0.783,-0.783 0.783,-0.783 0.784,-0.784 0.783,-0.783 0.783,-0.783 0.784,-0.784 0.783,-0.783 0.783,-0.783 0.784,-0.784 0.783,-0.783 0.783,-0.783 0.784,-0.784 0.783,-0.783 0.783,-0.783 0.784,-0.784 0.783,-0.783 0.783,-0.783 0.784,-0.784 0.783,-0.783 0.783,-0.783 0.784,-0.784 0.783,-0.783 0.783,-0.783 0.784,-0.784 0.783,-0.783 0.783,-0.783 0.784,-0.784 0.783,-0.783 0.783,-0.783 0.784,-0.784 0.783,-0.783 0.783,-0.783 0.784,-0.784 0.783,-0.783 0.783,-0.783 0.784,-0.784 0.783,-0.783 0.783,-0.783 0.784,-0.784 0.783,-0.783 0.783,-0.783 0.784,-0.784 0.783,-0.783 0.783,-0.783 0.784,-0.784 0.783,-0.783 0.783,-0.783 0.784,-0.784 0.783,-0.783 0.783,-0.783 0.784,-0.784 0.783,-0.783 0.783,-0.783 0.784,-0.784 0.783,-0.783 0.783,-0.783 0.784,-0.784 0.783,-0.783 0.783,-0.783 0.784,-0.784 0.783,-0.783 0.783,-0.783 0.784,-0.784 0.783,-0.783 0.783,-0.783 0.784,-0.784 0.783,-0.783 0.783,-0.783 0.784,-0.784 0.783,-0.783 0.783,-0.783 0.784,-0.784 0.783,-0.783 0.783,-0.783 0.784,-0.784 0.783,-0.783 0.783,-0.783 0.784,-0.784 0.783,-0.783 0.783,-0.783 0.784,-0.784 0.783,-0.783 0.783,-0.783 0.784,-0.784 0.783,-0.783 0.783,-0.783 0.784,-0.784 0.783,-0.783 0.783,-0.783 0.784,-0.784 0.783,-0.783 0.783,-0.783 0.784,-0.784 0.783,-0.783 0.783,-0.783 0.784,-0.784 0.783,-0.783 0.783,-0.783 0.784,-0.784 0.783,-0.783 0.783,-0.783 0.784,-0.784 0.783,-0.783 0.783,-0.783 0.784,-0.784001 0.783,-0.783 0.783,-0.783 0.784,-0.784 0.783,-0.783 0.783,-0.783 0.784,-0.784 0.783,-0.783 0.783,-0.783 0.784,-0.784 0.783,-0.783 0.783,-0.783 0.784,-0.784 0.783,-0.783 0.783,-0.783 0.784,-0.784 0.783,-0.783 0.783,-0.783 0.784,-0.784 0.783,-0.783 0.783,-0.783 0.784,-0.784 0.783,-0.783 0.783,-0.783 0.784,-0.784 0.783,-0.783 0.783,-0.783 0.784,-0.784 0.783,-0.783 0.783,-0.783 0.784,-0.784 0.783,-0.783 0.783,-0.783 0.784,-0.784 0.783,-0.783 0.783,-0.783 0.784,-0.784 0.783,-0.783 0.783,-0.783 0.784,-0.784 0.783,-0.783 0.783,-0.783 0.784,-0.784 0.783,-0.783 0.783,-0.783 0.784,-0.784 0.783,-0.783 0.783,-0.783 0.784,-0.784 0.783,-0.783 0.783,-0.783 0.784,-0.784 0.783,-0.783 0.783,-0.783 0.784,-0.784 0.783,-0.783 0.783,-0.783 0.784,-0.784 0.783,-0.783 0.783,-0.783 0.784,-0.784 0.783,-0.783 0.783,-0.783 0.784,-0.784 0.783,-0.783 0.783,-0.783 0.784,-0.784 0.783,-0.783 0.783,-0.783 0.784,-0.784 0.783,-0.783 0.783,-0.783 0.784,-0.784 0.783,-0.783 0.783,-0.783 0.784,-0.784 0.783,-0.783 0.783,-0.783 0.784,-0.784 0.783,-0.783 0.783,-0.783 0.784,-0.784 0.783,-0.783 0.783,-0.783 0.784,-0.784 0.783,-0.783 0.783,-0.783 0.784,-0.784 0.783,-0.783 0.783,-0.783 0.784,-0.784 0.783,-0.783 0.783,-0.783 0.784,-0.784 0.783,-0.783 0.783,-0.783 0.784,-0.784 0.783,-0.783"
     inkscape:connector-curvature="0"
     style="fill:none;stroke:#ff0000;stroke-width:5" />
</svg>
