<?xml version="1.0" encoding="utf-8"?><!DOCTYPE svg PUBLIC "-//W3C//DTD SVG 1.1//EN" "http://www.w3.org/Graphics/SVG/1.1/DTD/svg11.dtd"><svg xmlns="http://www.w3.org/2000/svg" xmlns:xlink="http://www.w3.org/1999/xlink" id="preview" width="600" height="600" viewBox="0 0 600 600" xunitlength="47" yunitlength="47" xmin="-5" xmax="5" ymin="-5" ymax="5" ox="275" oy="275"><defs><style type="text/css">@import url("http://cdnjs.cloudflare.com/ajax/libs/KaTeX/0.2.0/katex.min.css")</style><style type="text/css"><![CDATA[text {font-family="KaTeX_Main,serif"}]]></style></defs><path d="M 25.6 332.2 L 4 325 L 25.6 317.8 L 22 325 z" stroke-width="1" stroke="black" fill="black"></path><path d="M 524.4 317.8 L 546 325 L 524.4 332.2 L 528 325 z" stroke-width="1" stroke="black" fill="black"></path><path d="M 267.8 75.6 L 275 54 L 282.2 75.6 L 275 72 z" stroke-width="1" stroke="black" fill="black"></path><path d="M 282.2 574.4 L 275 596 L 267.8 574.4 L 275 578 z" stroke-width="1" stroke="black" fill="black"></path><path d="M22,325 528,325 M275,72 275,578 M275,332 275,318 M322,332 322,318 M369,332 369,318 M416,332 416,318 M463,332 463,318 M510,332 510,318 M228,332 228,318 M181,332 181,318 M134,332 134,318 M87,332 87,318 M40,332 40,318 M282,325 268,325 M282,372 268,372 M282,419 268,419 M282,466 268,466 M282,513 268,513 M282,560 268,560 M282,278 268,278 M282,231 268,231 M282,184 268,184 M282,137 268,137 M282,90 268,90" stroke-width="2" stroke="black" fill="none"></path><text id="null" x="322" y="355" font-style=""  font-size="28" font-weight="normal" text-anchor="middle" fill="black" stroke-width="0px">1</text><text id="null" x="369" y="355" font-style=""  font-size="28" font-weight="normal" text-anchor="middle" fill="black" stroke-width="0px">2</text><text id="null" x="416" y="355" font-style=""  font-size="28" font-weight="normal" text-anchor="middle" fill="black" stroke-width="0px">3</text><text id="null" x="463" y="355" font-style=""  font-size="28" font-weight="normal" text-anchor="middle" fill="black" stroke-width="0px">4</text><text id="null" x="510" y="355" font-style=""  font-size="28" font-weight="normal" text-anchor="middle" fill="black" stroke-width="0px">5</text><text id="null" x="228" y="355" font-style=""  font-size="28" font-weight="normal" text-anchor="middle" fill="black" stroke-width="0px">-1</text><text id="null" x="181" y="355" font-style=""  font-size="28" font-weight="normal" text-anchor="middle" fill="black" stroke-width="0px">-2</text><text id="null" x="134" y="355" font-style=""  font-size="28" font-weight="normal" text-anchor="middle" fill="black" stroke-width="0px">-3</text><text id="null" x="87" y="355" font-style=""  font-size="28" font-weight="normal" text-anchor="middle" fill="black" stroke-width="0px">-4</text><text id="null" x="40" y="355" font-style=""  font-size="28" font-weight="normal" text-anchor="middle" fill="black" stroke-width="0px">-5</text><text id="null" x="263.666" y="287.333" font-style=""  font-size="28" font-weight="normal" text-anchor="end" fill="black" stroke-width="0px">1</text><text id="null" x="263.666" y="240.333" font-style=""  font-size="28" font-weight="normal" text-anchor="end" fill="black" stroke-width="0px">2</text><text id="null" x="263.666" y="193.333" font-style=""  font-size="28" font-weight="normal" text-anchor="end" fill="black" stroke-width="0px">3</text><text id="null" x="263.666" y="146.333" font-style=""  font-size="28" font-weight="normal" text-anchor="end" fill="black" stroke-width="0px">4</text><text id="null" x="263.666" y="99.333" font-style=""  font-size="28" font-weight="normal" text-anchor="end" fill="black" stroke-width="0px">5</text><text id="null" x="263.666" y="381.333" font-style=""  font-size="28" font-weight="normal" text-anchor="end" fill="black" stroke-width="0px">-1</text><text id="null" x="263.666" y="428.333" font-style=""  font-size="28" font-weight="normal" text-anchor="end" fill="black" stroke-width="0px">-2</text><text id="null" x="263.666" y="475.333" font-style=""  font-size="28" font-weight="normal" text-anchor="end" fill="black" stroke-width="0px">-3</text><text id="null" x="263.666" y="522.333" font-style=""  font-size="28" font-weight="normal" text-anchor="end" fill="black" stroke-width="0px">-4</text><text id="null" x="263.666" y="569.333" font-style=""  font-size="28" font-weight="normal" text-anchor="end" fill="black" stroke-width="0px">-5</text><text id="null" x="275" y="42.666" font-style="italic"  font-size="28" font-weight="normal" text-anchor="middle" fill="black" stroke-width="0px"></text><text id="null" x="557.333" y="334.333" font-style="italic"  font-size="28" font-weight="normal" text-anchor="start" fill="black" stroke-width="0px"></text><path id="null" d="M322.783,316.432 323.566,312.899 324.349,310.199 325.133,307.932 325.916,305.943 326.699,304.152 327.483,302.512 328.266,300.991 329.049,299.568 329.833,298.228 330.616,296.958 331.399,295.749 332.183,294.594 332.966,293.486 333.749,292.422 334.533,291.396 335.316,290.406 336.099,289.448 336.883,288.519 337.666,287.618 338.449,286.742 339.233,285.890 340.016,285.060 340.799,284.250 341.583,283.460 342.366,282.689 343.149,281.934 343.933,281.196 344.716,280.474 345.499,279.766 346.283,279.072 347.066,278.392 347.849,277.724 348.633,277.069 349.416,276.425 350.199,275.792 350.983,275.170 351.766,274.559 352.549,273.957 353.333,273.365 354.116,272.782 354.899,272.208 355.683,271.642 356.466,271.085 357.249,270.536 358.033,269.994 358.816,269.460 359.599,268.933 360.382,268.413 361.166,267.900 361.949,267.393 362.732,266.893 363.516,266.399 364.299,265.912 365.082,265.430 365.866,264.953 366.649,264.483 367.432,264.017 368.216,263.557 368.999,263.103 369.782,262.653 370.566,262.208 371.349,261.768 372.132,261.333 372.916,260.902 373.699,260.475 374.482,260.053 375.266,259.635 376.049,259.222 376.832,258.812 377.616,258.407 378.399,258.005 379.182,257.607 379.966,257.213 380.749,256.823 381.532,256.436 382.316,256.052 383.099,255.673 383.882,255.296 384.666,254.923 385.449,254.553 386.232,254.186 387.016,253.822 387.799,253.462 388.582,253.104 389.366,252.750 390.149,252.398 390.932,252.049 391.716,251.703 392.499,251.360 393.282,251.020 394.066,250.682 394.849,250.346 395.632,250.014 396.416,249.684 397.199,249.356 397.982,249.031 398.766,248.708 399.549,248.388 400.332,248.070 401.116,247.754 401.899,247.441 402.682,247.129 403.466,246.820 404.249,246.513 405.032,246.209 405.816,245.906 406.599,245.606 407.382,245.307 408.166,245.011 408.949,244.716 409.732,244.424 410.516,244.133 411.299,243.844 412.082,243.557 412.866,243.272 413.649,242.989 414.432,242.708 415.216,242.428 415.999,242.151 416.782,241.874 417.566,241.600 418.349,241.327 419.132,241.056 419.916,240.787 420.699,240.519 421.482,240.253 422.266,239.988 423.049,239.725 423.832,239.464 424.616,239.204 425.399,238.946 426.182,238.689 426.966,238.433 427.749,238.179 428.532,237.926 429.316,237.675 430.099,237.425 430.882,237.177 431.666,236.930 432.449,236.684 433.232,236.440 434.016,236.197 434.799,235.955 435.582,235.715 436.366,235.476 437.149,235.238 437.932,235.001 438.716,234.766 439.499,234.532 440.282,234.299 441.066,234.067 441.849,233.837 442.632,233.607 443.416,233.379 444.199,233.152 444.982,232.926 445.766,232.701 446.549,232.477 447.332,232.255 448.116,232.033 448.899,231.813 449.682,231.593 450.466,231.375 451.249,231.158 452.032,230.942 452.816,230.727 453.599,230.512 454.382,230.299 455.166,230.087 455.949,229.876 456.732,229.666 457.516,229.456 458.299,229.248 459.082,229.041 459.866,228.834 460.649,228.629 461.432,228.424 462.216,228.221 462.999,228.018 463.782,227.816 464.566,227.615 465.349,227.415 466.132,227.216 466.916,227.018 467.699,226.820 468.482,226.624 469.266,226.428 470.049,226.233 470.832,226.039 471.616,225.846 472.399,225.653 473.182,225.462 473.966,225.271 474.749,225.081 475.532,224.892 476.316,224.703 477.099,224.516 477.882,224.329 478.666,224.142 479.449,223.957 480.232,223.772 481.016,223.588 481.799,223.405 482.582,223.223 483.366,223.041 484.149,222.860 484.932,222.680 485.716,222.500 486.499,222.321 487.282,222.143 488.066,221.966 488.849,221.789 489.632,221.613 490.416,221.437 491.199,221.262 491.982,221.088 492.766,220.915 493.549,220.742 494.332,220.570 495.116,220.398 495.899,220.227 496.682,220.057 497.466,219.888 498.249,219.719 499.032,219.550 499.816,219.382 500.599,219.215 501.382,219.049 502.166,218.883 502.949,218.717 503.732,218.553 504.516,218.388 505.299,218.225 506.082,218.062 506.866,217.899 507.649,217.738 508.432,217.576 509.216,217.415 509.999,217.255 510.782,217.096 511.566,216.937 512.349,216.778 513.132,216.620 513.916,216.463 514.699,216.306 515.482,216.149 516.266,215.994 517.049,215.838 517.832,215.683 518.616,215.529 519.399,215.375 520.182,215.222 520.966,215.069 521.749,214.917 522.532,214.765 523.316,214.614 524.099,214.463 " stroke-width="5" stroke="red" fill="none"></path></svg>