<?xml version="1.0" encoding="UTF-8" standalone="no"?>
<svg
   xmlns:dc="http://purl.org/dc/elements/1.1/"
   xmlns:cc="http://creativecommons.org/ns#"
   xmlns:rdf="http://www.w3.org/1999/02/22-rdf-syntax-ns#"
   xmlns:svg="http://www.w3.org/2000/svg"
   xmlns="http://www.w3.org/2000/svg"
   xmlns:sodipodi="http://sodipodi.sourceforge.net/DTD/sodipodi-0.dtd"
   xmlns:inkscape="http://www.inkscape.org/namespaces/inkscape"
   id="preview"
   width="545.16229"
   height="545.16229"
   viewBox="0 0 545.16229 545.16229"
   xunitlength="47"
   yunitlength="47"
   xmin="-5"
   xmax="5"
   ymin="-5"
   ymax="5"
   ox="275"
   oy="275"
   version="1.1"
   sodipodi:docname="cosh(x).svg"
   inkscape:version="0.92.1 r15371">
  <metadata
     id="metadata66">
    <rdf:RDF>
      <cc:Work
         rdf:about="">
        <dc:format>image/svg+xml</dc:format>
        <dc:type
           rdf:resource="http://purl.org/dc/dcmitype/StillImage" />
      </cc:Work>
    </rdf:RDF>
  </metadata>
  <sodipodi:namedview
     pagecolor="#ffffff"
     bordercolor="#666666"
     borderopacity="1"
     objecttolerance="10"
     gridtolerance="10"
     guidetolerance="10"
     inkscape:pageopacity="0"
     inkscape:pageshadow="2"
     inkscape:window-width="640"
     inkscape:window-height="480"
     id="namedview64"
     showgrid="false"
     inkscape:zoom="0.39333333"
     inkscape:cx="253.08961"
     inkscape:cy="297.58114"
     inkscape:window-x="0"
     inkscape:window-y="0"
     inkscape:window-maximized="0"
     inkscape:current-layer="preview" />
  <defs
     id="defs6">
    <style
       type="text/css"
       id="style2">@import url(&quot;http://cdnjs.cloudflare.com/ajax/libs/KaTeX/0.2.0/katex.min.css&quot;)</style>
    <style
       type="text/css"
       id="style4"><![CDATA[text {font-family="KaTeX_Main,serif"}]]></style>
  </defs>
  <path
     d="m 23.181139,279.78114 -21.6000002,-7.2 21.6000002,-7.2 -3.6,7.2 z"
     id="path8"
     inkscape:connector-curvature="0"
     style="fill:#000000;stroke:#000000;stroke-width:1" />
  <path
     d="m 521.98114,265.38114 21.6,7.2 -21.6,7.2 3.6,-7.2 z"
     id="path10"
     inkscape:connector-curvature="0"
     style="fill:#000000;stroke:#000000;stroke-width:1" />
  <path
     d="m 265.38114,23.181139 7.2,-21.6000002 7.2,21.6000002 -7.2,-3.6 z"
     id="path12"
     inkscape:connector-curvature="0"
     style="fill:#000000;stroke:#000000;stroke-width:1" />
  <path
     d="m 279.78114,521.98114 -7.2,21.6 -7.2,-21.6 7.2,3.6 z"
     id="path14"
     inkscape:connector-curvature="0"
     style="fill:#000000;stroke:#000000;stroke-width:1" />
  <path
     d="M 19.581139,272.58114 H 525.58114 m -253,-253.000001 V 525.58114 m 0,-246 v -14 m 47,14 v -14 m 47,14 v -14 m 47,14 v -14 m 47,14 v -14 m 47,14 v -14 m -282,14 v -14 m -47,14 v -14 m -47,14 v -14 m -47.000001,14 v -14 m -47,14 v -14 m 242.000001,7 h -14 m 14,47 h -14 m 14,47 h -14 m 14,47 h -14 m 14,47 h -14 m 14,47 h -14 m 14,-282 h -14 m 14,-47 h -14 m 14,-47 h -14 m 14,-47.000001 h -14 m 14,-47 h -14"
     id="path16"
     inkscape:connector-curvature="0"
     style="fill:none;stroke:#000000;stroke-width:2" />
  <text
     id="null"
     x="319.58115"
     y="302.58115"
     font-style=""
     font-size="28"
     font-weight="normal"
     style="font-weight:normal;font-size:28px;text-anchor:middle;fill:#000000;stroke-width:0px">1</text>
  <text
     id="text19"
     x="366.58115"
     y="302.58115"
     font-style=""
     font-size="28"
     font-weight="normal"
     style="font-weight:normal;font-size:28px;text-anchor:middle;fill:#000000;stroke-width:0px">2</text>
  <text
     id="text21"
     x="413.58115"
     y="302.58115"
     font-style=""
     font-size="28"
     font-weight="normal"
     style="font-weight:normal;font-size:28px;text-anchor:middle;fill:#000000;stroke-width:0px">3</text>
  <text
     id="text23"
     x="460.58115"
     y="302.58115"
     font-style=""
     font-size="28"
     font-weight="normal"
     style="font-weight:normal;font-size:28px;text-anchor:middle;fill:#000000;stroke-width:0px">4</text>
  <text
     id="text25"
     x="507.58115"
     y="302.58115"
     font-style=""
     font-size="28"
     font-weight="normal"
     style="font-weight:normal;font-size:28px;text-anchor:middle;fill:#000000;stroke-width:0px">5</text>
  <text
     id="text27"
     x="225.58115"
     y="302.58115"
     font-style=""
     font-size="28"
     font-weight="normal"
     style="font-weight:normal;font-size:28px;text-anchor:middle;fill:#000000;stroke-width:0px">-1</text>
  <text
     id="text29"
     x="178.58115"
     y="302.58115"
     font-style=""
     font-size="28"
     font-weight="normal"
     style="font-weight:normal;font-size:28px;text-anchor:middle;fill:#000000;stroke-width:0px">-2</text>
  <text
     id="text31"
     x="131.58115"
     y="302.58115"
     font-style=""
     font-size="28"
     font-weight="normal"
     style="font-weight:normal;font-size:28px;text-anchor:middle;fill:#000000;stroke-width:0px">-3</text>
  <text
     id="text33"
     x="84.581139"
     y="302.58115"
     font-style=""
     font-size="28"
     font-weight="normal"
     style="font-weight:normal;font-size:28px;text-anchor:middle;fill:#000000;stroke-width:0px">-4</text>
  <text
     id="text35"
     x="37.581139"
     y="302.58115"
     font-style=""
     font-size="28"
     font-weight="normal"
     style="font-weight:normal;font-size:28px;text-anchor:middle;fill:#000000;stroke-width:0px">-5</text>
  <text
     id="text37"
     x="261.24713"
     y="234.91415"
     font-style=""
     font-size="28"
     font-weight="normal"
     style="font-weight:normal;font-size:28px;text-anchor:end;fill:#000000;stroke-width:0px">1</text>
  <text
     id="text39"
     x="261.24713"
     y="187.91414"
     font-style=""
     font-size="28"
     font-weight="normal"
     style="font-weight:normal;font-size:28px;text-anchor:end;fill:#000000;stroke-width:0px">2</text>
  <text
     id="text41"
     x="261.24713"
     y="140.91414"
     font-style=""
     font-size="28"
     font-weight="normal"
     style="font-weight:normal;font-size:28px;text-anchor:end;fill:#000000;stroke-width:0px">3</text>
  <text
     id="text43"
     x="261.24713"
     y="93.914131"
     font-style=""
     font-size="28"
     font-weight="normal"
     style="font-weight:normal;font-size:28px;text-anchor:end;fill:#000000;stroke-width:0px">4</text>
  <text
     id="text45"
     x="261.24713"
     y="46.914139"
     font-style=""
     font-size="28"
     font-weight="normal"
     style="font-weight:normal;font-size:28px;text-anchor:end;fill:#000000;stroke-width:0px">5</text>
  <text
     id="text47"
     x="261.24713"
     y="328.91415"
     font-style=""
     font-size="28"
     font-weight="normal"
     style="font-weight:normal;font-size:28px;text-anchor:end;fill:#000000;stroke-width:0px">-1</text>
  <text
     id="text49"
     x="261.24713"
     y="375.91415"
     font-style=""
     font-size="28"
     font-weight="normal"
     style="font-weight:normal;font-size:28px;text-anchor:end;fill:#000000;stroke-width:0px">-2</text>
  <text
     id="text51"
     x="261.24713"
     y="422.91415"
     font-style=""
     font-size="28"
     font-weight="normal"
     style="font-weight:normal;font-size:28px;text-anchor:end;fill:#000000;stroke-width:0px">-3</text>
  <text
     id="text53"
     x="261.24713"
     y="469.91415"
     font-style=""
     font-size="28"
     font-weight="normal"
     style="font-weight:normal;font-size:28px;text-anchor:end;fill:#000000;stroke-width:0px">-4</text>
  <text
     id="text55"
     x="261.24713"
     y="516.91412"
     font-style=""
     font-size="28"
     font-weight="normal"
     style="font-weight:normal;font-size:28px;text-anchor:end;fill:#000000;stroke-width:0px">-5</text>
  <text
     id="text57"
     x="272.58115"
     y="-9.752861"
     font-style="italic"
     font-size="28"
     font-weight="normal"
     style="font-style:italic;font-weight:normal;font-size:28px;text-anchor:middle;fill:#000000;stroke-width:0px" />
  <text
     id="text59"
     x="554.91412"
     y="281.91415"
     font-style="italic"
     font-size="28"
     font-weight="normal"
     style="font-style:italic;font-weight:normal;font-size:28px;text-anchor:start;fill:#000000;stroke-width:0px" />
  <path
     id="path61"
     d="m 162.04514,23.480139 0.869,4.483 0.783,3.967 0.783,3.9 0.784,3.835 0.783,3.77 0.783,3.706 0.784,3.644 0.783,3.582 0.783,3.521 0.784,3.462 0.783,3.403 0.783,3.345 0.784,3.289 0.783,3.233 0.783,3.177 0.784,3.124 0.783,3.07 0.783,3.018 0.784,2.966 0.783,2.916 0.783,2.866 0.784,2.816 0.783,2.769001 0.783,2.72 0.784,2.674 0.783,2.628 0.783,2.583 0.784,2.537 0.783,2.494 0.783,2.451 0.784,2.408 0.783,2.367 0.783,2.325 0.784,2.284 0.783,2.245 0.783,2.205 0.784,2.167 0.783,2.128 0.783,2.091 0.784,2.054 0.783,2.018 0.783,1.982 0.784,1.947 0.783,1.911 0.783,1.878 0.784,1.844 0.783,1.811 0.783,1.779 0.784,1.746 0.783,1.714 0.783,1.684 0.784,1.653 0.783,1.622 0.783,1.593 0.784,1.563 0.783,1.534 0.783,1.506 0.784,1.478 0.783,1.45 0.783,1.423 0.784,1.395 0.783,1.37 0.783,1.343 0.784,1.318 0.783,1.292 0.783,1.267 0.784,1.243 0.783,1.218 0.783,1.194 0.784,1.171 0.783,1.147 0.783,1.125 0.784,1.101 0.783,1.08 0.783,1.057 0.784,1.035 0.783,1.014 0.783,0.993 0.784,0.972 0.783,0.951 0.783,0.93 0.784,0.911 0.783,0.891 0.783,0.871 0.784,0.851 0.783,0.833 0.783,0.813 0.784,0.795 0.783,0.776 0.783,0.758 0.784,0.74 0.783,0.722 0.783,0.705 0.784,0.687 0.783,0.67 0.783,0.652 0.784,0.636 0.783,0.619 0.783,0.602 0.784,0.586 0.783,0.57 0.783,0.554 0.784,0.538 0.783,0.522 0.783,0.506 0.784,0.491 0.783,0.476 0.783,0.461 0.784,0.445 0.783,0.43 0.783,0.416 0.784,0.401 0.783,0.386 0.783,0.372 0.784,0.357 0.783,0.343 0.783,0.329 0.784,0.315 0.783,0.3 0.783,0.287 0.784,0.273 0.783,0.259 0.783,0.246 0.784,0.231 0.783,0.218 0.783,0.205 0.784,0.191 0.783,0.178 0.783,0.164 0.784,0.151 0.783,0.138 0.783,0.125 0.784,0.111 0.783,0.098 0.783,0.085 0.784,0.072 0.783,0.059 0.783,0.046 0.784,0.032 0.783,0.02 0.783,0.006 0.784,-0.006 0.783,-0.02 0.783,-0.032 0.784,-0.046 0.783,-0.059 0.783,-0.072 0.784,-0.085 0.783,-0.098 0.783,-0.111 0.784,-0.125 0.783,-0.138 0.783,-0.151 0.784,-0.164 0.783,-0.178 0.783,-0.191 0.784,-0.204 0.783,-0.219 0.783,-0.231 0.784,-0.246 0.783,-0.259 0.783,-0.273 0.784,-0.286 0.783,-0.301 0.783,-0.315 0.784,-0.329 0.783,-0.343 0.783,-0.357 0.784,-0.372 0.783,-0.386 0.783,-0.401 0.784,-0.415 0.783,-0.431 0.783,-0.445 0.784,-0.461 0.783,-0.475 0.783,-0.491 0.784,-0.507 0.783,-0.522 0.783,-0.538 0.784,-0.553 0.783,-0.57 0.783,-0.586 0.784,-0.603 0.783,-0.619 0.783,-0.635 0.784,-0.653 0.783,-0.67 0.783,-0.687 0.784,-0.704 0.783,-0.722 0.783,-0.74 0.784,-0.758 0.783,-0.776 0.783,-0.795 0.784,-0.814 0.783,-0.832 0.783,-0.852 0.784,-0.871 0.783,-0.89 0.783,-0.911 0.784,-0.931 0.783,-0.951 0.783,-0.971 0.784,-0.993 0.783,-1.014 0.783,-1.035 0.784,-1.058 0.783,-1.079 0.783,-1.102 0.784,-1.124 0.783,-1.147 0.783,-1.171 0.784,-1.194 0.783,-1.218 0.783,-1.243 0.784,-1.267 0.783,-1.292 0.783,-1.318 0.784,-1.343 0.783,-1.37 0.783,-1.396 0.784,-1.422 0.783,-1.45 0.783,-1.478 0.784,-1.506 0.783,-1.534 0.783,-1.563 0.784,-1.593 0.783,-1.622 0.783,-1.653 0.784,-1.683 0.783,-1.715 0.783,-1.746 0.784,-1.778 0.783,-1.811 0.783,-1.845 0.784,-1.877 0.783,-1.912 0.783,-1.947 0.784,-1.982 0.783,-2.017 0.783,-2.054 0.784,-2.091 0.783,-2.129 0.783,-2.166 0.784,-2.206 0.783,-2.244 0.783,-2.285 0.783,-2.325 0.784,-2.366 0.783,-2.408 0.783,-2.451 0.784,-2.494 0.783,-2.538 0.783,-2.582 0.784,-2.628 0.783,-2.674 0.783,-2.721 0.784,-2.768001 0.783,-2.816 0.783,-2.866 0.784,-2.916 0.783,-2.966 0.783,-3.018 0.784,-3.07 0.783,-3.124 0.783,-3.177 0.784,-3.233 0.783,-3.289 0.783,-3.345 0.784,-3.403 0.783,-3.462 0.783,-3.521 0.784,-3.582 0.783,-3.644 0.783,-3.706 0.784,-3.77 0.783,-3.834 0.783,-3.9 0.784,-3.968 0.783,-4.035 0.086,-0.45"
     inkscape:connector-curvature="0"
     style="fill:none;stroke:#ff0000;stroke-width:5" />
</svg>
