<?xml version="1.0" encoding="UTF-8" standalone="no"?>
<svg
   xmlns:dc="http://purl.org/dc/elements/1.1/"
   xmlns:cc="http://creativecommons.org/ns#"
   xmlns:rdf="http://www.w3.org/1999/02/22-rdf-syntax-ns#"
   xmlns:svg="http://www.w3.org/2000/svg"
   xmlns="http://www.w3.org/2000/svg"
   xmlns:sodipodi="http://sodipodi.sourceforge.net/DTD/sodipodi-0.dtd"
   xmlns:inkscape="http://www.inkscape.org/namespaces/inkscape"
   id="preview"
   width="542.92249"
   height="545.72229"
   viewBox="0 0 542.92249 545.7223"
   xunitlength="78"
   yunitlength="214"
   xmin="-3"
   xmax="3"
   ymin="-1.1"
   ymax="1.1"
   ox="274"
   oy="275.4"
   version="1.1"
   sodipodi:docname="sin(x).svg"
   inkscape:version="0.92.1 r15371">
  <metadata
     id="metadata42">
    <rdf:RDF>
      <cc:Work
         rdf:about="">
        <dc:format>image/svg+xml</dc:format>
        <dc:type
           rdf:resource="http://purl.org/dc/dcmitype/StillImage" />
      </cc:Work>
    </rdf:RDF>
  </metadata>
  <sodipodi:namedview
     pagecolor="#ffffff"
     bordercolor="#666666"
     borderopacity="1"
     objecttolerance="10"
     gridtolerance="10"
     guidetolerance="10"
     inkscape:pageopacity="0"
     inkscape:pageshadow="2"
     inkscape:window-width="640"
     inkscape:window-height="480"
     id="namedview40"
     showgrid="false"
     inkscape:zoom="0.3928096"
     inkscape:cx="251.91039"
     inkscape:cy="297.86114"
     inkscape:window-x="0"
     inkscape:window-y="0"
     inkscape:window-maximized="0"
     inkscape:current-layer="preview" />
  <defs
     id="defs6">
    <style
       type="text/css"
       id="style2">@import url(&quot;http://cdnjs.cloudflare.com/ajax/libs/KaTeX/0.2.0/katex.min.css&quot;)</style>
    <style
       type="text/css"
       id="style4"><![CDATA[text {font-family="KaTeX_Main,serif"}]]></style>
  </defs>
  <path
     d="m 23.109238,280.03614 -21.528,-7.175 21.528,-7.176 -3.588,7.176 z"
     id="path8"
     inkscape:connector-curvature="0"
     style="fill:#000000;stroke:#000000;stroke-width:1" />
  <path
     d="m 519.81324,265.68514 21.528,7.176 -21.528,7.175 3.588,-7.175 z"
     id="path10"
     inkscape:connector-curvature="0"
     style="fill:#000000;stroke:#000000;stroke-width:1" />
  <path
     d="m 264.28524,23.109139 7.176,-21.5280002 7.176,21.5280002 -7.176,-3.588 z"
     id="path12"
     inkscape:connector-curvature="0"
     style="fill:#000000;stroke:#000000;stroke-width:1" />
  <path
     d="m 278.63724,522.61314 -7.176,21.528 -7.176,-21.528 7.176,3.588 z"
     id="path14"
     inkscape:connector-curvature="0"
     style="fill:#000000;stroke:#000000;stroke-width:1" />
  <path
     d="M 19.521238,272.86114 H 523.40124 M 271.46124,19.521139 V 526.20114 m 0,-246.34 v -14 m 78,14 v -14 m 78,14 v -14 m 78,14 v -14 m -312,14 v -14 m -78,14 v -14 m -78.000002,14 v -14 m 241.000002,7 h -14 m 14,214 h -14 m 14,-428.001001 h -14"
     id="path16"
     inkscape:connector-curvature="0"
     style="fill:none;stroke:#000000;stroke-width:2" />
  <text
     id="null"
     x="349.46124"
     y="302.86115"
     font-style=""
     font-size="28"
     font-weight="normal"
     style="font-weight:normal;font-size:28px;text-anchor:middle;fill:#000000;stroke-width:0px">1</text>
  <text
     id="text19"
     x="427.46124"
     y="302.86115"
     font-style=""
     font-size="28"
     font-weight="normal"
     style="font-weight:normal;font-size:28px;text-anchor:middle;fill:#000000;stroke-width:0px">2</text>
  <text
     id="text21"
     x="505.46124"
     y="302.86115"
     font-style=""
     font-size="28"
     font-weight="normal"
     style="font-weight:normal;font-size:28px;text-anchor:middle;fill:#000000;stroke-width:0px">3</text>
  <text
     id="text23"
     x="193.46124"
     y="302.86115"
     font-style=""
     font-size="28"
     font-weight="normal"
     style="font-weight:normal;font-size:28px;text-anchor:middle;fill:#000000;stroke-width:0px">-1</text>
  <text
     id="text25"
     x="115.46124"
     y="302.86115"
     font-style=""
     font-size="28"
     font-weight="normal"
     style="font-weight:normal;font-size:28px;text-anchor:middle;fill:#000000;stroke-width:0px">-2</text>
  <text
     id="text27"
     x="37.461239"
     y="302.86115"
     font-style=""
     font-size="28"
     font-weight="normal"
     style="font-weight:normal;font-size:28px;text-anchor:middle;fill:#000000;stroke-width:0px">-3</text>
  <text
     id="text29"
     x="260.12723"
     y="68.194138"
     font-style=""
     font-size="28"
     font-weight="normal"
     style="font-weight:normal;font-size:28px;text-anchor:end;fill:#000000;stroke-width:0px">1</text>
  <text
     id="text31"
     x="260.12723"
     y="496.19412"
     font-style=""
     font-size="28"
     font-weight="normal"
     style="font-weight:normal;font-size:28px;text-anchor:end;fill:#000000;stroke-width:0px">-1</text>
  <text
     id="text33"
     x="271.46124"
     y="-9.752862"
     font-style="italic"
     font-size="28"
     font-weight="normal"
     style="font-style:italic;font-weight:normal;font-size:28px;text-anchor:middle;fill:#000000;stroke-width:0px" />
  <text
     id="text35"
     x="552.67426"
     y="282.19415"
     font-style="italic"
     font-size="28"
     font-weight="normal"
     style="font-style:italic;font-weight:normal;font-size:28px;text-anchor:start;fill:#000000;stroke-width:0px" />
  <path
     id="path37"
     d="m 23.420238,264.64314 0.78,2.139 0.78,2.14 0.78,2.139 0.78,2.14 0.78,2.14 0.78,2.14 0.78,2.139 0.78,2.139 0.78,2.137 0.78,2.137 0.78,2.135 0.78,2.134 0.78,2.132 0.78,2.13 0.78,2.128 0.78,2.125 0.78,2.123 0.78,2.12 0.78,2.117 0.78,2.114 0.78,2.11 0.78,2.107 0.78,2.103 0.78,2.099 0.78,2.094 0.78,2.09 0.78,2.085 0.78,2.081 0.78,2.075 0.78,2.07 0.78,2.064 0.78,2.059 0.78,2.053 0.78,2.046 0.78,2.04 0.78,2.034 0.78,2.027 0.78,2.02 0.78,2.013 0.78,2.005 0.78,1.998 0.78,1.99 0.78,1.982 0.78,1.974 0.78,1.965 0.78,1.957 0.78,1.948 0.78,1.94 0.78,1.93 0.78,1.921 0.78,1.911 0.78,1.901 0.78,1.892 0.78,1.881 0.78,1.872 0.78,1.86 0.78,1.85 0.78,1.84 0.78,1.828 0.78,1.817 0.78,1.805 0.78,1.794 0.78,1.783 0.78,1.77 0.78,1.758 0.78,1.746 0.78,1.734 0.78,1.72 0.78,1.708 0.78,1.695 0.78,1.682 0.78,1.669 0.78,1.655 0.78,1.641 0.78,1.628 0.78,1.614 0.78,1.599 0.78,1.585 0.78,1.571 0.78,1.556 0.78,1.542 0.78,1.526 0.78,1.512 0.78,1.496 0.78,1.481 0.78,1.465 0.78,1.45 0.78,1.433 0.78,1.418 0.78,1.402 0.78,1.385 0.78,1.369 0.78,1.353 0.78,1.336 0.78,1.319 0.78,1.302 0.78,1.286 0.78,1.268 0.780002,1.25 0.78,1.234 0.78,1.215 0.78,1.198 0.78,1.181 0.78,1.162 0.78,1.144 0.78,1.127 0.78,1.108 0.78,1.089 0.78,1.071 0.78,1.053 0.78,1.034 0.78,1.015 0.78,0.996 0.78,0.977 0.78,0.958 0.78,0.939 0.78,0.92 0.78,0.9 0.78,0.881 0.78,0.861 0.78,0.842 0.78,0.822 0.78,0.802 0.78,0.782 0.78,0.762 0.78,0.743 0.78,0.722 0.78,0.702 0.78,0.681 0.78,0.662 0.78,0.641 0.78,0.62 0.78,0.6 0.78,0.58 0.78,0.559 0.78,0.538 0.78,0.517 0.78,0.497 0.78,0.476 0.78,0.455 0.78,0.433 0.78,0.413 0.78,0.392 0.78,0.371 0.78,0.35 0.78,0.329 0.78,0.307 0.78,0.287 0.78,0.265 0.78,0.244 0.78,0.222 0.78,0.202 0.78,0.18 0.78,0.158 0.78,0.138 0.78,0.115 0.78,0.095 0.78,0.073 0.78,0.052 0.78,0.03 0.78,0.009 0.78,-0.012 0.78,-0.034 0.78,-0.055 0.78,-0.077 0.78,-0.098 0.78,-0.119 0.78,-0.141 0.78,-0.162 0.78,-0.183 0.78,-0.205 0.78,-0.226 0.78,-0.247 0.78,-0.268 0.78,-0.29 0.78,-0.311 0.78,-0.332 0.78,-0.353 0.78,-0.374 0.78,-0.396 0.78,-0.416 0.78,-0.437 0.78,-0.459 0.78,-0.479 0.78,-0.5 0.78,-0.52 0.78,-0.542 0.78,-0.562 0.78,-0.583 0.78,-0.603 0.78,-0.624 0.78,-0.644 0.78,-0.665 0.78,-0.685 0.78,-0.705 0.78,-0.725 0.78,-0.746 0.78,-0.765 0.78,-0.785 0.78,-0.806 0.78,-0.825 0.78,-0.844 0.78,-0.865 0.78,-0.884 0.78,-0.903 0.78,-0.923 0.78,-0.942 0.78,-0.961 0.78,-0.98 0.78,-0.999 0.78,-1.018 0.78,-1.037 0.78,-1.056 0.78,-1.074 0.78,-1.092 0.78,-1.111 0.78,-1.129 0.78,-1.147 0.78,-1.166 0.78,-1.183 0.78,-1.201 0.78,-1.218 0.78,-1.236 0.78,-1.254 0.78,-1.271 0.78,-1.287 0.78,-1.305 0.78,-1.322 0.78,-1.339 0.78,-1.355 0.78,-1.372 0.78,-1.388 0.78,-1.404 0.78,-1.421 0.78,-1.436 0.78,-1.452 0.78,-1.468 0.78,-1.483 0.78,-1.499 0.78,-1.513 0.78,-1.529 0.78,-1.544 0.78,-1.558 0.78,-1.574 0.78,-1.587 0.78,-1.602 0.78,-1.616 0.78,-1.63 0.78,-1.643 0.78,-1.657 0.78,-1.671 0.78,-1.684 0.78,-1.697 0.78,-1.71 0.78,-1.723 0.78,-1.736 0.78,-1.747 0.78,-1.761 0.78,-1.772 0.78,-1.784 0.78,-1.796 0.78,-1.807 0.78,-1.819 0.78,-1.83 0.78,-1.841 0.78,-1.852 0.78,-1.862 0.78,-1.873 0.78,-1.883 0.78,-1.893 0.78,-1.903 0.78,-1.913 0.78,-1.922 0.78,-1.932 0.78,-1.941 0.78,-1.949 0.78,-1.959 0.78,-1.966 0.78,-1.976 0.78,-1.983 0.78,-1.991 0.78,-1.999 0.78,-2.007 0.78,-2.014 0.78,-2.021 0.78,-2.028 0.78,-2.034 0.78,-2.042 0.78,-2.047 0.78,-2.054 0.78,-2.059 0.78,-2.066 0.78,-2.07 0.78,-2.077 0.78,-2.081 0.78,-2.086 0.78,-2.09 0.78,-2.096 0.78,-2.099 0.78,-2.104 0.78,-2.107 0.78,-2.111 0.78,-2.114 0.78,-2.118 0.78,-2.12 0.78,-2.123 0.78,-2.126 0.78,-2.128 0.78,-2.131 0.78,-2.132 0.78,-2.134 0.78,-2.136 0.78,-2.136 0.78,-2.138 0.78,-2.139 0.78,-2.139 0.78,-2.14 0.78,-2.14 0.78,-2.14 0.78,-2.14 0.78,-2.139 0.78,-2.139 0.78,-2.137 0.78,-2.137 0.78,-2.136 0.78,-2.134 0.78,-2.132 0.78,-2.13 0.78,-2.128 0.78,-2.126 0.78,-2.124 0.78,-2.12 0.78,-2.118 0.78,-2.114 0.78,-2.111 0.78,-2.107 0.78,-2.104 0.78,-2.099 0.78,-2.095 0.78,-2.091 0.78,-2.086 0.78,-2.081 0.78,-2.076 0.78,-2.071 0.78,-2.065 0.78,-2.06 0.78,-2.054 0.78,-2.047 0.78,-2.041 0.78,-2.035 0.78,-2.028 0.78,-2.021 0.78,-2.014 0.78,-2.006 0.78,-1.999 0.78,-1.992 0.78,-1.983 0.78,-1.975 0.78,-1.967 0.78,-1.959 0.78,-1.949 0.78,-1.941 0.78,-1.931 0.78,-1.923 0.78,-1.912 0.78,-1.904 0.78,-1.893 0.78,-1.883 0.78,-1.873 0.78,-1.862 0.78,-1.852 0.78,-1.841 0.78,-1.83 0.78,-1.819 0.78,-1.807 0.78,-1.796 0.78,-1.784 0.78,-1.772 0.78,-1.76 0.78,-1.748 0.78,-1.736 0.78,-1.723 0.78,-1.71 0.78,-1.697 0.78,-1.684 0.78,-1.671 0.78,-1.657 0.78,-1.643 0.78,-1.63 0.78,-1.616 0.78,-1.602 0.78,-1.587 0.78,-1.574 0.78,-1.558 0.78,-1.544 0.78,-1.529 0.78,-1.514 0.78,-1.498 0.78,-1.483 0.78,-1.468 0.78,-1.452 0.78,-1.437 0.78,-1.42 0.78,-1.404 0.78,-1.388 0.78,-1.372 0.78,-1.355 0.78,-1.339 0.78,-1.322 0.78,-1.305 0.78,-1.288 0.78,-1.27 0.78,-1.254001 0.78,-1.236 0.78,-1.219 0.78,-1.2 0.78,-1.184 0.78,-1.165 0.78,-1.147 0.78,-1.129 0.78,-1.111 0.78,-1.093 0.78,-1.074 0.78,-1.055 0.78,-1.037 0.78,-1.018 0.78,-0.999 0.78,-0.98 0.78,-0.962 0.78,-0.942 0.78,-0.922 0.78,-0.904 0.78,-0.884 0.78,-0.864 0.78,-0.845 0.78,-0.825 0.78,-0.805 0.78,-0.786 0.78,-0.765 0.78,-0.745 0.78,-0.726 0.78,-0.705 0.78,-0.685 0.78,-0.665 0.78,-0.644 0.78,-0.624 0.78,-0.603 0.78,-0.583 0.78,-0.562 0.78,-0.541 0.78,-0.521 0.78,-0.5 0.78,-0.479 0.78,-0.458 0.78,-0.438 0.78,-0.416 0.78,-0.395 0.78,-0.375 0.78,-0.353 0.78,-0.332 0.78,-0.311 0.78,-0.289 0.78,-0.269 0.78,-0.247 0.78,-0.226 0.78,-0.205 0.78,-0.183 0.78,-0.162 0.78,-0.141 0.78,-0.119 0.78,-0.098 0.78,-0.077 0.78,-0.055 0.78,-0.034 0.78,-0.012 0.78,0.009 0.78,0.03 0.78,0.052 0.78,0.073 0.78,0.094 0.78,0.116 0.78,0.138 0.78,0.158 0.78,0.18 0.78,0.202 0.78,0.222 0.78,0.244 0.78,0.265 0.78,0.286 0.78,0.308 0.78,0.329 0.78,0.349 0.78,0.371 0.78,0.392 0.78,0.413 0.78,0.434 0.78,0.455 0.78,0.476 0.78,0.496 0.78,0.518 0.78,0.538 0.78,0.559 0.78,0.579 0.78,0.6 0.78,0.621 0.78,0.641 0.78,0.661 0.78,0.682 0.78,0.702 0.78,0.722 0.78,0.742 0.78,0.762 0.78,0.783 0.78,0.802 0.78,0.822 0.78,0.841 0.78,0.862 0.78,0.88 0.78,0.901 0.78,0.919 0.78,0.939 0.78,0.958 0.78,0.977 0.78,0.997 0.78,1.015 0.78,1.033 0.78,1.053 0.78,1.071 0.78,1.09 0.78,1.108 0.78,1.126 0.78,1.144 0.78,1.163 0.78,1.18 0.78,1.198 0.78,1.216 0.78,1.233 0.78,1.251 0.78,1.268001 0.78,1.285 0.78,1.302 0.78,1.319 0.78,1.336 0.78,1.353 0.78,1.369 0.78,1.385 0.78,1.402 0.78,1.418 0.78,1.434 0.78,1.449 0.78,1.465 0.78,1.481 0.78,1.496 0.78,1.512 0.78,1.526 0.78,1.542 0.78,1.556 0.78,1.57 0.78,1.586 0.78,1.599 0.78,1.614 0.78,1.627 0.78,1.642 0.78,1.655 0.78,1.669 0.78,1.681 0.78,1.695 0.78,1.708 0.78,1.721 0.78,1.734 0.78,1.746 0.78,1.758 0.78,1.77 0.78,1.782 0.78,1.794 0.78,1.806 0.78,1.817 0.78,1.828 0.78,1.839 0.78,1.85 0.78,1.861 0.78,1.871 0.78,1.882 0.78,1.891 0.78,1.902 0.78,1.911 0.78,1.921 0.78,1.93 0.78,1.939 0.78,1.949 0.78,1.956 0.78,1.966 0.78,1.974 0.78,1.982 0.78,1.99 0.78,1.998 0.78,2.005 0.78,2.013 0.78,2.02 0.78,2.027 0.78,2.033 0.78,2.04 0.78,2.047 0.78,2.053 0.78,2.058 0.78,2.065 0.78,2.07 0.78,2.075 0.78,2.08 0.78,2.086 0.78,2.09 0.78,2.094 0.78,2.099 0.78,2.103 0.78,2.106 0.78,2.111 0.78,2.113 0.78,2.118 0.78,2.12 0.78,2.122 0.78,2.126 0.78,2.128 0.78,2.13 0.78,2.132 0.78,2.133 0.78,2.136 0.78,2.136 0.78,2.138 0.78,2.138 0.78,2.14 0.78,2.139 0.78,2.14 0.78,2.14 0.78,2.14 0.78,2.139 0.78,2.139"
     inkscape:connector-curvature="0"
     style="fill:none;stroke:#ff0000;stroke-width:5" />
</svg>
