<?xml version="1.0" encoding="UTF-8" standalone="no"?>
<svg
   xmlns:dc="http://purl.org/dc/elements/1.1/"
   xmlns:cc="http://creativecommons.org/ns#"
   xmlns:rdf="http://www.w3.org/1999/02/22-rdf-syntax-ns#"
   xmlns:svg="http://www.w3.org/2000/svg"
   xmlns="http://www.w3.org/2000/svg"
   xmlns:sodipodi="http://sodipodi.sourceforge.net/DTD/sodipodi-0.dtd"
   xmlns:inkscape="http://www.inkscape.org/namespaces/inkscape"
   id="preview"
   width="545.16229"
   height="545.16229"
   viewBox="0 0 545.16229 545.16229"
   xunitlength="47"
   yunitlength="47"
   xmin="-5"
   xmax="5"
   ymin="-5"
   ymax="5"
   ox="275"
   oy="275"
   version="1.1"
   sodipodi:docname="sinh(x).svg"
   inkscape:version="0.92.1 r15371">
  <metadata
     id="metadata66">
    <rdf:RDF>
      <cc:Work
         rdf:about="">
        <dc:format>image/svg+xml</dc:format>
        <dc:type
           rdf:resource="http://purl.org/dc/dcmitype/StillImage" />
      </cc:Work>
    </rdf:RDF>
  </metadata>
  <sodipodi:namedview
     pagecolor="#ffffff"
     bordercolor="#666666"
     borderopacity="1"
     objecttolerance="10"
     gridtolerance="10"
     guidetolerance="10"
     inkscape:pageopacity="0"
     inkscape:pageshadow="2"
     inkscape:window-width="640"
     inkscape:window-height="480"
     id="namedview64"
     showgrid="false"
     inkscape:zoom="0.39333333"
     inkscape:cx="253.08961"
     inkscape:cy="297.58114"
     inkscape:window-x="0"
     inkscape:window-y="0"
     inkscape:window-maximized="0"
     inkscape:current-layer="preview" />
  <defs
     id="defs6">
    <style
       type="text/css"
       id="style2">@import url(&quot;http://cdnjs.cloudflare.com/ajax/libs/KaTeX/0.2.0/katex.min.css&quot;)</style>
    <style
       type="text/css"
       id="style4"><![CDATA[text {font-family="KaTeX_Main,serif"}]]></style>
  </defs>
  <path
     d="m 23.181139,279.78114 -21.6000002,-7.2 21.6000002,-7.2 -3.6,7.2 z"
     id="path8"
     inkscape:connector-curvature="0"
     style="fill:#000000;stroke:#000000;stroke-width:1" />
  <path
     d="m 521.98114,265.38114 21.6,7.2 -21.6,7.2 3.6,-7.2 z"
     id="path10"
     inkscape:connector-curvature="0"
     style="fill:#000000;stroke:#000000;stroke-width:1" />
  <path
     d="m 265.38114,23.181139 7.2,-21.6000002 7.2,21.6000002 -7.2,-3.6 z"
     id="path12"
     inkscape:connector-curvature="0"
     style="fill:#000000;stroke:#000000;stroke-width:1" />
  <path
     d="m 279.78114,521.98114 -7.2,21.6 -7.2,-21.6 7.2,3.6 z"
     id="path14"
     inkscape:connector-curvature="0"
     style="fill:#000000;stroke:#000000;stroke-width:1" />
  <path
     d="M 19.581139,272.58114 H 525.58114 m -253,-253.000001 V 525.58114 m 0,-246 v -14 m 47,14 v -14 m 47,14 v -14 m 47,14 v -14 m 47,14 v -14 m 47,14 v -14 m -282,14 v -14 m -47,14 v -14 m -47,14 v -14 m -47.000001,14 v -14 m -47,14 v -14 m 242.000001,7 h -14 m 14,47 h -14 m 14,47 h -14 m 14,47 h -14 m 14,47 h -14 m 14,47 h -14 m 14,-282 h -14 m 14,-47 h -14 m 14,-47 h -14 m 14,-47.000001 h -14 m 14,-47 h -14"
     id="path16"
     inkscape:connector-curvature="0"
     style="fill:none;stroke:#000000;stroke-width:2" />
  <text
     id="null"
     x="319.58115"
     y="302.58115"
     font-style=""
     font-size="28"
     font-weight="normal"
     style="font-weight:normal;font-size:28px;text-anchor:middle;fill:#000000;stroke-width:0px">1</text>
  <text
     id="text19"
     x="366.58115"
     y="302.58115"
     font-style=""
     font-size="28"
     font-weight="normal"
     style="font-weight:normal;font-size:28px;text-anchor:middle;fill:#000000;stroke-width:0px">2</text>
  <text
     id="text21"
     x="413.58115"
     y="302.58115"
     font-style=""
     font-size="28"
     font-weight="normal"
     style="font-weight:normal;font-size:28px;text-anchor:middle;fill:#000000;stroke-width:0px">3</text>
  <text
     id="text23"
     x="460.58115"
     y="302.58115"
     font-style=""
     font-size="28"
     font-weight="normal"
     style="font-weight:normal;font-size:28px;text-anchor:middle;fill:#000000;stroke-width:0px">4</text>
  <text
     id="text25"
     x="507.58115"
     y="302.58115"
     font-style=""
     font-size="28"
     font-weight="normal"
     style="font-weight:normal;font-size:28px;text-anchor:middle;fill:#000000;stroke-width:0px">5</text>
  <text
     id="text27"
     x="225.58115"
     y="302.58115"
     font-style=""
     font-size="28"
     font-weight="normal"
     style="font-weight:normal;font-size:28px;text-anchor:middle;fill:#000000;stroke-width:0px">-1</text>
  <text
     id="text29"
     x="178.58115"
     y="302.58115"
     font-style=""
     font-size="28"
     font-weight="normal"
     style="font-weight:normal;font-size:28px;text-anchor:middle;fill:#000000;stroke-width:0px">-2</text>
  <text
     id="text31"
     x="131.58115"
     y="302.58115"
     font-style=""
     font-size="28"
     font-weight="normal"
     style="font-weight:normal;font-size:28px;text-anchor:middle;fill:#000000;stroke-width:0px">-3</text>
  <text
     id="text33"
     x="84.581139"
     y="302.58115"
     font-style=""
     font-size="28"
     font-weight="normal"
     style="font-weight:normal;font-size:28px;text-anchor:middle;fill:#000000;stroke-width:0px">-4</text>
  <text
     id="text35"
     x="37.581139"
     y="302.58115"
     font-style=""
     font-size="28"
     font-weight="normal"
     style="font-weight:normal;font-size:28px;text-anchor:middle;fill:#000000;stroke-width:0px">-5</text>
  <text
     id="text37"
     x="261.24713"
     y="234.91415"
     font-style=""
     font-size="28"
     font-weight="normal"
     style="font-weight:normal;font-size:28px;text-anchor:end;fill:#000000;stroke-width:0px">1</text>
  <text
     id="text39"
     x="261.24713"
     y="187.91414"
     font-style=""
     font-size="28"
     font-weight="normal"
     style="font-weight:normal;font-size:28px;text-anchor:end;fill:#000000;stroke-width:0px">2</text>
  <text
     id="text41"
     x="261.24713"
     y="140.91414"
     font-style=""
     font-size="28"
     font-weight="normal"
     style="font-weight:normal;font-size:28px;text-anchor:end;fill:#000000;stroke-width:0px">3</text>
  <text
     id="text43"
     x="261.24713"
     y="93.914131"
     font-style=""
     font-size="28"
     font-weight="normal"
     style="font-weight:normal;font-size:28px;text-anchor:end;fill:#000000;stroke-width:0px">4</text>
  <text
     id="text45"
     x="261.24713"
     y="46.914139"
     font-style=""
     font-size="28"
     font-weight="normal"
     style="font-weight:normal;font-size:28px;text-anchor:end;fill:#000000;stroke-width:0px">5</text>
  <text
     id="text47"
     x="261.24713"
     y="328.91415"
     font-style=""
     font-size="28"
     font-weight="normal"
     style="font-weight:normal;font-size:28px;text-anchor:end;fill:#000000;stroke-width:0px">-1</text>
  <text
     id="text49"
     x="261.24713"
     y="375.91415"
     font-style=""
     font-size="28"
     font-weight="normal"
     style="font-weight:normal;font-size:28px;text-anchor:end;fill:#000000;stroke-width:0px">-2</text>
  <text
     id="text51"
     x="261.24713"
     y="422.91415"
     font-style=""
     font-size="28"
     font-weight="normal"
     style="font-weight:normal;font-size:28px;text-anchor:end;fill:#000000;stroke-width:0px">-3</text>
  <text
     id="text53"
     x="261.24713"
     y="469.91415"
     font-style=""
     font-size="28"
     font-weight="normal"
     style="font-weight:normal;font-size:28px;text-anchor:end;fill:#000000;stroke-width:0px">-4</text>
  <text
     id="text55"
     x="261.24713"
     y="516.91412"
     font-style=""
     font-size="28"
     font-weight="normal"
     style="font-weight:normal;font-size:28px;text-anchor:end;fill:#000000;stroke-width:0px">-5</text>
  <text
     id="text57"
     x="272.58115"
     y="-9.752861"
     font-style="italic"
     font-size="28"
     font-weight="normal"
     style="font-style:italic;font-weight:normal;font-size:28px;text-anchor:middle;fill:#000000;stroke-width:0px" />
  <text
     id="text59"
     x="554.91412"
     y="281.91415"
     font-style="italic"
     font-size="28"
     font-weight="normal"
     style="font-style:italic;font-weight:normal;font-size:28px;text-anchor:start;fill:#000000;stroke-width:0px" />
  <path
     id="path61"
     d="m 161.20814,521.68114 0.922,-4.93 0.784,-4.111 0.783,-4.043 0.783,-3.979 0.784,-3.913 0.783,-3.851 0.783,-3.788 0.784,-3.727 0.783,-3.666 0.783,-3.608 0.784,-3.549 0.783,-3.492 0.783,-3.436 0.784,-3.381 0.783,-3.326 0.783,-3.273 0.784,-3.22 0.783,-3.169 0.783,-3.117 0.784,-3.069 0.783,-3.019 0.783,-2.97 0.784,-2.924 0.783,-2.877 0.783,-2.831 0.784,-2.787 0.783,-2.742 0.783,-2.698 0.784,-2.656 0.783,-2.614 0.783,-2.573 0.784,-2.533 0.783,-2.492 0.783,-2.454 0.784,-2.415 0.783,-2.377 0.783,-2.341 0.784,-2.303 0.783,-2.268 0.783,-2.233 0.784,-2.199 0.783,-2.164 0.783,-2.131 0.784,-2.099 0.783,-2.066 0.783,-2.034 0.784,-2.004 0.783,-1.973 0.783,-1.943 0.784,-1.914 0.783,-1.885 0.783,-1.857 0.784,-1.829 0.783,-1.801 0.783,-1.775 0.784,-1.749 0.783,-1.723 0.783,-1.697 0.784,-1.672 0.783,-1.649 0.783,-1.624 0.784,-1.6 0.783,-1.578 0.783,-1.555 0.784,-1.533 0.783,-1.511 0.783,-1.49 0.784,-1.469 0.783,-1.448 0.783,-1.428 0.784,-1.409 0.783,-1.389 0.783,-1.371 0.784,-1.351 0.783,-1.334 0.783,-1.316 0.784,-1.298 0.783,-1.281 0.783,-1.265 0.784,-1.248 0.783,-1.232 0.783,-1.217 0.784,-1.201 0.783,-1.186 0.783,-1.171 0.784,-1.158 0.783,-1.143 0.783,-1.129 0.784,-1.116 0.783,-1.103 0.783,-1.09 0.784,-1.077 0.783,-1.066 0.783,-1.053 0.784,-1.042 0.783,-1.031 0.783,-1.019 0.784,-1.009 0.783,-0.999 0.783,-0.988 0.784,-0.978 0.783,-0.969 0.783,-0.959 0.784,-0.95 0.783,-0.942 0.783,-0.933 0.784,-0.924 0.783,-0.916 0.783,-0.909 0.784,-0.901 0.783,-0.894 0.783,-0.887 0.784,-0.88 0.783,-0.873 0.783,-0.867 0.784,-0.861 0.783,-0.855 0.783,-0.85 0.784,-0.844 0.783,-0.839 0.783,-0.834 0.784,-0.83 0.783,-0.825 0.783,-0.821 0.784,-0.817 0.783,-0.813 0.783,-0.809 0.784,-0.807 0.783,-0.803 0.783,-0.8 0.784,-0.798 0.783,-0.796 0.783,-0.793 0.784,-0.791 0.783,-0.789 0.783,-0.788 0.784,-0.787 0.783,-0.786 0.783,-0.784 0.784,-0.784 0.783,-0.784 0.783,-0.783 0.784,-0.784 0.783,-0.783 0.783,-0.784 0.784,-0.785 0.783,-0.785 0.783,-0.787 0.784,-0.788 0.783,-0.789 0.783,-0.792 0.784,-0.793 0.783,-0.795 0.783,-0.798 0.784,-0.8 0.783,-0.804 0.783,-0.806 0.784,-0.81 0.783,-0.813 0.783,-0.817 0.784,-0.821 0.783,-0.825 0.783,-0.829 0.784,-0.834 0.783,-0.839 0.783,-0.845 0.784,-0.849 0.783,-0.855 0.783,-0.861 0.784,-0.867 0.783,-0.874 0.783,-0.88 0.784,-0.886 0.783,-0.894 0.783,-0.901 0.784,-0.909 0.783,-0.916 0.783,-0.925 0.784,-0.933 0.783,-0.941 0.783,-0.95 0.784,-0.96 0.783,-0.968 0.783,-0.979 0.784,-0.988 0.783,-0.998 0.783,-1.009 0.784,-1.02 0.783,-1.03 0.783,-1.042 0.784,-1.054 0.783,-1.065 0.783,-1.078 0.784,-1.09 0.783,-1.102 0.783,-1.116 0.784,-1.13 0.783,-1.143 0.783,-1.157 0.784,-1.171 0.783,-1.186 0.783,-1.201 0.784,-1.217 0.783,-1.232 0.783,-1.248 0.784,-1.265 0.783,-1.281 0.783,-1.298 0.784,-1.316 0.783,-1.334 0.783,-1.352 0.784,-1.37 0.783,-1.389 0.783,-1.409 0.784,-1.428 0.783,-1.448 0.783,-1.469 0.784,-1.49 0.783,-1.511 0.783,-1.533 0.784,-1.555 0.783,-1.578 0.783,-1.6 0.784,-1.624 0.783,-1.648 0.783,-1.673 0.784,-1.697 0.783,-1.723 0.783,-1.749 0.784,-1.774 0.783,-1.802 0.783,-1.829 0.784,-1.857 0.783,-1.885 0.783,-1.913 0.784,-1.944 0.783,-1.973 0.783,-2.003 0.784,-2.035 0.783,-2.066 0.783,-2.098 0.784,-2.132 0.783,-2.164 0.783,-2.198 0.784,-2.233 0.783,-2.268 0.783,-2.304 0.784,-2.34 0.783,-2.378 0.783,-2.415 0.783,-2.453 0.784,-2.493 0.783,-2.532 0.783,-2.573 0.784,-2.614 0.783,-2.656 0.783,-2.699 0.784,-2.742 0.783,-2.786 0.783,-2.831 0.784,-2.877 0.783,-2.924 0.783,-2.970001 0.784,-3.02 0.783,-3.068 0.783,-3.117 0.784,-3.169 0.783,-3.22 0.783,-3.273 0.784,-3.326 0.783,-3.381 0.783,-3.436 0.784,-3.492 0.783,-3.549 0.783,-3.607 0.784,-3.667 0.783,-3.727 0.783,-3.788 0.784,-3.85 0.783,-3.914 0.783,-3.978 0.784,-4.044 0.783,-4.11 0.783,-4.179 0.14,-0.754"
     inkscape:connector-curvature="0"
     style="fill:none;stroke:#ff0000;stroke-width:5" />
</svg>
