<?xml version="1.0" encoding="UTF-8" standalone="no"?>
<svg
   xmlns:dc="http://purl.org/dc/elements/1.1/"
   xmlns:cc="http://creativecommons.org/ns#"
   xmlns:rdf="http://www.w3.org/1999/02/22-rdf-syntax-ns#"
   xmlns:svg="http://www.w3.org/2000/svg"
   xmlns="http://www.w3.org/2000/svg"
   xmlns:sodipodi="http://sodipodi.sourceforge.net/DTD/sodipodi-0.dtd"
   xmlns:inkscape="http://www.inkscape.org/namespaces/inkscape"
   id="preview"
   width="543.9223"
   height="542.9223"
   viewBox="0 0 543.9223 542.9223"
   xunitlength="67"
   yunitlength="78"
   xmin="-3.5"
   xmax="3.5"
   ymin="-3"
   ymax="3"
   ox="274.5"
   oy="274"
   version="1.1"
   sodipodi:docname="tan(x).svg"
   inkscape:version="0.92.1 r15371">
  <metadata
     id="metadata54">
    <rdf:RDF>
      <cc:Work
         rdf:about="">
        <dc:format>image/svg+xml</dc:format>
        <dc:type
           rdf:resource="http://purl.org/dc/dcmitype/StillImage" />
      </cc:Work>
    </rdf:RDF>
  </metadata>
  <sodipodi:namedview
     pagecolor="#ffffff"
     bordercolor="#666666"
     borderopacity="1"
     objecttolerance="10"
     gridtolerance="10"
     guidetolerance="10"
     inkscape:pageopacity="0"
     inkscape:pageshadow="2"
     inkscape:window-width="640"
     inkscape:window-height="480"
     id="namedview52"
     showgrid="false"
     inkscape:zoom="0.39464883"
     inkscape:cx="328.03217"
     inkscape:cy="296.46114"
     inkscape:window-x="1053"
     inkscape:window-y="211"
     inkscape:window-maximized="0"
     inkscape:current-layer="preview" />
  <defs
     id="defs6">
    <style
       type="text/css"
       id="style2">@import url(&quot;http://cdnjs.cloudflare.com/ajax/libs/KaTeX/0.2.0/katex.min.css&quot;)</style>
    <style
       type="text/css"
       id="style4"><![CDATA[text {font-family="KaTeX_Main,serif"}]]></style>
  </defs>
  <path
     d="m 23.109139,278.63714 -21.5280002,-7.176 21.5280002,-7.176 -3.588,7.176 z"
     id="path8"
     inkscape:connector-curvature="0"
     style="fill:#000000;stroke:#000000;stroke-width:1" />
  <path
     d="m 520.81314,264.28514 21.528,7.176 -21.528,7.176 3.588,-7.176 z"
     id="path10"
     inkscape:connector-curvature="0"
     style="fill:#000000;stroke:#000000;stroke-width:1" />
  <path
     d="m 264.78514,23.109139 7.176,-21.5280002 7.176,21.5280002 -7.176,-3.588 z"
     id="path12"
     inkscape:connector-curvature="0"
     style="fill:#000000;stroke:#000000;stroke-width:1" />
  <path
     d="m 279.13714,519.81314 -7.176,21.528 -7.176,-21.528 7.176,3.588 z"
     id="path14"
     inkscape:connector-curvature="0"
     style="fill:#000000;stroke:#000000;stroke-width:1" />
  <path
     d="M 19.521139,271.46114 H 524.40114 M 271.96114,19.521139 V 523.40114 m 0,-244.94 v -14 m 67,14 v -14 m 67,14 v -14 m 67,14 v -14 m -268,14 v -14 m -67,14 v -14 m -67.000001,14 v -14 m 208.000001,7 h -14 m 14,78 h -14 m 14,78 h -14 m 14,78 h -14 m 14,-312 h -14 m 14,-78 h -14 m 14,-78.000001 h -14"
     id="path16"
     inkscape:connector-curvature="0"
     style="fill:none;stroke:#000000;stroke-width:2" />
  <text
     id="null"
     x="338.96115"
     y="301.46115"
     font-style=""
     font-size="28"
     font-weight="normal"
     style="font-weight:normal;font-size:28px;text-anchor:middle;fill:#000000;stroke-width:0px">1</text>
  <text
     id="text19"
     x="405.96115"
     y="301.46115"
     font-style=""
     font-size="28"
     font-weight="normal"
     style="font-weight:normal;font-size:28px;text-anchor:middle;fill:#000000;stroke-width:0px">2</text>
  <text
     id="text21"
     x="472.96115"
     y="301.46115"
     font-style=""
     font-size="28"
     font-weight="normal"
     style="font-weight:normal;font-size:28px;text-anchor:middle;fill:#000000;stroke-width:0px">3</text>
  <text
     id="text23"
     x="204.96114"
     y="301.46115"
     font-style=""
     font-size="28"
     font-weight="normal"
     style="font-weight:normal;font-size:28px;text-anchor:middle;fill:#000000;stroke-width:0px">-1</text>
  <text
     id="text25"
     x="137.96114"
     y="301.46115"
     font-style=""
     font-size="28"
     font-weight="normal"
     style="font-weight:normal;font-size:28px;text-anchor:middle;fill:#000000;stroke-width:0px">-2</text>
  <text
     id="text27"
     x="70.961136"
     y="301.46115"
     font-style=""
     font-size="28"
     font-weight="normal"
     style="font-weight:normal;font-size:28px;text-anchor:middle;fill:#000000;stroke-width:0px">-3</text>
  <text
     id="text29"
     x="260.62714"
     y="202.79413"
     font-style=""
     font-size="28"
     font-weight="normal"
     style="font-weight:normal;font-size:28px;text-anchor:end;fill:#000000;stroke-width:0px">1</text>
  <text
     id="text31"
     x="260.62714"
     y="124.79413"
     font-style=""
     font-size="28"
     font-weight="normal"
     style="font-weight:normal;font-size:28px;text-anchor:end;fill:#000000;stroke-width:0px">2</text>
  <text
     id="text33"
     x="260.62714"
     y="46.79414"
     font-style=""
     font-size="28"
     font-weight="normal"
     style="font-weight:normal;font-size:28px;text-anchor:end;fill:#000000;stroke-width:0px">3</text>
  <text
     id="text35"
     x="260.62714"
     y="358.79416"
     font-style=""
     font-size="28"
     font-weight="normal"
     style="font-weight:normal;font-size:28px;text-anchor:end;fill:#000000;stroke-width:0px">-1</text>
  <text
     id="text37"
     x="260.62714"
     y="436.79416"
     font-style=""
     font-size="28"
     font-weight="normal"
     style="font-weight:normal;font-size:28px;text-anchor:end;fill:#000000;stroke-width:0px">-2</text>
  <text
     id="text39"
     x="260.62714"
     y="514.79413"
     font-style=""
     font-size="28"
     font-weight="normal"
     style="font-weight:normal;font-size:28px;text-anchor:end;fill:#000000;stroke-width:0px">-3</text>
  <text
     id="text41"
     x="271.96115"
     y="-9.752862"
     font-style="italic"
     font-size="28"
     font-weight="normal"
     style="font-style:italic;font-weight:normal;font-size:28px;text-anchor:middle;fill:#000000;stroke-width:0px" />
  <text
     id="text43"
     x="553.67413"
     y="280.79416"
     font-style="italic"
     font-size="28"
     font-weight="normal"
     style="font-style:italic;font-weight:normal;font-size:28px;text-anchor:start;fill:#000000;stroke-width:0px" />
  <path
     id="path45"
     d="m 23.391139,321.28114 0.781,-1.272 0.782,-1.253 0.781,-1.236 0.782,-1.219 0.782,-1.203 0.781,-1.187 0.782,-1.172 0.782,-1.158 0.781,-1.144 0.782,-1.131 0.782,-1.118 0.781,-1.105 0.782,-1.094 0.782,-1.083 0.781,-1.072 0.782,-1.062 0.782,-1.052 0.781,-1.042 0.782,-1.033 0.782,-1.025 0.781,-1.016 0.782,-1.008 0.782,-1.001 0.781,-0.994 0.782,-0.986 0.782,-0.98 0.781,-0.974 0.782,-0.969 0.782,-0.962 0.781,-0.958 0.782,-0.952 0.782,-0.948 0.781,-0.943 0.782,-0.939 0.782,-0.936 0.781,-0.932 0.782,-0.929 0.782,-0.925 0.781,-0.924 0.782,-0.92 0.782,-0.919 0.781,-0.916 0.782,-0.915 0.782,-0.913 0.781,-0.913 0.782,-0.911 0.782,-0.91 0.781,-0.911 0.782,-0.91 0.782,-0.91 0.781,-0.91 0.782,-0.911 0.782,-0.912 0.781,-0.913 0.782,-0.914 0.782,-0.916 0.781,-0.917 0.782,-0.92 0.782,-0.922 0.781,-0.924 0.782,-0.928 0.782,-0.93 0.781,-0.934 0.782,-0.938 0.782,-0.941 0.781,-0.946 0.782,-0.951 0.782,-0.955 0.781,-0.96 0.782,-0.966 0.782,-0.971 0.781,-0.977 0.782,-0.984 0.782,-0.991 0.781,-0.997 0.782,-1.005 0.782,-1.013 0.781,-1.021 0.782,-1.029 0.782,-1.038 0.781,-1.048 0.782,-1.057 0.782,-1.067 0.781,-1.078 0.782,-1.089 0.782,-1.101 0.781,-1.112 0.782,-1.125 0.782,-1.138 0.781,-1.152 0.782,-1.166 0.782,-1.18 0.781,-1.196 0.782,-1.212 0.782,-1.228 0.781,-1.246 0.782,-1.263 0.782,-1.283 0.781001,-1.302 0.782,-1.322 0.782,-1.343 0.781,-1.366 0.782,-1.389 0.782,-1.412 0.781,-1.438 0.782,-1.463 0.782,-1.491 0.781,-1.52 0.782,-1.549 0.782,-1.579 0.781,-1.613 0.782,-1.646 0.782,-1.681 0.781,-1.718 0.782,-1.757 0.782,-1.798 0.781,-1.839 0.782,-1.885 0.782,-1.931 0.781,-1.979 0.782,-2.031 0.782,-2.085 0.781,-2.142 0.782,-2.201 0.782,-2.264 0.781,-2.331 0.782,-2.4 0.782,-2.473 0.781,-2.552 0.782,-2.634 0.782,-2.72 0.781,-2.813 0.782,-2.911 0.782,-3.015 0.781,-3.125 0.782,-3.242 0.782,-3.367 0.781,-3.501 0.782,-3.643 0.782,-3.796 0.781,-3.959 0.782,-4.134 0.782,-4.323 0.781,-4.526 0.782,-4.744 0.782,-4.98 0.781,-5.237001 0.782,-5.514 0.782,-5.816 0.781,-6.146 0.782,-6.505 0.782,-6.9 0.781,-7.333 0.782,-7.811 0.782,-8.34 0.781,-8.926 0.782,-9.579 0.187,-2.461"
     inkscape:connector-curvature="0"
     style="fill:none;stroke:#ff0000;stroke-width:5" />
  <path
     id="path47"
     d="m 187.13814,519.50114 1.184,-14.593 0.782,-8.756 0.781,-8.187 0.782,-7.673 0.782,-7.208 0.781,-6.786 0.782,-6.402 0.782,-6.05 0.781,-5.73 0.782,-5.434 0.782,-5.163 0.781,-4.913 0.782,-4.681 0.782,-4.468 0.781,-4.268 0.782,-4.085 0.782,-3.912 0.781,-3.752 0.782,-3.603 0.782,-3.462 0.781,-3.332 0.782,-3.209 0.782,-3.093 0.781,-2.985 0.782,-2.883 0.782,-2.787 0.781,-2.696 0.782,-2.61 0.782,-2.529 0.781,-2.453 0.782,-2.38 0.782,-2.312 0.781,-2.246 0.782,-2.184 0.782,-2.126 0.781,-2.07 0.782,-2.016 0.782,-1.966 0.781,-1.918 0.782,-1.871 0.782,-1.828 0.781,-1.786 0.782,-1.746 0.782,-1.708 0.781,-1.671 0.782,-1.636 0.782,-1.603 0.781,-1.572 0.782,-1.54 0.782,-1.511 0.781,-1.484 0.782,-1.456 0.782,-1.43 0.781,-1.406 0.782,-1.382 0.782,-1.36 0.781,-1.337 0.782,-1.317 0.782,-1.296 0.781,-1.277 0.782,-1.259 0.782,-1.24 0.781,-1.224 0.782,-1.207 0.782,-1.192 0.781,-1.176 0.782,-1.162 0.782,-1.147 0.781,-1.135 0.782,-1.121 0.782,-1.109 0.781,-1.098 0.782,-1.085 0.782,-1.075 0.781,-1.065 0.782,-1.054 0.782,-1.045 0.781,-1.036 0.782,-1.027 0.782,-1.018 0.781,-1.011 0.782,-1.003 0.782,-0.995 0.781,-0.989 0.782,-0.982 0.782,-0.976 0.781,-0.969 0.782,-0.965 0.782,-0.958 0.781,-0.954 0.782,-0.949 0.782,-0.945 0.781,-0.94 0.782,-0.937 0.782,-0.933 0.781,-0.929 0.782,-0.927 0.782,-0.924 0.781,-0.921 0.782,-0.919 0.782,-0.917 0.781,-0.915 0.782,-0.914 0.782,-0.913 0.781,-0.911 0.782,-0.911 0.782,-0.91 0.781,-0.91 0.782,-0.91 0.782,-0.911 0.781,-0.91 0.782,-0.912 0.782,-0.912 0.781,-0.914 0.782,-0.915 0.782,-0.917 0.781,-0.919 0.782,-0.922 0.782,-0.924 0.781,-0.926 0.782,-0.93 0.782,-0.933 0.781,-0.936 0.782,-0.941 0.782,-0.944 0.781,-0.949 0.782,-0.954 0.782,-0.959 0.781,-0.964 0.782,-0.97 0.782,-0.975 0.781,-0.982 0.782,-0.989 0.782,-0.996 0.781,-1.002 0.782,-1.011 0.782,-1.018 0.781,-1.027 0.782,-1.036 0.782,-1.045 0.781,-1.054 0.782,-1.065 0.782,-1.075 0.781,-1.086 0.782,-1.097 0.782,-1.109 0.781,-1.122 0.782,-1.134 0.782,-1.148 0.781,-1.161 0.782,-1.177 0.782,-1.191 0.781,-1.207 0.782,-1.224 0.782,-1.241 0.781,-1.258 0.782,-1.277 0.782,-1.297 0.781,-1.316 0.782,-1.338 0.782,-1.359 0.781,-1.382 0.782,-1.406 0.782,-1.43 0.781,-1.456 0.782,-1.484 0.782,-1.511 0.781,-1.54 0.782,-1.572 0.782,-1.603 0.781,-1.636 0.782,-1.671 0.782,-1.708 0.781,-1.746 0.782,-1.786 0.782,-1.828 0.781,-1.871 0.782,-1.918 0.782,-1.966 0.781,-2.016 0.782,-2.07 0.782,-2.125 0.781,-2.185 0.782,-2.246 0.782,-2.311 0.781,-2.38 0.782,-2.453 0.782,-2.529 0.781,-2.611 0.782,-2.696 0.782,-2.786 0.781,-2.883 0.782,-2.985 0.782,-3.093 0.781,-3.209 0.782,-3.332 0.782,-3.462 0.781,-3.603 0.782,-3.752 0.782,-3.912 0.781,-4.084 0.782,-4.268 0.782,-4.468 0.781,-4.681 0.782,-4.913 0.782,-5.162 0.781,-5.435001 0.782,-5.729 0.782,-6.05 0.781,-6.402 0.782,-6.786 0.782,-7.208 0.781,-7.672 0.782,-8.186 0.782,-8.756 0.781,-9.389 0.403,-5.21"
     inkscape:connector-curvature="0"
     style="fill:none;stroke:#ff0000;stroke-width:5" />
  <path
     id="path49"
     d="m 397.62214,519.50114 0.968,-12.034 0.782,-8.927 0.781,-8.339 0.782,-7.812 0.782,-7.333 0.781,-6.901 0.782,-6.505 0.782,-6.146 0.781,-5.816 0.782,-5.515 0.782,-5.237 0.781,-4.98 0.782,-4.745 0.782,-4.525 0.781,-4.323 0.782,-4.134 0.782,-3.959 0.781,-3.796 0.782,-3.644 0.782,-3.501 0.781,-3.367 0.782,-3.242 0.782,-3.125 0.781,-3.015 0.782,-2.911 0.782,-2.813 0.781,-2.721 0.782,-2.633 0.782,-2.552 0.781,-2.474 0.782,-2.4 0.782,-2.33 0.781,-2.264 0.782,-2.202 0.782,-2.141 0.781,-2.085 0.782,-2.031 0.782,-1.98 0.781,-1.931 0.782,-1.884 0.782,-1.84 0.781,-1.798 0.782,-1.757 0.782,-1.718 0.781,-1.681 0.782,-1.646 0.782,-1.612 0.781,-1.58 0.782,-1.549 0.782,-1.52 0.781,-1.491 0.782,-1.463 0.782,-1.438 0.781,-1.412 0.782,-1.389 0.782,-1.366 0.781,-1.343 0.782,-1.323 0.782,-1.301 0.781,-1.283 0.782,-1.264 0.782,-1.245 0.781,-1.229 0.782,-1.211 0.782,-1.196 0.781,-1.18 0.782,-1.166 0.782,-1.152 0.781,-1.138 0.782,-1.125 0.782,-1.112 0.781,-1.101 0.782,-1.089 0.782,-1.078 0.781,-1.067 0.782,-1.057 0.782,-1.048 0.781,-1.038 0.782,-1.03 0.782,-1.02 0.781,-1.013 0.782,-1.005 0.782,-0.998 0.781,-0.99 0.782,-0.984 0.782,-0.977 0.781,-0.972 0.782,-0.966 0.782,-0.96 0.781,-0.955 0.782,-0.95 0.782,-0.946 0.781,-0.942 0.782,-0.937 0.782,-0.934 0.781,-0.931 0.782,-0.927 0.782,-0.925 0.781,-0.922 0.782,-0.919 0.782,-0.918 0.781,-0.915 0.782,-0.915 0.782,-0.913 0.781,-0.911 0.782,-0.911 0.782,-0.911 0.781,-0.91 0.782,-0.91 0.782,-0.91 0.781,-0.911 0.782,-0.911 0.782,-0.912 0.781,-0.913 0.782,-0.915 0.782,-0.917 0.781,-0.918 0.782,-0.921 0.782,-0.923 0.781,-0.926 0.782,-0.928 0.782,-0.932 0.781,-0.936 0.782,-0.939 0.782,-0.944 0.781,-0.947 0.782,-0.953 0.782,-0.957 0.781,-0.963 0.782,-0.968 0.782,-0.974 0.781,-0.98 0.782,-0.987 0.782,-0.993 0.781,-1.001 0.782,-1.009 0.782,-1.016 0.781,-1.024 0.782,-1.034 0.782,-1.042 0.781,-1.052 0.782,-1.061 0.782,-1.072 0.781,-1.083 0.782,-1.094 0.782,-1.106 0.781,-1.118 0.782,-1.13 0.782,-1.144 0.781,-1.158 0.782,-1.172 0.782,-1.187 0.781,-1.203 0.782,-1.219 0.782,-1.236 0.781,-1.253 0.782,-1.272"
     inkscape:connector-curvature="0"
     style="fill:none;stroke:#ff0000;stroke-width:5" />
</svg>
