<?xml version="1.0" encoding="UTF-8" standalone="no"?>
<svg
   xmlns:dc="http://purl.org/dc/elements/1.1/"
   xmlns:cc="http://creativecommons.org/ns#"
   xmlns:rdf="http://www.w3.org/1999/02/22-rdf-syntax-ns#"
   xmlns:svg="http://www.w3.org/2000/svg"
   xmlns="http://www.w3.org/2000/svg"
   xmlns:sodipodi="http://sodipodi.sourceforge.net/DTD/sodipodi-0.dtd"
   xmlns:inkscape="http://www.inkscape.org/namespaces/inkscape"
   id="preview"
   width="524.49115"
   height="524.49115"
   viewBox="0 0 524.49115 524.49115"
   xunitlength="67"
   yunitlength="67"
   xmin="-3.5"
   xmax="3.5"
   ymin="-3.5"
   ymax="3.5"
   ox="274.5"
   oy="274.5"
   version="1.1"
   sodipodi:docname="tanh(x).svg"
   inkscape:version="0.92.1 r15371">
  <metadata
     id="metadata46">
    <rdf:RDF>
      <cc:Work
         rdf:about="">
        <dc:format>image/svg+xml</dc:format>
        <dc:type
           rdf:resource="http://purl.org/dc/dcmitype/StillImage" />
      </cc:Work>
    </rdf:RDF>
  </metadata>
  <sodipodi:namedview
     pagecolor="#ffffff"
     bordercolor="#666666"
     borderopacity="1"
     objecttolerance="10"
     gridtolerance="10"
     guidetolerance="10"
     inkscape:pageopacity="0"
     inkscape:pageshadow="2"
     inkscape:window-width="640"
     inkscape:window-height="480"
     id="namedview44"
     showgrid="false"
     inkscape:zoom="0.39398998"
     inkscape:cx="233.05263"
     inkscape:cy="277.47"
     inkscape:window-x="0"
     inkscape:window-y="0"
     inkscape:window-maximized="0"
     inkscape:current-layer="preview" />
  <defs
     id="defs6">
    <style
       type="text/css"
       id="style2">@import url(&quot;http://cdnjs.cloudflare.com/ajax/libs/KaTeX/0.2.0/katex.min.css&quot;)</style>
    <style
       type="text/css"
       id="style4"><![CDATA[text {font-family="KaTeX_Main,serif"}]]></style>
  </defs>
  <path
     d="m 501.346,264.83314 21.564,7.188 -21.564,7.188 3.594,-7.188 z"
     id="path8"
     inkscape:connector-curvature="0"
     style="fill:#000000;stroke:#000000;stroke-width:1" />
  <path
     d="m 245.282,23.145139 7.188,-21.5640002 7.188,21.5640002 -7.188,-3.594 z"
     id="path10"
     inkscape:connector-curvature="0"
     style="fill:#000000;stroke:#000000;stroke-width:1" />
  <path
     d="M 0,272.02114 H 504.94 M 252.47,19.551139 V 524.49114 m 0,-245.47 v -14 m 67,14 v -14 m 67,14 v -14 m 67,14 v -14 m -268,14 v -14 m -67,14 v -14 m -67,14 v -14 m 208,7 h -14 m 14,67 h -14 m 14,67 h -14 m 14,67 h -14 m 14,-268 h -14 m 14,-67 h -14 m 14,-67.000001 h -14"
     id="path12"
     inkscape:connector-curvature="0"
     style="fill:none;stroke:#000000;stroke-width:2" />
  <text
     id="null"
     x="319.47"
     y="302.02115"
     font-style=""
     font-size="28"
     font-weight="normal"
     style="font-weight:normal;font-size:28px;text-anchor:middle;fill:#000000;stroke-width:0px">1</text>
  <text
     id="text15"
     x="386.47"
     y="302.02115"
     font-style=""
     font-size="28"
     font-weight="normal"
     style="font-weight:normal;font-size:28px;text-anchor:middle;fill:#000000;stroke-width:0px">2</text>
  <text
     id="text17"
     x="453.47"
     y="302.02115"
     font-style=""
     font-size="28"
     font-weight="normal"
     style="font-weight:normal;font-size:28px;text-anchor:middle;fill:#000000;stroke-width:0px">3</text>
  <text
     id="text19"
     x="185.47"
     y="302.02115"
     font-style=""
     font-size="28"
     font-weight="normal"
     style="font-weight:normal;font-size:28px;text-anchor:middle;fill:#000000;stroke-width:0px">-1</text>
  <text
     id="text21"
     x="118.47"
     y="302.02115"
     font-style=""
     font-size="28"
     font-weight="normal"
     style="font-weight:normal;font-size:28px;text-anchor:middle;fill:#000000;stroke-width:0px">-2</text>
  <text
     id="text23"
     x="51.470001"
     y="302.02115"
     font-style=""
     font-size="28"
     font-weight="normal"
     style="font-weight:normal;font-size:28px;text-anchor:middle;fill:#000000;stroke-width:0px">-3</text>
  <text
     id="text25"
     x="241.13599"
     y="214.35414"
     font-style=""
     font-size="28"
     font-weight="normal"
     style="font-weight:normal;font-size:28px;text-anchor:end;fill:#000000;stroke-width:0px">1</text>
  <text
     id="text27"
     x="241.13599"
     y="147.35413"
     font-style=""
     font-size="28"
     font-weight="normal"
     style="font-weight:normal;font-size:28px;text-anchor:end;fill:#000000;stroke-width:0px">2</text>
  <text
     id="text29"
     x="241.13599"
     y="80.354134"
     font-style=""
     font-size="28"
     font-weight="normal"
     style="font-weight:normal;font-size:28px;text-anchor:end;fill:#000000;stroke-width:0px">3</text>
  <text
     id="text31"
     x="241.13599"
     y="348.35416"
     font-style=""
     font-size="28"
     font-weight="normal"
     style="font-weight:normal;font-size:28px;text-anchor:end;fill:#000000;stroke-width:0px">-1</text>
  <text
     id="text33"
     x="241.13599"
     y="415.35416"
     font-style=""
     font-size="28"
     font-weight="normal"
     style="font-weight:normal;font-size:28px;text-anchor:end;fill:#000000;stroke-width:0px">-2</text>
  <text
     id="text35"
     x="241.13599"
     y="482.35416"
     font-style=""
     font-size="28"
     font-weight="normal"
     style="font-weight:normal;font-size:28px;text-anchor:end;fill:#000000;stroke-width:0px">-3</text>
  <text
     id="text37"
     x="252.47"
     y="-9.7528591"
     font-style="italic"
     font-size="28"
     font-weight="normal"
     style="font-style:italic;font-weight:normal;font-size:28px;text-anchor:middle;fill:#000000;stroke-width:0px" />
  <text
     id="text39"
     x="534.24298"
     y="281.35416"
     font-style="italic"
     font-size="28"
     font-weight="normal"
     style="font-style:italic;font-weight:normal;font-size:28px;text-anchor:start;fill:#000000;stroke-width:0px" />
  <path
     id="path41"
     d="m 3.9,338.94014 0.781,-0.002 0.782,-0.002 0.781,-0.002 0.782,-0.002 0.782,-0.002 0.781,-0.002 0.782,-0.002 0.782,-0.002 0.781,-0.002 0.782,-0.003 0.782,-0.002 0.781,-0.003 0.782,-0.002 0.782,-0.003 0.781,-0.002 0.782,-0.003 0.782,-0.003 0.781,-0.003 0.782,-0.002 0.782,-0.003 0.781,-0.003 0.782,-0.004 0.782,-0.003 0.781,-0.003 0.782,-0.003 0.782,-0.004 0.781,-0.003 0.782,-0.004 0.782,-0.003 0.781,-0.004 0.782,-0.004 0.782,-0.004 0.781,-0.004 0.782,-0.004 0.782,-0.004 0.781,-0.004 0.782,-0.005 0.782,-0.004 0.781,-0.005 0.782,-0.004 0.782,-0.005 0.781,-0.005 0.782,-0.005 0.782,-0.005 0.781,-0.006 0.782,-0.005 0.782,-0.005 0.781,-0.006 0.782,-0.006 0.782,-0.006 0.781,-0.006 0.782,-0.006 0.782,-0.006 0.781,-0.007 0.782,-0.007 0.782,-0.006 0.781,-0.007 0.782,-0.008 0.782,-0.007 0.781,-0.007 0.782,-0.008 0.782,-0.008 0.781,-0.008 0.782,-0.008 0.782,-0.008 0.781,-0.009 0.782,-0.009 0.782,-0.009 0.781,-0.009 0.782,-0.009 0.782,-0.01 0.781,-0.01 0.782,-0.01 0.782,-0.01 0.781,-0.011 0.782,-0.011 0.782,-0.011 0.781,-0.011 0.782,-0.012 0.782,-0.012 0.781,-0.012 0.782,-0.012 0.782,-0.013 0.781,-0.013 0.782,-0.013 0.782,-0.014 0.781,-0.014 0.782,-0.014 0.782,-0.015 0.781,-0.015 0.782,-0.015 0.782,-0.016 0.781,-0.016 0.782,-0.016 0.782,-0.017 0.781,-0.017 0.782,-0.018 0.782,-0.018 0.781,-0.018 0.782,-0.019 0.782,-0.02 0.781,-0.019 0.782,-0.021 0.782,-0.02 0.781,-0.021 0.782,-0.022 0.782,-0.022 0.781,-0.023 0.782,-0.023 0.782,-0.024 0.781,-0.024 0.782,-0.025 0.782,-0.026 0.781,-0.026 0.782,-0.026 0.782,-0.027 0.781,-0.028 0.782,-0.029 0.782,-0.029 0.781,-0.03 0.782,-0.03 0.782,-0.032 0.781,-0.032 0.782,-0.032 0.782,-0.034 0.781,-0.034 0.782,-0.035 0.782,-0.036 0.781,-0.037 0.782,-0.037 0.782,-0.039 0.781,-0.039 0.782,-0.04 0.782,-0.041 0.781,-0.042 0.782,-0.043 0.782,-0.044 0.781,-0.045 0.782,-0.046 0.782,-0.047 0.781,-0.048 0.782,-0.05 0.782,-0.05 0.781,-0.052 0.782,-0.052 0.782,-0.054 0.781,-0.055 0.782,-0.057 0.782,-0.057 0.781,-0.059 0.782,-0.061 0.782,-0.061 0.781,-0.064 0.782,-0.064 0.782,-0.066 0.781,-0.067 0.782,-0.069 0.782,-0.071 0.781,-0.072 0.782,-0.074 0.782,-0.075 0.781,-0.077 0.782,-0.079 0.782,-0.081 0.781,-0.082 0.782,-0.084 0.782,-0.086 0.781,-0.088 0.782,-0.09 0.782,-0.092 0.781,-0.094 0.782,-0.096 0.782,-0.098 0.781,-0.101 0.782,-0.102 0.782,-0.105 0.781,-0.107 0.782,-0.11 0.782,-0.111 0.781,-0.115 0.782,-0.117 0.782,-0.119 0.781,-0.122 0.782,-0.124 0.782,-0.127 0.781,-0.13 0.782,-0.133 0.782,-0.136 0.781,-0.138 0.782,-0.142 0.782,-0.144 0.781,-0.148 0.782,-0.15 0.782,-0.154 0.781,-0.157 0.782,-0.161 0.782,-0.164 0.781,-0.167 0.782,-0.171 0.782,-0.174 0.781,-0.178 0.782,-0.181 0.782,-0.186 0.781,-0.189 0.782,-0.193 0.782,-0.197 0.781,-0.201 0.782,-0.205 0.782,-0.209 0.781,-0.213 0.782,-0.218 0.782,-0.222 0.781,-0.226 0.782,-0.231 0.782,-0.236 0.781,-0.24 0.782,-0.244 0.782,-0.25 0.781,-0.254 0.782,-0.26 0.782,-0.264 0.781,-0.269 0.782,-0.275 0.782,-0.279 0.781,-0.285 0.782,-0.291 0.782,-0.295 0.781,-0.301 0.782,-0.307 0.782,-0.312 0.781,-0.318 0.782,-0.324 0.782,-0.33 0.781,-0.335 0.782,-0.341 0.782,-0.348 0.781,-0.353 0.782,-0.36 0.782,-0.366 0.781,-0.372 0.782,-0.378 0.782,-0.385 0.781,-0.391 0.782,-0.397 0.782,-0.404 0.781,-0.411 0.782,-0.418 0.782,-0.424 0.781,-0.43 0.782,-0.438 0.782,-0.444 0.781,-0.451 0.782,-0.458 0.782,-0.465 0.781,-0.472 0.782,-0.478 0.782,-0.486 0.781,-0.493 0.782,-0.499 0.782,-0.507 0.781,-0.514 0.782,-0.52 0.782,-0.528 0.781,-0.535 0.782,-0.542 0.782,-0.548 0.781,-0.556 0.782,-0.563 0.782,-0.569 0.781,-0.577 0.782,-0.583 0.782,-0.59 0.781,-0.597 0.782,-0.604 0.782,-0.611 0.781,-0.617 0.782,-0.624 0.782,-0.63 0.781,-0.636 0.782,-0.643 0.782,-0.65 0.781,-0.655 0.782,-0.662 0.782,-0.667 0.781,-0.674 0.782,-0.679 0.782,-0.685 0.781,-0.69 0.782,-0.696 0.782,-0.701 0.781,-0.707 0.782,-0.711 0.782,-0.717 0.781,-0.721 0.782,-0.725 0.782,-0.731 0.781,-0.734 0.782,-0.739 0.782,-0.742 0.781,-0.747 0.782,-0.749 0.782,-0.754 0.781,-0.757 0.782,-0.759 0.782,-0.763 0.781,-0.765 0.782,-0.768 0.782,-0.77 0.781,-0.772 0.782,-0.774 0.782,-0.776 0.781,-0.777 0.782,-0.778 0.782,-0.78 0.781,-0.78 0.782,-0.781 0.782,-0.782 0.781,-0.781 0.782,-0.782 0.782,-0.781 0.781,-0.781 0.782,-0.781 0.782,-0.779 0.781,-0.779 0.782,-0.777 0.782,-0.775 0.781,-0.775 0.782,-0.772 0.782,-0.77 0.781,-0.767 0.782,-0.766 0.782,-0.762 0.781,-0.76 0.782,-0.757 0.782,-0.753 0.781,-0.75 0.782,-0.746 0.782,-0.743 0.781,-0.739 0.782,-0.734 0.782,-0.73 0.781,-0.726 0.782,-0.721 0.782,-0.716 0.781,-0.712 0.782,-0.706 0.782,-0.701 0.781,-0.696 0.782,-0.691 0.782,-0.685 0.781,-0.679 0.782,-0.674 0.782,-0.667 0.781,-0.662 0.782,-0.655 0.782,-0.649 0.781,-0.643 0.782,-0.637 0.782,-0.63 0.781,-0.624 0.782,-0.617 0.782,-0.61 0.781,-0.604 0.782,-0.597 0.782,-0.59 0.781,-0.584 0.782,-0.576 0.782,-0.57 0.781,-0.563 0.782,-0.555 0.782,-0.549 0.781,-0.542 0.782,-0.535 0.782,-0.527 0.781,-0.521 0.782,-0.514 0.782,-0.506 0.781,-0.5 0.782,-0.493 0.782,-0.485 0.781,-0.479 0.782,-0.472 0.782,-0.465 0.781,-0.458 0.782,-0.451 0.782,-0.444 0.781,-0.437 0.782,-0.431 0.782,-0.424 0.781,-0.418 0.782,-0.41 0.782,-0.404 0.781,-0.398 0.782,-0.391 0.782,-0.385 0.781,-0.378 0.782,-0.372 0.782,-0.366 0.781,-0.36 0.782,-0.353 0.782,-0.347 0.781,-0.342 0.782,-0.335 0.782,-0.33 0.781,-0.323 0.782,-0.318 0.782,-0.313 0.781,-0.306 0.782,-0.302 0.782,-0.295 0.781,-0.29 0.782,-0.285 0.782,-0.28 0.781,-0.275 0.782,-0.269 0.782,-0.264 0.781,-0.259 0.782,-0.255 0.782,-0.249 0.781,-0.245 0.782,-0.24 0.782,-0.236 0.781,-0.231 0.782,-0.226 0.782,-0.222 0.781,-0.218 0.782,-0.213 0.781,-0.209 0.782,-0.205 0.782,-0.201 0.781,-0.197 0.782,-0.193 0.782,-0.189 0.781,-0.186 0.782,-0.181 0.782,-0.178 0.781,-0.174 0.782,-0.171 0.782,-0.167 0.781,-0.164 0.782,-0.16 0.782,-0.158 0.781,-0.153 0.782,-0.151 0.782,-0.148 0.781,-0.144 0.782,-0.142 0.782,-0.138 0.781,-0.136 0.782,-0.133 0.782,-0.129 0.781,-0.128 0.782,-0.124 0.782,-0.122 0.781,-0.119 0.782,-0.117 0.782,-0.114 0.781,-0.112 0.782,-0.11 0.782,-0.107 0.781,-0.105 0.782,-0.102 0.782,-0.101 0.781,-0.098 0.782,-0.096 0.782,-0.094 0.781,-0.092 0.782,-0.09 0.782,-0.088 0.781,-0.086 0.782,-0.084 0.782,-0.082 0.781,-0.081 0.782,-0.079 0.782,-0.077 0.781,-0.075 0.782,-0.074 0.782,-0.072 0.781,-0.07 0.782,-0.069 0.782,-0.068 0.781,-0.066 0.782,-0.064 0.782,-0.063 0.781,-0.062 0.782,-0.06 0.782,-0.059 0.781,-0.058 0.782,-0.057 0.782,-0.055 0.781,-0.054 0.782,-0.052 0.782,-0.052 0.781,-0.05 0.782,-0.049 0.782,-0.049 0.781,-0.047 0.782,-0.046 0.782,-0.045 0.781,-0.044 0.782,-0.043 0.782,-0.042 0.781,-0.041 0.782,-0.04 0.782,-0.039 0.781,-0.039 0.782,-0.037 0.782,-0.037 0.781,-0.036 0.782,-0.035 0.782,-0.034 0.781,-0.034 0.782,-0.032 0.782,-0.032 0.781,-0.032 0.782,-0.03 0.782,-0.03 0.781,-0.029 0.782,-0.029 0.782,-0.028 0.781,-0.027 0.782,-0.026 0.782,-0.026 0.781,-0.026 0.782,-0.025 0.782,-0.024 0.781,-0.024 0.782,-0.023 0.782,-0.023 0.781,-0.022 0.782,-0.022 0.782,-0.021 0.781,-0.02 0.782,-0.021 0.782,-0.019 0.781,-0.02 0.782,-0.019 0.782,-0.018 0.781,-0.018 0.782,-0.018 0.782,-0.017 0.781,-0.017 0.782,-0.016 0.782,-0.016 0.781,-0.016 0.782,-0.015 0.782,-0.015 0.781,-0.015 0.782,-0.014 0.782,-0.014 0.781,-0.014 0.782,-0.013 0.782,-0.013 0.781,-0.013 0.782,-0.012 0.782,-0.012 0.781,-0.012 0.782,-0.012 0.782,-0.011 0.781,-0.011 0.782,-0.011 0.782,-0.011 0.781,-0.01 0.782,-0.01 0.782,-0.01 0.781,-0.01 0.782,-0.009 0.782,-0.009 0.781,-0.009 0.782,-0.009 0.782,-0.009 0.781,-0.008 0.782,-0.008 0.782,-0.008 0.781,-0.008 0.782,-0.008 0.782,-0.007 0.781,-0.007 0.782,-0.008 0.782,-0.007 0.781,-0.006 0.782,-0.007 0.782,-0.007 0.781,-0.006 0.782,-0.006 0.782,-0.006 0.781,-0.006 0.782,-0.006 0.782,-0.006 0.781,-0.005 0.782,-0.005 0.782,-0.006 0.781,-0.005 0.782,-0.005 0.782,-0.005 0.781,-0.005 0.782,-0.004 0.782,-0.005 0.781,-0.004 0.782,-0.005 0.782,-0.004 0.781,-0.004 0.782,-0.004 0.782,-0.004 0.781,-0.004 0.782,-0.004 0.782,-0.004 0.781,-0.003 0.782,-0.004 0.782,-0.003 0.781,-0.004 0.782,-0.003 0.782,-0.003 0.781,-0.003 0.782,-0.004 0.782,-0.003 0.781,-0.003 0.782,-0.002 0.782,-0.003 0.781,-0.003 0.782,-0.003 0.782,-0.002 0.781,-0.003 0.782,-0.002 0.782,-0.003 0.781,-0.002 0.782,-0.003 0.782,-0.002 0.781,-0.002 0.782,-0.002 0.782,-0.002 0.781,-0.002 0.782,-0.002 0.782,-0.002 0.781,-0.002 0.782,-0.002"
     inkscape:connector-curvature="0"
     style="fill:none;stroke:#ff0000;stroke-width:5" />
</svg>
