<?xml version="1.0" encoding="UTF-8" standalone="no"?>
<svg
   xmlns:dc="http://purl.org/dc/elements/1.1/"
   xmlns:cc="http://creativecommons.org/ns#"
   xmlns:rdf="http://www.w3.org/1999/02/22-rdf-syntax-ns#"
   xmlns:svg="http://www.w3.org/2000/svg"
   xmlns="http://www.w3.org/2000/svg"
   xmlns:sodipodi="http://sodipodi.sourceforge.net/DTD/sodipodi-0.dtd"
   xmlns:inkscape="http://www.inkscape.org/namespaces/inkscape"
   id="preview"
   width="545.16229"
   height="545.16229"
   viewBox="0 0 545.16229 545.16229"
   xunitlength="47"
   yunitlength="47"
   xmin="-5"
   xmax="5"
   ymin="-5"
   ymax="5"
   ox="275"
   oy="275"
   version="1.1"
   sodipodi:docname="xy=1.svg"
   inkscape:version="0.92.1 r15371">
  <metadata
     id="metadata28">
    <rdf:RDF>
      <cc:Work
         rdf:about="">
        <dc:format>image/svg+xml</dc:format>
        <dc:type
           rdf:resource="http://purl.org/dc/dcmitype/StillImage" />
      </cc:Work>
    </rdf:RDF>
  </metadata>
  <sodipodi:namedview
     pagecolor="#ffffff"
     bordercolor="#666666"
     borderopacity="1"
     objecttolerance="10"
     gridtolerance="10"
     guidetolerance="10"
     inkscape:pageopacity="0"
     inkscape:pageshadow="2"
     inkscape:window-width="640"
     inkscape:window-height="480"
     id="namedview26"
     showgrid="false"
     inkscape:zoom="0.39333333"
     inkscape:cx="253.08961"
     inkscape:cy="297.58114"
     inkscape:window-x="0"
     inkscape:window-y="0"
     inkscape:window-maximized="0"
     inkscape:current-layer="preview" />
  <defs
     id="defs6">
    <style
       type="text/css"
       id="style2">@import url(&quot;http://cdnjs.cloudflare.com/ajax/libs/KaTeX/0.2.0/katex.min.css&quot;)</style>
    <style
       type="text/css"
       id="style4"><![CDATA[text {font-family="KaTeX_Main,serif"}]]></style>
  </defs>
  <path
     d="m 23.181139,279.78114 -21.6000002,-7.2 21.6000002,-7.2 -3.6,7.2 z"
     id="path8"
     inkscape:connector-curvature="0"
     style="fill:#000000;stroke:#000000;stroke-width:1" />
  <path
     d="m 521.98114,265.38114 21.6,7.2 -21.6,7.2 3.6,-7.2 z"
     id="path10"
     inkscape:connector-curvature="0"
     style="fill:#000000;stroke:#000000;stroke-width:1" />
  <path
     d="m 265.38114,23.181139 7.2,-21.6000002 7.2,21.6000002 -7.2,-3.6 z"
     id="path12"
     inkscape:connector-curvature="0"
     style="fill:#000000;stroke:#000000;stroke-width:1" />
  <path
     d="m 279.78114,521.98114 -7.2,21.6 -7.2,-21.6 7.2,3.6 z"
     id="path14"
     inkscape:connector-curvature="0"
     style="fill:#000000;stroke:#000000;stroke-width:1" />
  <path
     d="M 19.581139,272.58114 H 525.58114 m -253,-253.000001 V 525.58114 m 0,-246 v -14 m 47,14 v -14 m 47,14 v -14 m 47,14 v -14 m 47,14 v -14 m 47,14 v -14 m -282,14 v -14 m -47,14 v -14 m -47,14 v -14 m -47.000001,14 v -14 m -47,14 v -14 m 242.000001,7 h -14 m 14,47 h -14 m 14,47 h -14 m 14,47 h -14 m 14,47 h -14 m 14,47 h -14 m 14,-282 h -14 m 14,-47 h -14 m 14,-47 h -14 m 14,-47.000001 h -14 m 14,-47 h -14"
     id="path16"
     inkscape:connector-curvature="0"
     style="fill:none;stroke:#000000;stroke-width:2" />
  <text
     id="null"
     x="272.58115"
     y="-9.752861"
     font-style="italic"
     font-size="28"
     font-weight="normal"
     style="font-style:italic;font-weight:normal;font-size:28px;text-anchor:middle;fill:#000000;stroke-width:0px" />
  <text
     id="text19"
     x="554.91412"
     y="281.91415"
     font-style="italic"
     font-size="28"
     font-weight="normal"
     style="font-style:italic;font-weight:normal;font-size:28px;text-anchor:start;fill:#000000;stroke-width:0px" />
  <path
     id="path21"
     d="m 23.481139,281.44814 0.783,0.028 0.783,0.029 0.783,0.028 0.784,0.028 0.783,0.029 0.783,0.029 0.784,0.029 0.783,0.029 0.783,0.03 0.784,0.029 0.783,0.03 0.783,0.03 0.784,0.03 0.783,0.031 0.783,0.03 0.784,0.031 0.783,0.031 0.783,0.031 0.784,0.032 0.783,0.032 0.783,0.031 0.784,0.033 0.783,0.032 0.783,0.032 0.784,0.033 0.783,0.033 0.783,0.033 0.784,0.034 0.783,0.033 0.783,0.034 0.784,0.034 0.783,0.035 0.783,0.034 0.784,0.035 0.783,0.035 0.783,0.035 0.784,0.036 0.783,0.036 0.783,0.036 0.784,0.036 0.783,0.037 0.783,0.037 0.784,0.037 0.783,0.037 0.783,0.038 0.784,0.038 0.783,0.038 0.783,0.039 0.784,0.039 0.783,0.039 0.783,0.039 0.784,0.04 0.783,0.04 0.783,0.04 0.784,0.041 0.783,0.041 0.783,0.041 0.784,0.042 0.783,0.042 0.783,0.042 0.784,0.042 0.783,0.043 0.783,0.043 0.784,0.044 0.783,0.044 0.783,0.044 0.784,0.045 0.783,0.044 0.783,0.046 0.784,0.045 0.783,0.047 0.783,0.046 0.784,0.047 0.783,0.047 0.783,0.047 0.784,0.048 0.783,0.049 0.783,0.048 0.784,0.05 0.783,0.049 0.783,0.05 0.784,0.051 0.783,0.05 0.783,0.052 0.784,0.051 0.783,0.053 0.783,0.052 0.784,0.053 0.783,0.054 0.783,0.054 0.784,0.054 0.783,0.055 0.783,0.056 0.784,0.056 0.783,0.056 0.783,0.057 0.784,0.058 0.783001,0.058 0.783,0.058 0.784,0.059 0.783,0.06 0.783,0.06 0.784,0.061 0.783,0.061 0.783,0.062 0.784,0.062 0.783,0.063 0.783,0.064 0.784,0.064 0.783,0.065 0.783,0.066 0.784,0.066 0.783,0.067 0.783,0.067 0.784,0.068 0.783,0.069 0.783,0.069 0.784,0.07 0.783,0.071 0.783,0.072 0.784,0.072 0.783,0.073 0.783,0.074 0.784,0.075 0.783,0.075 0.783,0.076 0.784,0.077 0.783,0.078 0.783,0.078 0.784,0.079 0.783,0.081 0.783,0.081 0.784,0.082 0.783,0.083 0.783,0.083 0.784,0.085 0.783,0.086 0.783,0.086 0.784,0.088 0.783,0.088 0.783,0.09 0.784,0.09 0.783,0.092 0.783,0.092 0.784,0.094 0.783,0.095 0.783,0.096 0.784,0.097 0.783,0.098 0.783,0.099 0.784,0.101 0.783,0.101 0.783,0.103 0.784,0.105 0.783,0.105 0.783,0.107 0.784,0.108 0.783,0.109 0.783,0.111 0.784,0.113 0.783,0.113 0.783,0.115 0.784,0.117 0.783,0.118 0.783,0.12 0.784,0.121 0.783,0.123 0.783,0.124 0.784,0.127 0.783,0.128 0.783,0.129 0.784,0.132 0.783,0.133 0.783,0.135 0.784,0.137 0.783,0.139 0.783,0.14 0.784,0.143 0.783,0.145 0.783,0.147 0.784,0.149 0.783,0.152 0.783,0.153 0.784,0.156 0.783,0.158 0.783,0.161 0.784,0.163 0.783,0.166 0.783,0.168 0.784,0.171 0.783,0.173 0.783,0.176 0.784,0.179 0.783,0.182 0.783,0.185 0.784,0.188 0.783,0.191 0.783,0.194 0.784,0.198 0.783,0.201 0.783,0.204 0.784,0.208 0.783,0.211 0.783,0.215 0.784,0.219 0.783,0.223 0.783,0.227 0.784,0.231 0.783,0.235 0.783,0.24 0.784,0.244 0.783,0.248 0.783,0.254 0.784,0.258 0.783,0.263 0.783,0.269 0.784,0.273 0.783,0.279 0.783,0.285 0.784,0.291 0.783,0.297 0.783,0.302 0.784,0.31 0.783,0.315 0.783,0.323 0.784,0.33 0.783,0.336 0.783,0.345 0.784,0.352 0.783,0.36 0.783,0.368 0.784,0.377 0.783,0.386 0.783,0.395 0.784,0.404 0.783,0.415 0.783,0.424 0.784,0.435 0.783,0.447 0.783,0.457 0.784,0.47 0.783,0.482 0.783,0.494 0.784,0.508 0.783,0.523 0.783,0.536 0.784,0.552 0.783,0.567 0.783,0.584 0.784,0.601 0.783,0.619 0.783,0.638 0.784,0.657 0.783,0.678 0.783,0.699 0.784,0.722 0.783,0.746 0.783,0.77 0.784,0.797 0.783,0.824 0.783,0.853 0.784,0.883 0.783,0.916 0.783,0.949 0.784,0.986 0.783,1.023 0.783,1.063 0.784,1.106 0.783,1.151 0.783,1.199 0.784,1.25 0.783,1.304 0.783,1.363 0.784,1.424 0.783,1.49 0.783,1.562 0.784,1.638 0.783,1.719 0.783,1.808 0.784,1.902 0.783,2.006 0.783,2.117 0.784,2.238 0.783,2.37 0.783,2.513 0.784,2.671 0.783,2.842 0.783,3.033 0.784,3.241 0.783,3.473 0.783,3.73 0.784,4.017 0.783,4.338 0.783,4.7 0.784,5.109 0.783,5.573 0.783,6.103 0.784,6.714 0.783,7.421 0.783,8.246 0.784,9.215 0.783,10.367 0.783,11.75 0.784,13.428 0.783,15.493 0.783,18.077 0.518,14.106"
     inkscape:connector-curvature="0"
     style="fill:none;stroke:#ff0000;stroke-width:5" />
  <path
     id="path23"
     d="m 281.46414,23.480139 1.3,32.172 0.783,15.495 0.783,13.429 0.784,11.751 0.783,10.368001 0.783,9.216 0.784,8.246 0.783,7.421 0.783,6.715 0.784,6.104 0.783,5.573 0.783,5.109 0.784,4.7 0.783,4.339 0.783,4.017 0.784,3.73 0.783,3.473 0.783,3.241 0.784,3.033 0.783,2.843 0.783,2.67 0.784,2.513 0.783,2.37 0.783,2.238 0.784,2.118 0.783,2.005 0.783,1.903 0.784,1.808 0.783,1.719 0.783,1.638 0.784,1.562 0.783,1.49 0.783,1.424 0.784,1.363 0.783,1.304 0.783,1.25 0.784,1.199 0.783,1.151 0.783,1.106 0.784,1.063 0.783,1.024 0.783,0.985 0.784,0.949 0.783,0.916 0.783,0.883 0.784,0.853 0.783,0.825 0.783,0.796 0.784,0.771 0.783,0.745 0.783,0.722 0.784,0.7 0.783,0.678 0.783,0.657 0.784,0.638 0.783,0.619 0.783,0.601 0.784,0.584 0.783,0.567 0.783,0.552 0.784,0.536 0.783,0.522 0.783,0.508 0.784,0.495 0.783,0.482 0.783,0.469 0.784,0.458 0.783,0.446 0.783,0.436 0.784,0.424 0.783,0.414 0.783,0.405 0.784,0.395 0.783,0.386 0.783,0.377 0.784,0.368 0.783,0.36 0.783,0.352 0.784,0.344 0.783,0.337 0.783,0.33 0.784,0.322 0.783,0.316 0.783,0.309 0.784,0.303 0.783,0.297 0.783,0.291 0.784,0.284 0.783,0.28 0.783,0.273 0.784,0.269 0.783,0.263 0.783,0.258 0.784,0.254 0.783,0.248 0.783,0.244 0.783,0.24 0.784,0.235 0.783,0.231 0.783,0.227 0.784,0.223 0.783,0.219 0.783,0.215 0.784,0.211 0.783,0.208 0.783,0.204 0.784,0.201 0.783,0.197 0.783,0.195 0.784,0.191 0.783,0.188 0.783,0.184 0.784,0.182 0.783,0.179 0.783,0.177 0.784,0.173 0.783,0.171 0.783,0.168 0.784,0.166 0.783,0.163 0.783,0.16 0.784,0.159 0.783,0.156 0.783,0.153 0.784,0.151 0.783,0.15 0.783,0.147 0.784,0.145 0.783,0.142 0.783,0.141 0.784,0.139 0.783,0.137 0.783,0.135 0.784,0.133 0.783,0.132 0.783,0.129 0.784,0.128 0.783,0.126 0.783,0.125 0.784,0.123 0.783,0.121 0.783,0.12 0.784,0.118 0.783,0.117 0.783,0.115 0.784,0.113 0.783,0.113 0.783,0.11 0.784,0.11 0.783,0.108 0.783,0.107 0.784,0.105 0.783,0.105 0.783,0.102 0.784,0.102 0.783,0.101 0.783,0.099 0.784,0.098 0.783,0.097 0.783,0.096 0.784,0.095 0.783,0.094 0.783,0.092 0.784,0.092 0.783,0.09 0.783,0.09 0.784,0.088 0.783,0.088 0.783,0.086 0.784,0.086 0.783,0.085 0.783,0.083 0.784,0.083 0.783,0.082 0.783,0.081 0.784,0.08 0.783,0.08 0.783,0.078 0.784,0.078 0.783,0.077 0.783,0.076 0.784,0.075 0.783,0.075 0.783,0.074 0.784,0.073 0.783,0.072 0.783,0.072 0.784,0.07 0.783,0.071 0.783,0.069 0.784,0.069 0.783,0.068 0.783,0.067 0.784,0.067 0.783,0.066 0.783,0.066 0.784,0.065 0.783,0.064 0.783,0.064 0.784,0.063 0.783,0.062 0.783,0.062 0.784,0.061 0.783,0.061 0.783,0.06 0.784,0.06 0.783,0.059 0.783,0.058 0.784,0.058 0.783,0.058 0.783,0.057 0.784,0.056 0.783,0.056 0.783,0.056 0.784,0.055 0.783,0.054 0.783,0.054 0.784,0.054 0.783,0.053 0.783,0.052 0.784,0.052 0.783,0.052 0.783,0.051 0.784,0.051 0.783,0.051 0.783,0.05 0.784,0.049 0.783,0.049 0.783,0.049 0.784,0.049 0.783,0.048 0.783,0.047 0.784,0.047 0.783,0.047 0.783,0.046 0.784,0.047 0.783,0.045 0.783,0.045 0.784,0.045 0.783,0.045 0.783,0.044 0.784,0.044 0.783,0.044 0.783,0.043 0.784,0.043 0.783,0.042 0.783,0.042 0.784,0.042 0.783,0.042 0.783,0.041 0.784,0.041 0.783,0.041 0.783,0.04 0.784,0.04 0.783,0.04 0.783,0.039 0.784,0.039 0.783,0.039 0.783,0.039 0.784,0.038 0.783,0.038 0.783,0.038 0.784,0.037 0.783,0.037 0.783,0.037 0.784,0.037 0.783,0.036 0.783,0.036 0.784,0.036 0.783,0.035 0.783,0.036 0.784,0.035 0.783,0.035 0.783,0.034 0.784,0.035 0.783,0.034 0.783,0.034 0.784,0.033 0.783,0.034 0.783,0.033 0.784,0.033 0.783,0.033 0.783,0.032 0.784,0.032 0.783,0.033 0.783,0.031 0.784,0.032 0.783,0.031 0.783,0.032 0.784,0.031 0.783,0.031 0.783,0.03 0.784,0.031 0.783,0.03 0.783,0.03 0.784,0.03 0.783,0.029 0.783,0.03 0.784,0.029 0.783,0.029 0.783,0.029 0.784,0.029 0.783,0.028 0.783,0.028 0.784,0.029 0.783,0.028"
     inkscape:connector-curvature="0"
     style="fill:none;stroke:#ff0000;stroke-width:5" />
</svg>
